<svg xmlns="http://www.w3.org/2000/svg" width="588" height="1111" fill="none"><path fill="#fff" d="m400.273 241.947-1.657 2.909a18.747 18.747 0 0 0-5.311-4.51 18.713 18.713 0 0 0-13.175-2.072 144.197 144.197 0 0 0 6.847-21.603c2.382.189 4.755.895 6.959 2.157 8.136 4.633 10.97 14.992 6.337 23.119zm-21.151 36.876-.009.01z"/><path fill="#fff" d="M406.214 335.636a64.205 64.205 0 0 1-2.552 6.611c-3.361 7.439-8.211 14.568-14.521 20.877-10.773 10.773-23.938 17.309-36.961 19.381a58.802 58.802 0 0 1-5.057.574c-13.928.989-27.328-3.239-37.028-12.939-13.165-13.165-16.234-33.119-9.906-52 3.22-9.643 8.899-19.004 16.931-27.037 7.864-7.863 17.008-13.475 26.434-16.724l4.256-7.468a16.917 16.917 0 0 1 13.523-8.513l6.281-11.008a18.777 18.777 0 0 1 12.515-9.116 18.718 18.718 0 0 1 13.175 2.072c2.1 1.196 3.88 2.74 5.311 4.511 4.737 5.848 5.678 14.248 1.723 21.178l-8.249 14.465a44.28 44.28 0 0 1 4.068 3.588c13.061 13.052 16.188 32.799 10.057 51.548z"/><path fill="#4F75FA" d="m346.37 79.447-1.686 3.004c-1.939 3.447-18.344-2.11-36.66-12.402-18.316-10.293-31.594-21.433-29.663-24.88l1.299-2.316a145.042 145.042 0 0 0-33.826-3.974c-80.025 0-144.898 64.873-144.898 144.899 0 .424 0 .857.009 1.281.056 7.166.64 14.21 1.704 21.084a18.832 18.832 0 0 1 7.751 7.43l6.281 11.009a16.917 16.917 0 0 1 13.523 8.513l4.256 7.467c9.426 3.258 18.57 8.862 26.433 16.725 16.038 16.037 22.686 37.366 19.202 55.654 19.728 10.067 42.075 15.736 65.739 15.736 19.221 0 37.574-3.739 54.355-10.538 3.221-9.643 8.899-19.003 16.932-27.036 7.863-7.863 17.007-13.476 26.433-16.724l4.257-7.468a16.915 16.915 0 0 1 13.523-8.513l6.281-11.009a18.776 18.776 0 0 1 12.515-9.115 144.079 144.079 0 0 0 6.846-21.603 145.574 145.574 0 0 0 3.748-32.893c0-40.973-17.007-77.982-44.354-104.33z"/><path fill="#B8B1FF" d="m346.37 79.447-1.686 3.004c-1.939 3.447-18.344-2.11-36.66-12.402-18.316-10.293-31.594-21.433-29.663-24.88l1.299-2.316a145.042 145.042 0 0 0-33.826-3.974c-80.025 0-144.898 64.873-144.898 144.899 0 .424 0 .857.009 1.281.056 7.166.64 14.21 1.704 21.084a18.832 18.832 0 0 1 7.751 7.43l6.281 11.009a16.917 16.917 0 0 1 13.523 8.513l4.256 7.467c9.426 3.258 18.57 8.862 26.433 16.725 16.038 16.037 22.686 37.366 19.202 55.654 19.728 10.067 42.075 15.736 65.739 15.736 19.221 0 37.574-3.739 54.355-10.538 3.221-9.643 8.899-19.003 16.932-27.036 7.863-7.863 17.007-13.476 26.433-16.724l4.257-7.468a16.915 16.915 0 0 1 13.523-8.513l6.281-11.009a18.776 18.776 0 0 1 12.515-9.115 144.079 144.079 0 0 0 6.846-21.603 145.574 145.574 0 0 0 3.748-32.893c0-40.973-17.007-77.982-44.354-104.33z"/><path fill="#fff" d="M231.964 128.161c-7.195-19.474-25.925-33.364-47.905-33.364-28.203 0-51.068 22.865-51.068 51.068 0 28.204 22.865 51.059 51.068 51.059a50.844 50.844 0 0 0 30.144-9.841 50.87 50.87 0 0 1-3.155-17.703c0-16.923 8.231-31.924 20.916-41.219z"/><path fill="#fff" d="M262.117 118.321c-11.282 0-21.707 3.653-30.154 9.84-12.684 9.295-20.915 24.296-20.915 41.218a50.872 50.872 0 0 0 3.155 17.704c7.204 19.484 25.934 33.365 47.914 33.365 28.194 0 51.058-22.865 51.058-51.069 0-28.203-22.864-51.058-51.058-51.058z"/><path fill="#000" d="M199.72 220.447c-12.167 0-22.036 9.86-22.036 22.027 0 12.166 9.869 22.035 22.036 22.035 12.167 0 22.035-9.859 22.035-22.035 0-12.177-9.868-22.027-22.035-22.027zM188.107 68.209l-5.705 13.945 42.254 17.287 5.705-13.946-42.254-17.286zm127.677 37.126-4.323 14.426-45.079-13.503 4.323-14.437 45.079 13.514zm-54.355 33.402c-6.78-4.69-18.287.207-25.708 10.933-4.332 6.281-6.309 13.165-5.848 18.73v.019c.33 3.946 1.884 7.232 4.699 9.172 6.065 4.2 15.924.716 23.232-7.75l-9.803-11.677h16.63c2.844-8.165 1.827-15.943-3.202-19.427zm-79.517-20.303c-6.78-4.69-18.287.207-25.708 10.942-7.421 10.726-7.929 23.222-1.149 27.912 6.065 4.191 15.905.725 23.232-7.741l-9.803-11.686h16.63c2.844-8.165 1.827-15.943-3.202-19.427z"/><path fill="#94FCFF" d="m183.598 459.743-44.825 34.07a47.076 47.076 0 0 0-18.598 37.48v27.657l-83.906-24.484C9.996 526.801-4.9 499.087 3.216 472.945l34.682-111.77c10.33 6.583 29.551 15.077 52.133 22.62 22.459 7.505 42.819 12.261 55.061 13.24l-14.644 47.198 53.15 15.51zm332.118 3.446v85.44c0 32.225-19.446 59.911-47.245 71.955-9.54 4.134-20.068 6.432-31.133 6.432a78.47 78.47 0 0 1-25.275-4.162c-11.677 7.354-55.927 13.212-112.891 15.076v-40.003a47.08 47.08 0 0 1 7.986-26.236l34.4-51.266 14.954-22.28a28.259 28.259 0 0 1 23.458-12.515h18.589a47.128 47.128 0 0 0-7.166-11.291l-14.521-16.96-16.988-19.851c10.989-5.057 28.816-17.111 47.678-32.724 17.76-14.7 32.243-29.08 39.739-38.93l57.095 66.7a47.059 47.059 0 0 1 11.32 30.615z"/><path fill="#94FCFF" d="M358.951 533.524v15.105c0 21.64 8.777 41.246 22.959 55.428a78.412 78.412 0 0 0 30.153 18.797M398.559 485.63a47.01 47.01 0 0 1 4.153 19.333v28.693"/><path fill="#B8B1FF" d="m530.077 879.824-76.673-65.392a47.078 47.078 0 0 1-16.537-35.822v-56.078c20.539-21.49 33.148-50.616 33.148-82.69 0-6.555-.527-12.986-1.544-19.258-9.54 4.134-20.068 6.432-31.133 6.432a78.443 78.443 0 0 1-25.275-4.163c-11.677 7.355-55.927 13.212-112.891 15.077-12.392.405-25.388.621-38.788.621h-.669c-38.223-.018-73.17-1.798-100.083-4.717-16.574-1.809-30.097-4.04-39.457-6.574-9.314-2.514-14.512-5.33-14.512-8.296v46.558c0 1.403.047 2.806.141 4.2v.037c.038.678.095 1.356.16 2.034l.01.019a65.79 65.79 0 0 0 22.431 43.516l9.568 8.296-7.59 61.86c-2.242 18.251 6.347 36.124 21.979 45.795l72.379 44.731c.282-.499.612-.97.979-1.432 8.155-10.189 29.908-9.238 38.261-.263 0 0 27.112-16.819 41.049-50.183v15.312c0 2.91.273 5.782.8 8.597a46.98 46.98 0 0 0 15.736 27.225l17.666 15.067 18.815 16.047 70.194 59.873c5.387 3.653 12.035 1.826 18.514-2.025-.8-2.684-1.695-5.952-2.448-9.229-1.78-7.835.706-12.458 16.715-15.302 16.018-2.844 24.908-6.046 35.229 2.137 3.832 3.042 8.287 6.244 12.91 8.287 12.704-16.112 21.716-33.929 24.682-47.97.424-2.015.725-3.945.895-5.782.687-7.364-.716-13.221-4.661-16.545zM159.632 685.439c-16.574-1.809-30.097-4.04-39.457-6.573V647.3c9.36 2.533 22.883 4.765 39.457 6.573v31.566zm100.752 4.717h-.669v-31.565h.669c13.4 0 26.396-.217 38.788-.622v31.566c-12.392.405-25.388.621-38.788.621zm44.646 102.627-18.184-11.235a172.657 172.657 0 0 0 18.184-1.29v12.525z"/><path fill="#FFF769" d="M189.672 455.118v43.177l-11.442 8.702a47.078 47.078 0 0 0-18.598 37.479v89.358c-16.574-1.808-30.097-4.04-39.457-6.573v-95.969a47.078 47.078 0 0 1 18.598-37.479l44.825-34.071 6.074-4.624z"/><path fill="#94FCFF" d="M337.348 440.692v21.856a28.282 28.282 0 0 0-7.119 7.27l-48.591 71.918-13.853 20.5a47.025 47.025 0 0 0-8.07 26.359v49.957c-38.224-.019-73.17-1.799-100.084-4.718v-89.358a47.076 47.076 0 0 1 18.599-37.479l11.442-8.702v-57.603c12.016 6.629 40.549 11.3 73.838 11.3 33.289 0 61.822-4.661 73.838-11.3z"/><path fill="#4548CB" d="M120.175 610.658v16.603c-9.314-2.515-14.512-5.33-14.512-8.297 0-2.966 5.198-5.782 14.512-8.306z"/><path fill="#FFF769" d="M398.559 485.63H379.97a28.257 28.257 0 0 0-23.458 12.515l-14.954 22.28-34.401 51.266a47.087 47.087 0 0 0-7.985 26.236v40.003c-12.393.405-25.388.622-38.789.622h-.668v-49.957c0-9.398 2.806-18.58 8.07-26.358l13.853-20.501 48.591-71.918a28.247 28.247 0 0 1 23.411-12.439h23.231l14.521 16.96a47.112 47.112 0 0 1 7.167 11.291zm-99.387 172.339v31.566c-12.393.405-25.388.622-38.789.622h-.668v-31.566h.668c13.401 0 26.396-.217 38.789-.622zm-139.54-4.096v31.566c-16.574-1.808-30.097-4.04-39.457-6.573V647.3c9.36 2.533 22.883 4.765 39.457 6.573z"/><path fill="#fff" d="M102.65 206.143c-5.471-2.797-12.195-2.872-17.94.395a18.712 18.712 0 0 0-5.31 4.502l-1.658-2.91c-4.633-8.127-1.799-18.486 6.338-23.119 5.414-3.088 11.818-2.862 16.865.047.057 7.167.641 14.211 1.705 21.085z"/><path fill="#fff" d="M180.095 312.941c-1.676 8.814-5.707 16.922-12.176 23.392-5.085 5.085-11.178 8.663-17.836 10.773-3.098.989-6.309 1.648-9.605 2.006-17.327 1.855-36.736-4.935-51.605-19.804a72.138 72.138 0 0 1-4.605-5.057 69.983 69.983 0 0 1-1.328-1.648c-18.203-23.335-19.173-54.242-1.083-72.332a42.67 42.67 0 0 1 4.068-3.578l-8.249-14.465c-3.955-6.94-3.013-15.331 1.723-21.188a18.726 18.726 0 0 1 5.311-4.501c5.745-3.268 12.469-3.193 17.94-.396a18.83 18.83 0 0 1 7.75 7.43l6.281 11.009a16.915 16.915 0 0 1 13.523 8.513l4.256 7.467c9.427 3.259 18.571 8.862 26.434 16.725 16.037 16.037 22.685 37.366 19.201 55.654z"/><path fill="#D33163" d="M337.961 392.646c-7.459 8.306-11.837 14.823-11.8 18.043-14.643 4.238-37.263 6.95-62.651 6.95-44.137 0-79.912-8.202-79.912-18.325 0-10.124 35.775-18.316 79.912-18.316 33.863 0 62.821 4.83 74.451 11.648z"/><path fill="#69BFFF" d="M343.432 432.414v1.252c0 2.496-2.166 4.869-6.083 7.025-12.017 6.639-40.559 11.301-73.839 11.301s-61.822-4.671-73.838-11.301c-3.918-2.165-6.074-4.539-6.074-7.025v-34.353c0 10.123 35.775 18.326 79.912 18.326 25.388 0 48.008-2.712 62.651-6.95 0 .574.16 1.045.452 1.403l16.819 20.322z"/><path fill="#D33163" d="m412.826 352.162-9.163-9.916a64.65 64.65 0 0 0 2.552-6.61c12.525-7.835 21.565-11.517 23.655-8.994 2.326 2.816-4.595 12.732-17.044 25.52z"/><path fill="#C4D5FF" d="M412.825 352.163c-7.524 7.722-17.063 16.498-27.808 25.388-7.618 6.3-15.067 12.025-21.96 16.941l-10.877-11.988c13.024-2.072 26.189-8.607 36.962-19.38 6.309-6.309 11.159-13.438 14.521-20.877l9.162 9.916z"/><path fill="#D33163" d="M363.057 394.492c-7.317 5.217-14.012 9.521-19.625 12.647-8.927 4.982-15.133 6.987-16.819 4.953-.292-.358-.442-.828-.452-1.403-.037-3.22 4.342-9.737 11.8-18.043 2.674-2.985 5.744-6.196 9.163-9.567a58.39 58.39 0 0 0 5.056-.575l10.877 11.988z"/><path fill="#69BFFF" d="M447.301 365.874c-7.496 9.85-21.979 24.23-39.739 38.93-18.863 15.613-36.689 27.667-47.679 32.724-5.612 2.58-9.445 3.333-10.716 1.817h-.009l-5.726-6.931-16.819-20.322c1.686 2.034 7.892.029 16.819-4.953 5.613-3.126 12.308-7.43 19.625-12.647 6.893-4.916 14.342-10.641 21.96-16.941 10.745-8.89 20.284-17.666 27.809-25.388 12.449-12.788 19.37-22.705 17.044-25.52l22.545 27.243c1.412 1.705-.565 6.018-5.114 11.988z"/><path fill="#D33163" d="m84.268 324.241-6.027 17.553c-23.119-9.37-38.619-18.598-37.197-22.864 1.394-4.172 18.589-2.411 41.896 3.673.433.555.866 1.092 1.328 1.638zm83.905 37.16c-1.177 3.512-13.57 2.816-31.387-1.13l3.692-11.159c3.296-.358 6.507-1.017 9.605-2.006 12.025 6.064 19.069 11.357 18.09 14.295z"/><path fill="#69BFFF" d="M156.957 394.953h.01c-.669 2.006-4.982 2.637-11.875 2.081-12.242-.979-32.601-5.735-55.061-13.24-22.582-7.543-41.802-16.037-52.132-22.62-5.717-3.644-8.72-6.704-8.061-8.691l11.206-33.553c-1.422 4.266 14.078 13.494 37.197 22.864 7.044 2.854 14.794 5.716 22.996 8.457 12.93 4.313 25.162 7.722 35.549 10.019 17.817 3.946 30.21 4.643 31.387 1.13l-11.216 33.553z"/><path fill="#C4D5FF" d="m140.477 349.112-3.691 11.159c-10.387-2.298-22.62-5.707-35.549-10.02-8.202-2.74-15.952-5.603-22.996-8.456l6.026-17.544a72.138 72.138 0 0 0 4.606 5.057c14.869 14.869 34.277 21.659 51.604 19.804z"/><path fill="#749EFF" d="M356.145 62.073c-1.479 2.627-11.376.019-24.117-5.933a194.18 194.18 0 0 1-12.553-6.47 187.175 187.175 0 0 1-12.082-7.382c-11.696-7.778-19.05-14.87-17.572-17.497 1.507-2.684 11.809.085 24.955 6.319a89.33 89.33 0 0 0-2.034 2.703c-4.143-1.752-6.978-2.496-7.383-1.78-.395.697 1.592 2.646 5.066 5.16 3.023 2.204 7.167 4.84 11.866 7.477 4.84 2.722 9.379 4.954 12.873 6.385 3.776 1.563 6.328 2.185 6.714 1.507.367-.65-1.328-2.373-4.36-4.652a67.299 67.299 0 0 1 2.185-2.58c11.036 7.486 17.873 14.2 16.442 16.743z"/><path fill="#91AEEA" d="m356.145 62.073-9.775 17.374-1.685 3.004c-1.94 3.447-18.345-2.11-36.661-12.402-18.316-10.293-31.594-21.433-29.663-24.88l1.299-2.316 10.161-18.062c-1.478 2.627 5.876 9.718 17.572 17.497a187.219 187.219 0 0 0 12.082 7.383 194.385 194.385 0 0 0 12.553 6.47c12.741 5.95 22.639 8.56 24.117 5.932z"/><path fill="#3061C4" d="M341.879 52.562c-.386.678-2.938.056-6.714-1.507a59.82 59.82 0 0 1 2.354-3.145c3.032 2.279 4.727 4.002 4.36 4.652zm-29.137-18.749a94.214 94.214 0 0 0-2.316 3.38c-3.475-2.514-5.462-4.463-5.067-5.16.405-.716 3.24.028 7.383 1.78z"/><path fill="#EFF5FF" d="M524.926 238.905a63.784 63.784 0 0 1-4.153 3.277c-11.781 8.513-26.453 12.929-41.209 12.929-10.943 0-21.942-2.429-31.848-7.411-27.178-13.683-41.218-42.753-38.525-79.743.838-11.611 1.949-22.902 3.023-33.807 2.674-27.215 5.198-52.914 2.024-71.512-2.966-17.43-10.085-26.34-24.568-30.765-16.254-4.963-30.634-2.713-42.753 6.695-2.807 2.175-5.208 4.52-7.214 6.762a67.299 67.299 0 0 0-2.185 2.58 60.959 60.959 0 0 0-2.354 3.145c-3.494-1.431-8.033-3.663-12.873-6.385-4.699-2.637-8.842-5.273-11.865-7.477a94.214 94.214 0 0 1 2.316-3.38 89.33 89.33 0 0 1 2.034-2.703c3.409-4.36 7.948-9.332 13.712-13.975C342.236 6.061 365.44-5.06 397.919 4.855c24.597 7.515 39.457 25.36 44.175 53.037 3.804 22.337 1.102 49.872-1.761 79.018-1.055 10.735-2.147 21.837-2.966 33.1-1.846 25.407 6.337 44.034 23.052 52.453 14.06 7.081 32.357 5.499 44.401-3.616.575-.434 1.14-.886 1.686-1.356 5.914-5.086 14.832-4.417 19.917 1.497 5.085 5.914 4.416 14.832-1.497 19.917z"/><path fill="#fff" d="M264.358 901.511c0 3.936-4.144 7.411-10.491 9.511-3.456-1.968-8.484-3.512-14.935-4.228-8.777-.979-15.03-.198-19.38 1.234-2.665-1.865-4.219-4.106-4.219-6.517 0-3.183 2.703-6.064 7.091-8.155 4.445-2.128 10.603-3.447 17.421-3.447 3.014 0 5.905.255 8.57.735 8.626 1.516 14.954 5.283 15.839 9.784.066.367.104.716.104 1.083z"/><path fill="#fff" d="M339.232 890.333c-5.452 11.922-12.308 25.473-20.934 40.577-38.016 66.56-83.651 81.05-100.771 72.7-8.993-4.398-12.656-13.919-12.958-26.556v-.161c0-.64-.018-1.28 0-1.911v-.198c.066-10.377 2.223-22.657 5.472-35.822.433.094.894.169 1.365.217 8.541.932 17.148.235 25.709-.029 3.729-.113 7.684-.028 11.215-1.403 1.243-.48 2.42-1.186 3.39-2.09 6.055 9.727 21.527 10.895 30.153 4.152 4.116-3.211 6.696-8.07 8.165-13.08 1.469-5.019 1.93-10.264 2.571-15.444.951-7.674 2.307-15.387 5.349-22.497 3.682-8.616 9.746-15.425 18.071-19.116a47.932 47.932 0 0 0 5.546 5.594l17.667 15.067h-.01z"/><path fill="#4548CB" d="M305.83 848.041c-7.712 20.341-18.146 29.202-18.146 29.202-2.599 2.439-6.545 3.88-10.472 4.021h-.009c-3.437.142-6.846-.734-9.304-2.825-1.45-1.233-2.627-2.731-3.918-4.124 0 0 27.112-16.819 41.049-50.183v15.312c0 2.909.273 5.782.8 8.597z"/><path fill="#EFF5FF" d="M316.019 869.673c-8.325 3.691-14.389 10.5-18.071 19.116-3.042 7.11-4.398 14.823-5.349 22.497-.64 5.18-1.102 10.425-2.571 15.444-1.469 5.01-4.049 9.869-8.164 13.08-8.626 6.743-24.098 5.575-30.153-4.152a7.582 7.582 0 0 0 1.704-2.223c1.695-3.362.772-5.725-1.488-7.383 9.568-4.115 9.69-10.632 1.94-15.029 6.347-2.1 10.491-5.575 10.491-9.511 0-.368-.038-.716-.104-1.074-.885-4.511-7.213-8.278-15.839-9.794-2.665-.48-5.556-.734-8.57-.734-6.818 0-12.976 1.318-17.421 3.446-.113-5.678-.612-12.411 2.316-17.346.283-.499.612-.97.98-1.431 8.155-10.189 29.908-9.238 38.261-.264 1.29 1.394 2.467 2.891 3.917 4.125 2.458 2.091 5.867 2.966 9.304 2.825h.01c3.927-.141 7.872-1.582 10.471-4.021 0 0 10.434-8.861 18.147-29.202a46.974 46.974 0 0 0 10.189 21.631z"/><path fill="#C4D5FF" d="M358.047 906.38a698.586 698.586 0 0 1-6.554 14.944 139.37 139.37 0 0 1-3.71 7.543c-15.002 28.439-36.971 57.585-61.785 77.933-13.24 10.87-32.602 21.43-50.824 16.73-9.652-2.5-18.636-8.35-24.05-16.82-5.519-8.647-6.432-19.533-6.555-29.656.302 12.637 3.965 22.158 12.958 26.556 17.12 8.35 62.755-6.14 100.771-72.699 8.626-15.105 15.482-28.656 20.934-40.578l18.815 16.047z"/><path fill="#4548CB" d="M538.26 924.309c-.396 6.95-2.514 13.862-6.432 19.654-6.554 9.709-14.85 9.605-22.666 6.158 12.703-16.112 21.715-33.929 24.681-47.97.528 3.588 2.232 6.865 3.278 10.321 1.148 3.786 1.356 7.901 1.139 11.837z"/><path fill="#EFF5FF" d="M549.315 937.672c-7.222 6.611-12.807 15.096-15.199 24.645-3.653 14.568 2.279 31.094-6.017 44.523-8.852 14.3-31.641 16.57-40.681 2.45a6.9 6.9 0 0 0 .31-.59c.547-1.13.763-2.47.396-3.68-.518-1.69-2.11-2.86-3.776-3.45a26.856 26.856 0 0 0-3.871-1.08c6.366-2.37 10.227-5.468 11.037-8.623 1.064-4.181-1.347-6.564-5.17-7.863.264-.226.499-.414.669-.546 2.552-1.921 5.16-4.313 6.723-7.148.914-1.667 1.385-3.663.876-5.499-.442-1.564-1.572-2.873-2.9-3.795-3.852-2.684-8.918-3.08-13.438-3.513-5.17-.499-10.434-.339-15.576.405-5.142.744-10.161 2.109-14.756 4.153-.33-1.036-.744-2.345-1.187-3.833-.8-2.684-1.695-5.951-2.448-9.228-1.78-7.835.706-12.459 16.715-15.303 16.018-2.844 24.908-6.046 35.229 2.138 3.832 3.041 8.287 6.243 12.91 8.287 7.817 3.446 16.113 3.55 22.667-6.159 3.918-5.792 6.036-12.704 6.432-19.653.216-3.937.009-8.052-1.14-11.837-1.045-3.456-2.749-6.734-3.277-10.321.424-2.016.725-3.946.895-5.782.932-1.639 2.524-2.788 4.774-2.76 4.003.047 7.138 3.748 9.945 6.225.018.019.037.028.056.047.151.122.302.254.443.396 5.697 5.499 11.263 26.508-.641 37.394z"/><path fill="#fff" d="M571.059 942.014c-1.817 17.459-5.462 62.666-42.385 109.616-36.915 46.95-63.358 46.91-78.849 35.91-4.454-3.15-7.373-7.82-9.134-13.3-.01-.03-.01-.05-.019-.08-4.944-15.49-.64-37.38 4.558-49.83 1.958-.18 3.898-.61 5.565-.95 5.98-1.22 11.856-2.92 17.751-4.49 5.142-1.36 10.707-2.75 15.19-5.74 1.45-.96 2.815-2.32 3.682-3.86 9.04 14.12 31.829 11.85 40.681-2.45 8.296-13.428 2.364-29.955 6.018-44.523 2.391-9.549 7.976-18.034 15.199-24.644 11.903-10.886 6.337-31.896.64-37.395 4.473 3.823 8.692 7.985 12.854 12.148 4.793 4.793 7.609 8.475 8.494 15.236.48 3.654.396 8.221-.245 14.352z"/><path fill="#C4D5FF" d="M584.516 974.022c-9.275 49.248-29.494 96.378-71.201 126.458-14.39 10.39-40.032 13.91-54.817 2.82-9.134-6.85-15.236-18.04-17.807-29.06 1.761 5.48 4.68 10.15 9.134 13.3 15.491 11 41.934 11.04 78.849-35.91 36.924-46.95 40.568-92.157 42.386-109.616.64-6.131.725-10.698.244-14.352 0 0 10.651 12.826 13.212 16.32 2.562 3.493 3.72 10.245 0 30.04z"/><path fill="#fff" d="M487.728 1008.7c-.094.2-.198.4-.311.59-.866 1.54-2.231 2.9-3.682 3.86-4.482 2.99-10.047 4.38-15.189 5.74-5.895 1.57-11.771 3.27-17.751 4.49-1.667.34-3.607.77-5.566.95-3.004.29-6.045.02-8.174-2.02a7.468 7.468 0 0 1-2.25-5.8c.169-2.57 1.695-4.9 3.644-6.59 2.75-2.39 6.319-3.97 9.7-5.25.273-.1.546-.2.828-.3 9.389-3.43 21.32-6.033 31.491-3.88h.009c1.318.27 2.618.62 3.87 1.08 1.667.59 3.259 1.76 3.777 3.45.367 1.21.15 2.55-.396 3.68z"/><path fill="#fff" d="M491.514 991.867c-.81 3.155-4.671 6.253-11.037 8.623h-.009c-10.17-2.154-22.102.45-31.49 3.88-8.871-1.14-10.773-5.007-10.491-8.021.452-4.765 5.443-7.477 9.784-9.219a83.777 83.777 0 0 1 2.929-1.092c3.918-1.403 7.816-2.213 11.913-2.703l.706-.085c3.804-.423 15.528-1.638 22.525.754 3.823 1.299 6.234 3.682 5.17 7.863z"/><path fill="#fff" d="M493.736 976.31c-1.563 2.835-4.172 5.227-6.724 7.148-.169.131-.405.32-.668.546-6.997-2.392-18.721-1.177-22.526-.754l-.706.085c-4.096.49-7.995 1.3-11.912 2.703-.895.32-1.893.678-2.929 1.092-6.498-1.742-12.205-6.611-7.468-13.843 1.516-2.316 3.993-3.814 6.517-4.963.207-.094.414-.188.621-.263 4.596-2.044 9.615-3.409 14.757-4.153 5.141-.744 10.405-.904 15.575-.405 4.52.433 9.587.829 13.438 3.512 1.328.923 2.458 2.232 2.901 3.796.508 1.836.037 3.832-.876 5.499zm-240.32-42.875a7.577 7.577 0 0 1-1.705 2.222c-.97.904-2.147 1.61-3.39 2.091-3.531 1.374-7.487 1.29-11.216 1.403-8.56.263-17.167.96-25.708.028a11.938 11.938 0 0 1-1.365-.217c-3.08-.631-5.142-2.288-4.775-5.98.622-6.337 7.637-8.362 12.977-9.454.32-.057.621-.122.923-.179 3.926-.753 7.91-1.092 11.903-1.139h.066c4.077-.048 15.773.131 20.802 3.842 2.26 1.657 3.183 4.021 1.488 7.383z"/><path fill="#fff" d="M251.928 926.052c-5.029-3.71-16.725-3.889-20.803-3.842h-.065c-3.993.047-7.977.386-11.903 1.139-.302.057-.603.123-.923.179-8.193-3.154-7.487-6.394-7.487-8.343 0-1.309 2.204-4.982 8.805-7.157 4.351-1.431 10.604-2.213 19.38-1.234 6.451.716 11.479 2.26 14.936 4.229 7.75 4.397 7.627 10.914-1.94 15.029z"/><path fill="#FFE927" d="M538.608 241.645c-.226.104-.461.198-.687.283-.509.207-1.036.395-1.564.556a23.98 23.98 0 0 1-7.335 1.139c-13.373 0-24.211-10.839-24.211-24.211a24.12 24.12 0 0 1 9.247-19.022 24.065 24.065 0 0 1 14.964-5.189c.781 0 1.563.038 2.326.113-3.306 3.249-8.174 9.492-8.363 18.128 0 0 25.483-1.46 30.238-24.795 0 0 16.725 40.436-14.615 52.998-.226.104-.461.198-.687.283a61.87 61.87 0 0 1-1.564.556"/><path fill="#000" d="M337.961 392.646c-7.459 8.306-11.837 14.823-11.8 18.043-14.643 4.238-37.263 6.95-62.651 6.95-44.137 0-79.912-8.202-79.912-18.325 0-10.124 35.775-18.316 79.912-18.316 33.863 0 62.821 4.83 74.451 11.648zm74.864-40.484-9.162-9.916a64.65 64.65 0 0 0 2.552-6.61c12.524-7.835 21.564-11.517 23.655-8.994 2.326 2.816-4.595 12.732-17.045 25.52z"/><path fill="#000" d="M363.057 394.492c-7.317 5.217-14.013 9.521-19.625 12.647-8.928 4.982-15.133 6.987-16.819 4.953-.292-.358-.443-.828-.452-1.403-.038-3.22 4.341-9.737 11.799-18.043 2.675-2.985 5.745-6.196 9.163-9.567a58.413 58.413 0 0 0 5.057-.575l10.877 11.988zm-278.79-70.251-6.026 17.553c-23.12-9.37-38.62-18.598-37.198-22.864 1.394-4.172 18.59-2.411 41.896 3.673a55.64 55.64 0 0 0 1.328 1.638zm83.906 37.16c-1.177 3.512-13.57 2.815-31.387-1.13l3.692-11.159a48.958 48.958 0 0 0 9.605-2.006c12.025 6.064 19.069 11.357 18.09 14.295zM305.83 848.042c-7.713 20.34-18.147 29.202-18.147 29.202-2.599 2.439-6.544 3.879-10.471 4.021h-.01c-3.437.141-6.846-.735-9.304-2.825-1.45-1.234-2.627-2.731-3.917-4.125 0 0 27.111-16.819 41.049-50.183v15.312c0 2.91.273 5.782.8 8.598zm232.429 76.267c-.395 6.95-2.514 13.862-6.431 19.654-6.554 9.709-14.851 9.605-22.667 6.158 12.704-16.112 21.716-33.929 24.682-47.97.527 3.588 2.232 6.865 3.277 10.321 1.149 3.786 1.356 7.901 1.139 11.837zM341.878 52.562c-.386.678-2.938.056-6.714-1.507a59.82 59.82 0 0 1 2.354-3.145c3.032 2.279 4.727 4.002 4.36 4.652zm-29.136-18.749a94.214 94.214 0 0 0-2.316 3.38c-3.475-2.514-5.462-4.463-5.067-5.16.405-.716 3.24.028 7.383 1.78zM120.174 610.658v16.603c-9.313-2.515-14.511-5.33-14.511-8.297 0-2.966 5.198-5.782 14.511-8.306z"/><path stroke="#000" stroke-miterlimit="10" stroke-width=".706" d="M386.977 216.671c2.382.189 4.755.895 6.959 2.157 8.136 4.633 10.97 14.992 6.337 23.119l-1.657 2.909m-19.494 33.967-.009.01m-35.559-4.455c-9.426 3.249-18.57 8.862-26.434 16.725-7.863 7.863-13.711 17.393-16.931 27.036-6.328 18.881-3.259 38.836 9.906 52.001 19.889 19.888 55.278 16.752 79.046-7.016 23.759-23.768 26.905-59.157 7.016-79.037a44.28 44.28 0 0 0-4.068-3.588m-12.684-6.827h-.009"/><path stroke="#000" stroke-miterlimit="10" stroke-width=".706" d="m366.24 324.561-1.309-.8c-4.341-2.656-5.782-8.278-3.267-12.694l15.378-26.98c4.708-8.258 1.949-19.116-6.395-23.665-8.089-4.416-18.25-1.553-22.836 6.489l-12.76 22.384m26.8 21.451-.009-.009"/><path stroke="#000" stroke-miterlimit="10" stroke-width=".706" d="m361.334 258.398 6.281-11.008a18.777 18.777 0 0 1 12.515-9.116 18.718 18.718 0 0 1 13.175 2.072 18.748 18.748 0 0 1 5.311 4.511c4.737 5.848 5.678 14.248 1.723 21.178L392.09 280.5l-5.933 10.406c-2.514 4.416-1.073 10.038 3.258 12.694l1.309.8"/><path stroke="#000" stroke-miterlimit="10" stroke-width=".706" d="M380.13 238.274a144.197 144.197 0 0 0 6.847-21.603 145.625 145.625 0 0 0 3.748-32.893c0-40.973-17.008-77.982-44.354-104.33M279.66 42.853a145.042 145.042 0 0 0-33.826-3.974c-80.025 0-144.898 64.873-144.898 144.899 0 .424 0 .857.009 1.281.056 7.166.64 14.21 1.704 21.084m77.446 106.798c19.728 10.067 42.075 15.736 65.74 15.736 19.22 0 37.573-3.739 54.354-10.538m-38.072-97.701c28.199 0 51.059-22.86 51.059-51.059 0-28.199-22.86-51.058-51.059-51.058-28.199 0-51.059 22.859-51.059 51.058 0 28.199 22.86 51.059 51.059 51.059zM229.873 168.4v.019"/><path stroke="#000" stroke-miterlimit="10" stroke-width=".706" d="M214.203 187.083a50.844 50.844 0 0 1-30.144 9.841c-28.203 0-51.068-22.855-51.068-51.059 0-28.203 22.865-51.068 51.068-51.068 21.98 0 40.71 13.89 47.905 33.364M199.72 264.509c12.17 0 22.035-9.865 22.035-22.035s-9.865-22.036-22.035-22.036-22.036 9.866-22.036 22.036c0 12.17 9.866 22.035 22.036 22.035zM188.15 68.223l-5.703 13.947 42.248 17.275 5.703-13.946-42.248-17.276zm82.486 23.569-4.325 14.434 45.077 13.506 4.324-14.433-45.076-13.507zm-12.832 78.049-9.803-11.677h16.63c2.844-8.165 1.827-15.943-3.202-19.427-6.78-4.69-18.287.207-25.708 10.933-4.332 6.281-6.309 13.165-5.848 18.73v.019c.33 3.946 1.884 7.232 4.699 9.172 6.065 4.2 15.924.716 23.232-7.75z"/><path stroke="#000" stroke-miterlimit="10" stroke-width=".706" d="m178.287 149.547-9.803-11.686h16.63c2.844-8.165 1.827-15.943-3.202-19.427-6.78-4.69-18.287.207-25.708 10.942-7.421 10.726-7.929 23.222-1.149 27.912 6.065 4.191 15.905.725 23.232-7.741zm-33.195 247.488-14.644 47.198-6.262 20.171M37.898 361.175 3.216 472.945c-8.118 26.142 6.78 53.856 33.053 61.521l83.906 24.484m63.423-99.208-53.15-15.509m228.504 89.291v15.105c0 21.64 8.776 41.247 22.958 55.428 8.391 8.391 18.674 14.889 30.153 18.797a78.471 78.471 0 0 0 25.276 4.162c11.064 0 21.593-2.298 31.132-6.432 27.799-12.044 47.245-39.73 47.245-71.955v-85.44a47.063 47.063 0 0 0-11.319-30.615l-57.095-66.7"/><path stroke="#000" stroke-miterlimit="10" stroke-width=".706" d="m359.884 437.528 16.988 19.851 14.521 16.96a47.122 47.122 0 0 1 7.166 11.29 47.016 47.016 0 0 1 4.153 19.333v28.694m-125.5 347.609h-.009m-12.949 19.172v-.009M137.973 723.625l-7.591 61.86c-2.241 18.25 6.348 36.123 21.98 45.794l72.379 44.731m80.288-83.227-18.184-11.235m222.317 168.574c12.703-16.113 21.715-33.93 24.682-47.97.423-2.015.725-3.946.894-5.782.688-7.364-.715-13.222-4.661-16.546l-76.673-65.391a47.077 47.077 0 0 1-16.536-35.822v-56.079m9.888 241.697c-6.479 3.851-13.128 5.678-18.514 2.024l-70.194-59.873-18.815-16.046-17.667-15.068a46.974 46.974 0 0 1-15.735-27.224 46.607 46.607 0 0 1-.801-8.598v-92.135a21.57 21.57 0 0 1 5.773-14.681l7.496-8.061M189.672 455.118l-6.074 4.624-44.825 34.071a47.078 47.078 0 0 0-18.598 37.479v95.969m39.456 6.573v-89.358a47.078 47.078 0 0 1 18.599-37.48l11.442-8.701"/><path stroke="#000" stroke-miterlimit="10" stroke-width=".706" d="M376.871 457.379H353.64a28.247 28.247 0 0 0-23.411 12.439l-48.591 71.918-13.853 20.501a47.022 47.022 0 0 0-8.07 26.358v49.957m39.457-.622v-40.003a47.08 47.08 0 0 1 7.986-26.236l34.4-51.266 14.954-22.28a28.259 28.259 0 0 1 23.458-12.515h18.589m69.912 134.954a120.24 120.24 0 0 1 1.544 19.258c0 41.142-20.755 77.445-52.358 98.991M105.663 618.964v46.558a65.894 65.894 0 0 0 22.742 49.806l9.568 8.296 21.659 18.778"/><path stroke="#000" stroke-miterlimit="10" stroke-width=".706" d="M412.063 622.853c-11.677 7.355-55.927 13.212-112.891 15.077-12.392.405-25.388.622-38.788.622h-.669c-38.223-.019-73.17-1.799-100.083-4.718-16.574-1.808-30.097-4.04-39.457-6.573-9.314-2.515-14.512-5.33-14.512-8.297 0-2.966 5.198-5.782 14.512-8.306m178.997 47.311c-12.393.405-25.388.622-38.789.622h-.668v31.566h.668c13.401 0 26.396-.217 38.789-.622v-31.566zm-193.198 13.843h-.01v-.019a2.773 2.773 0 0 1-.301-1.224c0-.282.047-.537.141-.819v-.019m14.371-22.431v31.566c9.36 2.533 22.883 4.765 39.457 6.573v-31.566c-16.574-1.808-30.097-4.04-39.457-6.573zm80.185 113.249c24.701 13.419 53.008 21.037 83.086 21.037 1.139 0 2.269 0 3.399-.037 6.15-.113 12.214-.547 18.185-1.29M79.4 211.04l-1.658-2.91c-4.633-8.127-1.799-18.486 6.338-23.119 5.414-3.088 11.818-2.862 16.865.047m-4.623 55.664v-.009m-10.397 5.979a42.81 42.81 0 0 0-4.068 3.579c-19.889 19.889-16.744 55.268 7.015 79.037 23.769 23.768 59.158 26.904 79.046 7.025 6.47-6.47 10.5-14.578 12.177-23.392 3.484-18.288-3.164-39.617-19.202-55.654-7.863-7.864-17.007-13.467-26.433-16.725"/><path stroke="#000" stroke-miterlimit="10" stroke-width=".706" d="m111.775 290.745 1.309-.8c4.341-2.656 5.782-8.278 3.267-12.694l-15.377-26.98c-4.709-8.258-1.95-19.116 6.394-23.665 8.343-4.548 18.25-1.553 22.836 6.489l14.182 24.879"/><path stroke="#000" stroke-miterlimit="10" stroke-width=".706" d="m87.29 270.593 1.31-.801c4.34-2.655 5.782-8.277 3.267-12.694l-14.182-24.86c-3.955-6.941-3.013-15.331 1.724-21.189a18.725 18.725 0 0 1 5.31-4.501c5.745-3.268 12.469-3.192 17.94-.396a18.836 18.836 0 0 1 7.75 7.43l6.281 11.009m209.471 186.098c-14.643 4.238-37.263 6.95-62.651 6.95-44.137 0-79.912-8.202-79.912-18.325 0-10.124 35.775-18.316 79.912-18.316 33.863 0 62.821 4.83 74.451 11.648"/><path stroke="#000" stroke-miterlimit="10" stroke-width=".706" d="M183.598 399.313v34.353c0 2.486 2.156 4.86 6.074 7.025 12.016 6.63 40.549 11.301 73.838 11.301 33.289 0 61.822-4.662 73.839-11.301 3.917-2.156 6.083-4.529 6.083-7.025v-1.252m-153.76 8.278v69.732m147.677-47.876v-21.856m68.866-105.056c12.525-7.835 21.565-11.517 23.655-8.994 3.739 4.521-16.338 27.31-44.853 50.909-15.688 12.986-30.671 23.504-41.585 29.588-8.927 4.981-15.133 6.987-16.819 4.953-.292-.358-.442-.829-.452-1.403-.037-3.221 4.342-9.737 11.8-18.043 2.674-2.985 5.744-6.196 9.163-9.568m2.034 56.258c3.748 4.52 29.899-10.943 58.404-34.532 28.514-23.599 48.601-46.398 44.853-50.918m-125.802 58.206 22.554 27.253m80.704-112.702 22.544 27.243M82.94 322.603c-23.307-6.084-40.502-7.845-41.896-3.673-1.422 4.266 14.078 13.494 37.197 22.864 7.044 2.854 14.794 5.716 22.996 8.457 12.93 4.313 25.162 7.722 35.549 10.019 17.817 3.946 30.21 4.643 31.387 1.13.979-2.938-6.065-8.23-18.09-14.294M41.044 318.93l-11.207 33.553"/><path stroke="#000" stroke-miterlimit="10" stroke-width=".706" d="m168.173 361.401-11.216 33.552h.01c-.669 2.006-4.982 2.637-11.875 2.082-12.242-.98-32.601-5.735-55.061-13.241-22.582-7.543-41.802-16.037-52.132-22.619-5.717-3.645-8.72-6.705-8.061-8.692m322.342 30.021 10.877 11.988m40.606-52.245 9.163 9.916m-272.348-3.051-3.692 11.159m-52.519-36.03-6.026 17.553M339.703 45.33c11.036 7.486 17.873 14.2 16.442 16.743-1.479 2.627-11.376.019-24.117-5.933a194.18 194.18 0 0 1-12.553-6.47 187.175 187.175 0 0 1-12.082-7.382c-11.696-7.778-19.05-14.87-17.572-17.497 1.507-2.684 11.809.085 24.955 6.319"/><path stroke="#000" stroke-miterlimit="10" stroke-width=".706" d="M312.742 33.813c-4.143-1.752-6.978-2.496-7.383-1.78-.395.697 1.592 2.646 5.067 5.16 3.023 2.204 7.166 4.84 11.865 7.477 4.84 2.722 9.379 4.954 12.873 6.385 3.776 1.563 6.328 2.185 6.714 1.507.368-.65-1.327-2.373-4.36-4.652m-59.157-2.74c-1.94 3.446 11.347 14.586 29.654 24.88 18.316 10.292 34.73 15.848 36.66 12.401m11.47-20.378-11.46 20.378m-54.863-57.66-11.461 20.378"/><path stroke="#000" stroke-miterlimit="10" stroke-width=".706" d="M335.165 51.055a59.82 59.82 0 0 1 2.354-3.145 66.345 66.345 0 0 1 2.184-2.58c2.006-2.242 4.408-4.587 7.214-6.762 12.12-9.407 26.499-11.658 42.753-6.695 14.483 4.426 21.602 13.334 24.569 30.765 3.173 18.598.65 44.297-2.025 71.512-1.073 10.905-2.185 22.196-3.023 33.807-2.693 36.99 11.348 66.06 38.525 79.743 9.907 4.982 20.906 7.411 31.848 7.411 14.757 0 29.428-4.416 41.209-12.929"/><path stroke="#000" stroke-miterlimit="10" stroke-width=".706" d="M504.82 218.847c-12.044 9.115-30.341 10.697-44.401 3.616-16.715-8.419-24.898-27.046-23.052-52.453.819-11.263 1.911-22.365 2.966-33.1 2.863-29.146 5.565-56.681 1.761-79.018-4.718-27.677-19.578-45.522-44.175-53.037-32.479-9.916-55.683 1.206-69.431 12.28-5.764 4.643-10.303 9.615-13.712 13.975a89.33 89.33 0 0 0-2.034 2.703 94.214 94.214 0 0 0-2.316 3.38"/><path stroke="#000" stroke-miterlimit="10" stroke-width=".706" d="M537.921 241.928c.226-.085.461-.179.687-.283 31.34-12.562 14.615-52.998 14.615-52.998-4.755 23.335-30.238 24.795-30.238 24.795.189-8.636 5.057-14.879 8.363-18.128a23.866 23.866 0 0 0-2.326-.113 24.065 24.065 0 0 0-14.964 5.189 24.12 24.12 0 0 0-9.247 19.022c0 13.372 10.838 24.211 24.211 24.211a23.98 23.98 0 0 0 7.335-1.139m1.564-.556c-.509.207-1.036.395-1.564.556m1.564-.556a61.87 61.87 0 0 1-1.564.556m-282.49 668.538c6.347-2.1 10.491-5.575 10.491-9.511a5.94 5.94 0 0 0-.104-1.083c-.885-4.501-7.213-8.268-15.839-9.784-2.665-.48-5.556-.735-8.57-.735-6.818 0-12.976 1.319-17.421 3.447-4.388 2.091-7.091 4.972-7.091 8.155 0 2.411 1.554 4.652 4.219 6.517m-9.52 30.934c-3.249 13.165-5.406 25.445-5.472 35.822v.198c-.009.65-.009 1.29 0 1.912v.085c.283 12.675 3.946 22.224 12.958 26.631 17.12 8.35 62.755-6.14 100.771-72.699 8.626-15.105 15.481-28.656 20.934-40.578"/><path stroke="#000" stroke-miterlimit="10" stroke-width=".706" d="M222.424 893.356c-.113-5.678-.612-12.411 2.316-17.346.283-.499.612-.97.98-1.431 8.155-10.189 29.908-9.238 38.261-.264 1.29 1.394 2.467 2.891 3.917 4.125 2.458 2.091 5.867 2.966 9.304 2.825h.01c3.927-.141 7.872-1.582 10.471-4.021 0 0 10.434-8.861 18.147-29.202m52.217 58.338a691.414 691.414 0 0 1-6.554 14.944 139.37 139.37 0 0 1-3.71 7.543c-15.001 28.44-36.971 57.585-61.785 77.933-13.24 10.87-32.602 21.43-50.823 16.73-9.653-2.5-18.637-8.35-24.051-16.82-5.547-8.694-6.442-19.646-6.555-29.816 0-.64-.018-1.281 0-1.912-.009-.376-.009-.744-.009-1.111m330.178-77.501c.932-1.639 2.524-2.788 4.774-2.76 4.012.047 7.148 3.767 9.964 6.244.009.009.028.019.037.028.019.019.047.038.066.057.132.103.254.216.377.339 4.473 3.823 8.692 7.985 12.854 12.147 4.793 4.794 7.609 8.476 8.494 15.237.48 3.654.396 8.221-.245 14.352-1.817 17.459-5.462 62.666-42.385 109.616-36.915 46.95-63.358 46.91-78.849 35.91-4.454-3.15-7.373-7.82-9.134-13.3 0-.03 0-.05-.019-.08-4.944-15.49-.64-37.38 4.558-49.83"/><path stroke="#000" stroke-miterlimit="10" stroke-width=".706" d="M447.942 968.061c-.33-1.036-.744-2.345-1.187-3.833-.8-2.684-1.695-5.952-2.448-9.229-1.78-7.835.706-12.458 16.715-15.302 16.018-2.844 24.908-6.046 35.229 2.137 10.321 8.184 25.143 17.582 35.577 2.129 3.918-5.792 6.036-12.704 6.432-19.654.216-3.936.009-8.051-1.14-11.837-1.045-3.456-2.749-6.733-3.277-10.321m37.461 25.511s10.641 12.817 13.203 16.31c2.561 3.494 3.729 10.246 0 30.04-9.266 49.248-29.485 96.378-71.193 126.458-14.398 10.39-40.031 13.91-54.825 2.82-9.153-6.87-15.265-18.09-17.826-29.14m27.883-55.26c-5.895 1.57-11.771 3.28-17.751 4.49-4.247.86-10.246 2.28-13.74-1.07a7.468 7.468 0 0 1-2.25-5.8c.169-2.57 1.704-4.9 3.644-6.59 2.75-2.39 6.319-3.97 9.7-5.25 10.707-4.03 25.002-7.096 36.198-3.1 1.667.59 3.259 1.76 3.777 3.45.367 1.21.15 2.55-.396 3.68-.838 1.78-2.363 3.37-3.993 4.45-4.482 2.99-10.047 4.38-15.189 5.73v.01z"/><path stroke="#000" stroke-miterlimit="10" stroke-width=".706" d="M480.468 1000.49c6.375-2.37 10.236-5.468 11.046-8.623 1.064-4.181-1.347-6.564-5.17-7.863-6.997-2.392-18.721-1.177-22.525-.754l-.706.085c-4.097.49-7.995 1.3-11.913 2.703-.895.32-1.893.678-2.929 1.092-4.341 1.742-9.332 4.454-9.784 9.219-.282 3.014 1.62 6.881 10.491 8.021"/><path stroke="#000" stroke-miterlimit="10" stroke-width=".706" d="M448.271 987.13c-6.498-1.742-12.205-6.611-7.468-13.843 1.516-2.316 3.993-3.814 6.517-4.963.207-.094.414-.188.621-.263 4.596-2.044 9.615-3.409 14.757-4.153 5.141-.744 10.405-.904 15.575-.405 4.52.433 9.587.829 13.438 3.512 1.328.923 2.458 2.232 2.901 3.796.508 1.836.037 3.832-.876 5.499-1.563 2.835-4.172 5.227-6.724 7.148-.169.131-.405.32-.668.546m62.971-84.282c.066.047.132.103.198.16.151.122.301.254.443.395 5.697 5.5 11.262 26.509-.641 37.395-7.222 6.611-12.807 15.095-15.199 24.644-3.653 14.568 2.279 31.095-6.017 44.524-8.852 14.3-31.641 16.57-40.682 2.45m-256.291-87.08h-.066c-3.993.047-7.977.386-11.903 1.139-5.425 1.045-13.241 2.919-13.9 9.634-.414 4.218 2.336 5.782 6.149 6.196 8.542.932 17.149.226 25.709-.028 3.729-.113 7.684-.028 11.215-1.403 2.119-.829 4.068-2.279 5.095-4.304 5.471-10.886-16.395-11.291-22.29-11.225l-.009-.009z"/><path stroke="#000" stroke-miterlimit="10" stroke-width=".706" d="M218.234 923.528c-8.193-3.154-7.487-6.394-7.487-8.343 0-1.309 2.204-4.982 8.805-7.157 4.351-1.431 10.604-2.213 19.38-1.234 6.451.716 11.479 2.26 14.936 4.229 7.75 4.397 7.627 10.914-1.94 15.029m12.053-51.737s27.112-16.819 41.049-50.183m-53.319 111.525c6.055 9.727 21.527 10.895 30.153 4.152 4.115-3.211 6.695-8.07 8.165-13.08 1.469-5.019 1.93-10.264 2.57-15.444.952-7.674 2.308-15.387 5.349-22.497 3.682-8.616 9.747-15.425 18.071-19.116"/></svg>