<?xml version="1.0" encoding="utf-8"?>
<!-- Generator: Adobe Illustrator 27.5.0, SVG Export Plug-In . SVG Version: 6.00 Build 0)  -->
<svg version="1.1" xmlns="http://www.w3.org/2000/svg" xmlns:xlink="http://www.w3.org/1999/xlink" x="0px" y="0px"
	 viewBox="0 0 500 500" style="enable-background:new 0 0 500 500;" xml:space="preserve">
<g id="BACKGROUND">
	<g>
		<g>
			<rect x="0.004" y="0.001" style="fill:#DFE0ED;" width="500" height="500"/>
			<path style="fill:#FFFFFF;" d="M500.004,183.931v2.01c-2.37,0.19-4.72,0.28-7.03,0.28c-19.97,0-37.86-6.76-51.44-19.91
				c-22.18-21.48-29.42-56.58-18.89-91.6c9.78-32.49,6.37-57.5,0.19-74.71h2.12c6.14,17.51,9.4,42.72-0.39,75.29
				c-10.32,34.3-3.28,68.63,18.36,89.58C457.685,179.161,477.715,185.691,500.004,183.931z"/>
			<path style="fill:#FFFFFF;" d="M83.335,297.351c-21.27,36.91-55.55,45.59-83.08,45.59h-0.25v-1.99
				c14.94,0.05,28.51-2.44,40.44-7.42c17.25-7.22,31.1-19.73,41.16-37.18c20.52-35.63,20.82-71.73,0.87-107.32
				c-16.77-29.9-44.16-53.44-62.29-69.02c-2.14-1.84-4.15-3.56-6-5.18c-5.79-5.05-10.44-10.31-14.18-15.5v-3.51
				c3.9,5.83,8.95,11.8,15.5,17.5c1.84,1.62,3.85,3.34,5.98,5.17c18.24,15.67,45.8,39.35,62.73,69.57
				C104.535,224.301,104.234,261.071,83.335,297.351z"/>
			<path style="fill:#FFFFFF;" d="M385.145,0.001h-2.59c10.24,12.05,16.42,27.65,16.42,44.66c0,38.11-31,69.11-69.11,69.11
				c-38.1,0-69.1-31-69.1-69.11c0-17.01,6.18-32.61,16.42-44.66h-2.6c-9.89,12.22-15.82,27.76-15.82,44.66
				c0,39.21,31.9,71.11,71.1,71.11c39.21,0,71.11-31.9,71.11-71.11C400.974,27.761,395.044,12.221,385.145,0.001z"/>
			<path style="fill:#FFFFFF;" d="M500.004,311.381v-2.01c-11.13,0.94-19.89,10.29-19.89,21.66c0,11.36,8.76,20.71,19.89,21.65
				v-2.01c-10.03-0.93-17.89-9.38-17.89-19.64S489.974,312.311,500.004,311.381z"/>
			<path style="fill:#EEEFFC;" d="M67.265,250.461c0,32.04-25.97,58.02-58.01,58.02c-3.15,0-6.24-0.25-9.25-0.74v-114.55
				c3.01-0.49,6.1-0.74,9.25-0.74C41.294,192.451,67.265,218.421,67.265,250.461z"/>
			<path style="fill:#EEEFFC;" d="M500.004,91.121v74.19c-1.14,0.11-2.29,0.16-3.46,0.16c-20.57,0-37.25-16.68-37.25-37.26
				c0-20.57,16.68-37.25,37.25-37.25C497.715,90.961,498.865,91.011,500.004,91.121z"/>
			<path style="fill:#EEEFFC;" d="M240.154,63.361c0,45.83-37.15,82.98-82.98,82.98c-45.84,0-82.99-37.15-82.99-82.98
				c0-25.4,11.41-48.14,29.39-63.36h107.2C228.745,15.221,240.154,37.961,240.154,63.361z"/>
			<path style="fill:#EEEFFC;" d="M500.004,206.661v66.09c-8.02,7.4-18.72,11.91-30.48,11.91c-24.82,0-44.95-20.13-44.95-44.95
				c0-24.83,20.13-44.96,44.95-44.96C481.284,194.751,491.984,199.261,500.004,206.661z"/>
		</g>
		<rect y="379.956" style="fill:#C7C8D4;" width="500" height="120.044"/>
	</g>
</g>
<g id="OBJECTS">
	<ellipse style="fill:#B8B9C4;" cx="263.795" cy="431.91" rx="221.197" ry="33.816"/>
	<g>
		<path d="M318.065,400.273H183.372c-20.361,0-36.868-16.506-36.868-36.867V91.896c0-20.361,16.506-36.868,36.868-36.868h134.693
			c20.361,0,36.867,16.506,36.867,36.868v271.51C354.933,383.767,338.427,400.273,318.065,400.273z"/>
		<path style="fill:#FB8599;" d="M345.84,93.54v268.222c0,16.152-13.09,29.251-29.242,29.251H184.841
			c-16.152,0-29.242-13.099-29.242-29.251V93.54c0-16.152,13.09-29.251,29.242-29.251h131.757c11.665,0,21.737,6.833,26.428,16.719
			C344.831,84.805,345.84,89.053,345.84,93.54z"/>
		<path d="M272.521,76.465h-44.76c-5.075,0-9.188-4.114-9.188-9.188V56.001h63.137v11.275
			C281.71,72.351,277.596,76.465,272.521,76.465z"/>
		<path style="fill:#E3687D;" d="M248.414,220.819c0,39.898-32.348,72.238-72.246,72.238c-7.142,0-14.055-1.036-20.569-2.974
			V151.546c6.514-1.938,13.426-2.974,20.569-2.974C216.065,148.572,248.414,180.921,248.414,220.819z"/>
		<path style="fill:#E3687D;" d="M345.84,93.54v55.669c-18.604-0.327-33.57-15.506-33.57-34.181
			c0-17.719,13.479-32.295,30.755-34.021C344.831,84.805,345.84,89.053,345.84,93.54z"/>
		<path style="fill:#E3687D;" d="M345.84,305.89v55.873c0,16.152-13.09,29.251-29.242,29.251h-74.087
			c-3.673-8.47-5.709-17.825-5.709-27.649c0-38.473,31.189-69.662,69.662-69.662C321.076,293.703,334.635,298.199,345.84,305.89z"/>
		<g>
			<g>
				<g id="XMLID_1_">
					<g>
						<rect x="293.088" y="234.736" style="fill:#FFFFFF;" width="4.319" height="4.329"/>
						<rect x="293.088" y="230.417" style="fill:#FFFFFF;" width="4.319" height="4.319"/>
						<rect x="293.088" y="221.76" style="fill:#FFFFFF;" width="4.319" height="8.657"/>
						<rect x="293.088" y="217.441" style="fill:#FFFFFF;" width="4.319" height="4.319"/>
						<rect x="293.088" y="213.113" style="fill:#FFFFFF;" width="4.319" height="4.329"/>
						<rect x="293.088" y="208.794" style="fill:#FFFFFF;" width="4.319" height="4.319"/>
						<rect x="293.088" y="204.475" style="fill:#FFFFFF;" width="4.319" height="4.319"/>
						<rect x="293.088" y="195.818" style="fill:#FFFFFF;" width="4.319" height="8.657"/>
						<rect x="293.088" y="191.499" style="fill:#FFFFFF;" width="4.319" height="4.319"/>
						<rect x="293.088" y="187.17" style="fill:#FFFFFF;" width="4.319" height="4.329"/>
						<rect x="293.088" y="178.513" style="fill:#FFFFFF;" width="4.319" height="8.657"/>
						<rect x="293.088" y="174.194" style="fill:#FFFFFF;" width="4.319" height="4.319"/>
						<rect x="293.088" y="169.875" style="fill:#FFFFFF;" width="4.319" height="4.319"/>
						<rect x="293.088" y="165.546" style="fill:#FFFFFF;" width="4.319" height="4.329"/>
						<rect x="293.088" y="161.227" style="fill:#FFFFFF;" width="4.319" height="4.319"/>
						<rect x="293.088" y="156.908" style="fill:#FFFFFF;" width="4.319" height="4.319"/>
						<rect x="293.088" y="152.57" style="fill:#FFFFFF;" width="4.319" height="4.338"/>
						<rect x="293.088" y="148.251" style="fill:#FFFFFF;" width="4.319" height="4.319"/>
						<rect x="293.088" y="143.932" style="fill:#FFFFFF;" width="4.319" height="4.319"/>
						<rect x="288.769" y="234.736" style="fill:#FFFFFF;" width="4.319" height="4.329"/>
						<rect x="288.769" y="230.417" width="4.319" height="4.319"/>
						<rect x="288.769" y="221.76" width="4.319" height="8.657"/>
						<rect x="288.769" y="217.441" style="fill:#FFFFFF;" width="4.319" height="4.319"/>
						<rect x="288.769" y="213.113" width="4.319" height="4.329"/>
						<rect x="288.769" y="208.794" width="4.319" height="4.319"/>
						<rect x="288.769" y="204.475" width="4.319" height="4.319"/>
						<rect x="288.769" y="195.818" width="4.319" height="8.657"/>
						<rect x="288.769" y="191.499" width="4.319" height="4.319"/>
						<rect x="288.769" y="187.17" width="4.319" height="4.329"/>
						<rect x="288.769" y="178.513" width="4.319" height="8.657"/>
						<rect x="288.769" y="174.194" width="4.319" height="4.319"/>
						<rect x="288.769" y="169.875" style="fill:#FFFFFF;" width="4.319" height="4.319"/>
						<rect x="288.769" y="165.546" width="4.319" height="4.329"/>
						<rect x="288.769" y="161.227" width="4.319" height="4.319"/>
						<rect x="288.769" y="156.908" width="4.319" height="4.319"/>
						<rect x="288.769" y="152.57" width="4.319" height="4.338"/>
						<rect x="288.769" y="148.251" width="4.319" height="4.319"/>
						<rect x="288.769" y="143.932" style="fill:#FFFFFF;" width="4.319" height="4.319"/>
						<rect x="284.421" y="234.736" style="fill:#FFFFFF;" width="4.348" height="4.329"/>
						<rect x="284.421" y="230.417" style="fill:#FFFFFF;" width="4.348" height="4.319"/>
						<rect x="284.421" y="221.76" style="fill:#FFFFFF;" width="4.348" height="8.657"/>
						<rect x="284.421" y="217.441" width="4.348" height="4.319"/>
						<rect x="284.421" y="213.113" style="fill:#FFFFFF;" width="4.348" height="4.329"/>
						<rect x="284.421" y="208.794" style="fill:#FFFFFF;" width="4.348" height="4.319"/>
						<rect x="284.421" y="204.475" style="fill:#FFFFFF;" width="4.348" height="4.319"/>
						<rect x="284.421" y="195.818" width="4.348" height="8.657"/>
						<rect x="284.421" y="191.499" style="fill:#FFFFFF;" width="4.348" height="4.319"/>
						<rect x="284.421" y="187.17" width="4.348" height="4.329"/>
						<rect x="284.421" y="178.513" width="4.348" height="8.657"/>
						<rect x="284.421" y="174.194" style="fill:#FFFFFF;" width="4.348" height="4.319"/>
						<rect x="284.421" y="169.875" style="fill:#FFFFFF;" width="4.348" height="4.319"/>
						<rect x="284.421" y="165.546" width="4.348" height="4.329"/>
						<rect x="284.421" y="161.227" style="fill:#FFFFFF;" width="4.348" height="4.319"/>
						<rect x="284.421" y="156.908" style="fill:#FFFFFF;" width="4.348" height="4.319"/>
						<rect x="284.421" y="152.57" style="fill:#FFFFFF;" width="4.348" height="4.338"/>
						<rect x="284.421" y="148.251" width="4.348" height="4.319"/>
						<rect x="284.421" y="143.932" style="fill:#FFFFFF;" width="4.348" height="4.319"/>
						<rect x="280.102" y="234.736" style="fill:#FFFFFF;" width="4.319" height="4.329"/>
						<rect x="280.102" y="230.417" width="4.319" height="4.319"/>
						<rect x="280.102" y="221.76" style="fill:#FFFFFF;" width="4.319" height="8.657"/>
						<rect x="280.102" y="217.441" style="fill:#FFFFFF;" width="4.319" height="4.319"/>
						<rect x="280.102" y="213.113" width="4.319" height="4.329"/>
						<rect x="280.102" y="208.794" style="fill:#FFFFFF;" width="4.319" height="4.319"/>
						<rect x="280.102" y="204.475" style="fill:#FFFFFF;" width="4.319" height="4.319"/>
						<rect x="280.102" y="195.818" width="4.319" height="8.657"/>
						<rect x="280.102" y="191.499" width="4.319" height="4.319"/>
						<rect x="280.102" y="187.17" width="4.319" height="4.329"/>
						<rect x="280.102" y="178.513" width="4.319" height="8.657"/>
						<rect x="280.102" y="174.194" style="fill:#FFFFFF;" width="4.319" height="4.319"/>
						<rect x="280.102" y="169.875" style="fill:#FFFFFF;" width="4.319" height="4.319"/>
						<rect x="280.102" y="165.546" width="4.319" height="4.329"/>
						<rect x="280.102" y="161.227" style="fill:#FFFFFF;" width="4.319" height="4.319"/>
						<rect x="280.102" y="156.908" width="4.319" height="4.319"/>
						<rect x="280.102" y="152.57" style="fill:#FFFFFF;" width="4.319" height="4.338"/>
						<rect x="280.102" y="148.251" width="4.319" height="4.319"/>
						<rect x="280.102" y="143.932" style="fill:#FFFFFF;" width="4.319" height="4.319"/>
						<rect x="275.783" y="234.736" style="fill:#FFFFFF;" width="4.319" height="4.329"/>
						<rect x="275.783" y="230.417" width="4.319" height="4.319"/>
						<rect x="275.783" y="221.76" style="fill:#FFFFFF;" width="4.319" height="8.657"/>
						<rect x="275.783" y="217.441" style="fill:#FFFFFF;" width="4.319" height="4.319"/>
						<rect x="275.783" y="213.113" style="fill:#FFFFFF;" width="4.319" height="4.329"/>
						<rect x="275.783" y="208.794" style="fill:#FFFFFF;" width="4.319" height="4.319"/>
						<rect x="275.783" y="204.475" style="fill:#FFFFFF;" width="4.319" height="4.319"/>
						<rect x="275.783" y="195.818" style="fill:#FFFFFF;" width="4.319" height="8.657"/>
						<rect x="275.783" y="191.499" style="fill:#FFFFFF;" width="4.319" height="4.319"/>
						<rect x="275.783" y="187.17" style="fill:#FFFFFF;" width="4.319" height="4.329"/>
						<rect x="275.783" y="178.513" width="4.319" height="8.657"/>
						<rect x="275.783" y="174.194" style="fill:#FFFFFF;" width="4.319" height="4.319"/>
						<rect x="275.783" y="169.875" style="fill:#FFFFFF;" width="4.319" height="4.319"/>
						<rect x="275.783" y="165.546" width="4.319" height="4.329"/>
						<rect x="275.783" y="161.227" style="fill:#FFFFFF;" width="4.319" height="4.319"/>
						<rect x="275.783" y="156.908" style="fill:#FFFFFF;" width="4.319" height="4.319"/>
						<rect x="275.783" y="152.57" style="fill:#FFFFFF;" width="4.319" height="4.338"/>
						<rect x="275.783" y="148.251" width="4.319" height="4.319"/>
						<rect x="275.783" y="143.932" style="fill:#FFFFFF;" width="4.319" height="4.319"/>
						<rect x="271.464" y="234.736" style="fill:#FFFFFF;" width="4.319" height="4.329"/>
						<rect x="271.464" y="230.417" width="4.319" height="4.319"/>
						<rect x="271.464" y="221.76" style="fill:#FFFFFF;" width="4.319" height="8.657"/>
						<rect x="271.464" y="217.441" style="fill:#FFFFFF;" width="4.319" height="4.319"/>
						<rect x="271.464" y="213.113" style="fill:#FFFFFF;" width="4.319" height="4.329"/>
						<rect x="271.464" y="208.794" style="fill:#FFFFFF;" width="4.319" height="4.319"/>
						<rect x="271.464" y="204.475" style="fill:#FFFFFF;" width="4.319" height="4.319"/>
						<rect x="271.464" y="195.818" style="fill:#FFFFFF;" width="4.319" height="8.657"/>
						<rect x="271.464" y="191.499" width="4.319" height="4.319"/>
						<rect x="271.464" y="187.17" width="4.319" height="4.329"/>
						<rect x="271.464" y="178.513" width="4.319" height="8.657"/>
						<rect x="271.464" y="174.194" width="4.319" height="4.319"/>
						<rect x="271.464" y="169.875" style="fill:#FFFFFF;" width="4.319" height="4.319"/>
						<rect x="271.464" y="165.546" width="4.319" height="4.329"/>
						<rect x="271.464" y="161.227" width="4.319" height="4.319"/>
						<rect x="271.464" y="156.908" width="4.319" height="4.319"/>
						<rect x="271.464" y="152.57" width="4.319" height="4.338"/>
						<rect x="271.464" y="148.251" width="4.319" height="4.319"/>
						<rect x="271.464" y="143.932" style="fill:#FFFFFF;" width="4.319" height="4.319"/>
						<rect x="267.145" y="234.736" style="fill:#FFFFFF;" width="4.319" height="4.329"/>
						<rect x="267.145" y="230.417" width="4.319" height="4.319"/>
						<rect x="267.145" y="221.76" style="fill:#FFFFFF;" width="4.319" height="8.657"/>
						<rect x="267.145" y="217.441" style="fill:#FFFFFF;" width="4.319" height="4.319"/>
						<rect x="267.145" y="213.113" style="fill:#FFFFFF;" width="4.319" height="4.329"/>
						<rect x="267.145" y="208.794" width="4.319" height="4.319"/>
						<rect x="267.145" y="204.475" width="4.319" height="4.319"/>
						<rect x="267.145" y="195.818" style="fill:#FFFFFF;" width="4.319" height="8.657"/>
						<rect x="267.145" y="191.499" width="4.319" height="4.319"/>
						<rect x="267.145" y="187.17" style="fill:#FFFFFF;" width="4.319" height="4.329"/>
						<rect x="267.145" y="178.513" style="fill:#FFFFFF;" width="4.319" height="8.657"/>
						<rect x="267.145" y="174.194" style="fill:#FFFFFF;" width="4.319" height="4.319"/>
						<rect x="267.145" y="169.875" style="fill:#FFFFFF;" width="4.319" height="4.319"/>
						<rect x="267.145" y="165.546" style="fill:#FFFFFF;" width="4.319" height="4.329"/>
						<rect x="267.145" y="161.227" style="fill:#FFFFFF;" width="4.319" height="4.319"/>
						<rect x="267.145" y="156.908" style="fill:#FFFFFF;" width="4.319" height="4.319"/>
						<rect x="267.145" y="152.57" style="fill:#FFFFFF;" width="4.319" height="4.338"/>
						<rect x="267.145" y="148.251" style="fill:#FFFFFF;" width="4.319" height="4.319"/>
						<rect x="267.145" y="143.932" style="fill:#FFFFFF;" width="4.319" height="4.319"/>
						<rect x="262.826" y="234.736" style="fill:#FFFFFF;" width="4.319" height="4.329"/>
						<rect x="262.826" y="230.417" width="4.319" height="4.319"/>
						<rect x="262.826" y="221.76" style="fill:#FFFFFF;" width="4.319" height="8.657"/>
						<rect x="262.826" y="217.441" style="fill:#FFFFFF;" width="4.319" height="4.319"/>
						<rect x="262.826" y="213.113" width="4.319" height="4.329"/>
						<rect x="262.826" y="208.794" width="4.319" height="4.319"/>
						<rect x="262.826" y="204.475" width="4.319" height="4.319"/>
						<rect x="262.826" y="195.818" width="4.319" height="8.657"/>
						<rect x="262.826" y="191.499" width="4.319" height="4.319"/>
						<rect x="262.826" y="187.17" width="4.319" height="4.329"/>
						<rect x="262.826" y="178.513" style="fill:#FFFFFF;" width="4.319" height="8.657"/>
						<rect x="262.826" y="174.194" width="4.319" height="4.319"/>
						<rect x="262.826" y="169.875" style="fill:#FFFFFF;" width="4.319" height="4.319"/>
						<rect x="262.826" y="165.546" style="fill:#FFFFFF;" width="4.319" height="4.329"/>
						<rect x="262.826" y="161.227" width="4.319" height="4.319"/>
						<rect x="262.826" y="156.908" style="fill:#FFFFFF;" width="4.319" height="4.319"/>
						<rect x="262.826" y="152.57" style="fill:#FFFFFF;" width="4.319" height="4.338"/>
						<rect x="262.826" y="148.251" width="4.319" height="4.319"/>
						<rect x="262.826" y="143.932" style="fill:#FFFFFF;" width="4.319" height="4.319"/>
						<rect x="258.478" y="234.736" style="fill:#FFFFFF;" width="4.348" height="4.329"/>
						<rect x="258.478" y="230.417" style="fill:#FFFFFF;" width="4.348" height="4.319"/>
						<rect x="258.478" y="221.76" style="fill:#FFFFFF;" width="4.348" height="8.657"/>
						<rect x="258.478" y="217.441" style="fill:#FFFFFF;" width="4.348" height="4.319"/>
						<rect x="258.478" y="213.113" width="4.348" height="4.329"/>
						<rect x="258.478" y="208.794" style="fill:#FFFFFF;" width="4.348" height="4.319"/>
						<rect x="258.478" y="204.475" style="fill:#FFFFFF;" width="4.348" height="4.319"/>
						<rect x="258.478" y="195.818" width="4.348" height="8.657"/>
						<rect x="258.478" y="191.499" style="fill:#FFFFFF;" width="4.348" height="4.319"/>
						<rect x="258.478" y="187.17" style="fill:#FFFFFF;" width="4.348" height="4.329"/>
						<rect x="258.478" y="178.513" style="fill:#FFFFFF;" width="4.348" height="8.657"/>
						<rect x="258.478" y="174.194" width="4.348" height="4.319"/>
						<rect x="258.478" y="169.875" width="4.348" height="4.319"/>
						<rect x="258.478" y="165.546" style="fill:#FFFFFF;" width="4.348" height="4.329"/>
						<rect x="258.478" y="161.227" style="fill:#FFFFFF;" width="4.348" height="4.319"/>
						<rect x="258.478" y="156.908" width="4.348" height="4.319"/>
						<rect x="258.478" y="152.57" width="4.348" height="4.338"/>
						<rect x="258.478" y="148.251" width="4.348" height="4.319"/>
						<rect x="258.478" y="143.932" style="fill:#FFFFFF;" width="4.348" height="4.319"/>
						<rect x="254.16" y="234.736" style="fill:#FFFFFF;" width="4.319" height="4.329"/>
						<rect x="254.16" y="230.417" width="4.319" height="4.319"/>
						<rect x="254.16" y="221.76" style="fill:#FFFFFF;" width="4.319" height="8.657"/>
						<rect x="254.16" y="217.441" style="fill:#FFFFFF;" width="4.319" height="4.319"/>
						<rect x="254.16" y="213.113" style="fill:#FFFFFF;" width="4.319" height="4.329"/>
						<rect x="254.16" y="208.794" width="4.319" height="4.319"/>
						<rect x="254.16" y="204.475" style="fill:#FFFFFF;" width="4.319" height="4.319"/>
						<rect x="254.16" y="195.818" style="fill:#FFFFFF;" width="4.319" height="8.657"/>
						<rect x="254.16" y="191.499" width="4.319" height="4.319"/>
						<rect x="254.16" y="187.17" width="4.319" height="4.329"/>
						<rect x="254.16" y="178.513" style="fill:#FFFFFF;" width="4.319" height="8.657"/>
						<rect x="254.16" y="174.194" width="4.319" height="4.319"/>
						<rect x="254.16" y="169.875" style="fill:#FFFFFF;" width="4.319" height="4.319"/>
						<rect x="254.16" y="165.546" width="4.319" height="4.329"/>
						<rect x="254.16" y="161.227" style="fill:#FFFFFF;" width="4.319" height="4.319"/>
						<rect x="254.16" y="156.908" width="4.319" height="4.319"/>
						<rect x="254.16" y="152.57" style="fill:#FFFFFF;" width="4.319" height="4.338"/>
						<rect x="254.16" y="148.251" width="4.319" height="4.319"/>
						<rect x="254.16" y="143.932" style="fill:#FFFFFF;" width="4.319" height="4.319"/>
						<rect x="249.84" y="234.736" style="fill:#FFFFFF;" width="4.319" height="4.329"/>
						<rect x="249.84" y="230.417" style="fill:#FFFFFF;" width="4.319" height="4.319"/>
						<rect x="249.84" y="221.76" width="4.319" height="8.657"/>
						<rect x="249.84" y="217.441" width="4.319" height="4.319"/>
						<rect x="249.84" y="213.113" width="4.319" height="4.329"/>
						<rect x="249.84" y="208.794" width="4.319" height="4.319"/>
						<rect x="249.84" y="204.475" style="fill:#FFFFFF;" width="4.319" height="4.319"/>
						<rect x="249.84" y="195.818" style="fill:#FFFFFF;" width="4.319" height="8.657"/>
						<rect x="249.84" y="191.499" style="fill:#FFFFFF;" width="4.319" height="4.319"/>
						<rect x="249.84" y="187.17" style="fill:#FFFFFF;" width="4.319" height="4.329"/>
						<rect x="249.84" y="178.513" style="fill:#FFFFFF;" width="4.319" height="8.657"/>
						<rect x="249.84" y="174.194" style="fill:#FFFFFF;" width="4.319" height="4.319"/>
						<rect x="249.84" y="169.875" style="fill:#FFFFFF;" width="4.319" height="4.319"/>
						<rect x="249.84" y="165.546" style="fill:#FFFFFF;" width="4.319" height="4.329"/>
						<rect x="249.84" y="161.227" style="fill:#FFFFFF;" width="4.319" height="4.319"/>
						<rect x="249.84" y="156.908" style="fill:#FFFFFF;" width="4.319" height="4.319"/>
						<rect x="249.84" y="152.57" style="fill:#FFFFFF;" width="4.319" height="4.338"/>
						<rect x="249.84" y="148.251" width="4.319" height="4.319"/>
						<rect x="249.84" y="143.932" style="fill:#FFFFFF;" width="4.319" height="4.319"/>
						<rect x="245.521" y="234.736" style="fill:#FFFFFF;" width="4.319" height="4.329"/>
						<rect x="245.521" y="230.417" width="4.319" height="4.319"/>
						<rect x="245.521" y="221.76" style="fill:#FFFFFF;" width="4.319" height="8.657"/>
						<rect x="245.521" y="217.441" style="fill:#FFFFFF;" width="4.319" height="4.319"/>
						<rect x="245.521" y="213.113" style="fill:#FFFFFF;" width="4.319" height="4.329"/>
						<rect x="245.521" y="208.794" style="fill:#FFFFFF;" width="4.319" height="4.319"/>
						<rect x="245.521" y="204.475" style="fill:#FFFFFF;" width="4.319" height="4.319"/>
						<rect x="245.521" y="195.818" style="fill:#FFFFFF;" width="4.319" height="8.657"/>
						<rect x="245.521" y="191.499" style="fill:#FFFFFF;" width="4.319" height="4.319"/>
						<rect x="245.521" y="187.17" style="fill:#FFFFFF;" width="4.319" height="4.329"/>
						<rect x="245.521" y="178.513" style="fill:#FFFFFF;" width="4.319" height="8.657"/>
						<rect x="245.521" y="174.194" style="fill:#FFFFFF;" width="4.319" height="4.319"/>
						<rect x="245.521" y="169.875" width="4.319" height="4.319"/>
						<rect x="245.521" y="165.546" width="4.319" height="4.329"/>
						<rect x="245.521" y="161.227" style="fill:#FFFFFF;" width="4.319" height="4.319"/>
						<rect x="245.521" y="156.908" style="fill:#FFFFFF;" width="4.319" height="4.319"/>
						<rect x="245.521" y="152.57" width="4.319" height="4.338"/>
						<rect x="245.521" y="148.251" style="fill:#FFFFFF;" width="4.319" height="4.319"/>
						<rect x="245.521" y="143.932" style="fill:#FFFFFF;" width="4.319" height="4.319"/>
						<rect x="241.202" y="234.736" style="fill:#FFFFFF;" width="4.319" height="4.329"/>
						<rect x="241.202" y="230.417" width="4.319" height="4.319"/>
						<rect x="241.202" y="221.76" style="fill:#FFFFFF;" width="4.319" height="8.657"/>
						<rect x="241.202" y="217.441" style="fill:#FFFFFF;" width="4.319" height="4.319"/>
						<rect x="241.202" y="213.113" width="4.319" height="4.329"/>
						<rect x="241.202" y="208.794" style="fill:#FFFFFF;" width="4.319" height="4.319"/>
						<rect x="241.202" y="204.475" style="fill:#FFFFFF;" width="4.319" height="4.319"/>
						<rect x="241.202" y="195.818" style="fill:#FFFFFF;" width="4.319" height="8.657"/>
						<rect x="241.202" y="191.499" style="fill:#FFFFFF;" width="4.319" height="4.319"/>
						<rect x="241.202" y="187.17" width="4.319" height="4.329"/>
						<rect x="241.202" y="178.513" style="fill:#FFFFFF;" width="4.319" height="8.657"/>
						<rect x="241.202" y="174.194" width="4.319" height="4.319"/>
						<rect x="241.202" y="169.875" width="4.319" height="4.319"/>
						<rect x="241.202" y="165.546" width="4.319" height="4.329"/>
						<rect x="241.202" y="161.227" width="4.319" height="4.319"/>
						<rect x="241.202" y="156.908" width="4.319" height="4.319"/>
						<rect x="241.202" y="152.57" width="4.319" height="4.338"/>
						<rect x="241.202" y="148.251" width="4.319" height="4.319"/>
						<rect x="241.202" y="143.932" style="fill:#FFFFFF;" width="4.319" height="4.319"/>
						<rect x="232.536" y="234.736" style="fill:#FFFFFF;" width="8.667" height="4.329"/>
						<rect x="232.536" y="230.417" style="fill:#FFFFFF;" width="8.667" height="4.319"/>
						<rect x="232.536" y="221.76" style="fill:#FFFFFF;" width="8.667" height="8.657"/>
						<rect x="232.536" y="217.441" style="fill:#FFFFFF;" width="8.667" height="4.319"/>
						<rect x="232.536" y="213.113" width="8.667" height="4.329"/>
						<rect x="232.536" y="208.794" width="8.667" height="4.319"/>
						<rect x="232.536" y="204.475" width="8.667" height="4.319"/>
						<rect x="232.536" y="195.818" width="8.667" height="8.657"/>
						<rect x="232.536" y="191.499" width="8.667" height="4.319"/>
						<rect x="232.536" y="187.17" width="8.667" height="4.329"/>
						<rect x="232.536" y="178.513" style="fill:#FFFFFF;" width="8.667" height="8.657"/>
						<rect x="232.536" y="174.194" width="8.667" height="4.319"/>
						<rect x="232.536" y="169.875" style="fill:#FFFFFF;" width="8.667" height="4.319"/>
						<rect x="232.536" y="165.546" width="8.667" height="4.329"/>
						<rect x="232.536" y="161.227" style="fill:#FFFFFF;" width="8.667" height="4.319"/>
						<rect x="232.536" y="156.908" style="fill:#FFFFFF;" width="8.667" height="4.319"/>
						<rect x="232.536" y="152.57" width="8.667" height="4.338"/>
						<rect x="232.536" y="148.251" style="fill:#FFFFFF;" width="8.667" height="4.319"/>
						<rect x="232.536" y="143.932" style="fill:#FFFFFF;" width="8.667" height="4.319"/>
						<rect x="228.217" y="234.736" style="fill:#FFFFFF;" width="4.319" height="4.329"/>
						<rect x="228.217" y="230.417" style="fill:#FFFFFF;" width="4.319" height="4.319"/>
						<rect x="228.217" y="221.76" style="fill:#FFFFFF;" width="4.319" height="8.657"/>
						<rect x="228.217" y="217.441" style="fill:#FFFFFF;" width="4.319" height="4.319"/>
						<rect x="228.217" y="213.113" style="fill:#FFFFFF;" width="4.319" height="4.329"/>
						<rect x="228.217" y="208.794" style="fill:#FFFFFF;" width="4.319" height="4.319"/>
						<rect x="228.217" y="204.475" width="4.319" height="4.319"/>
						<rect x="228.217" y="195.818" width="4.319" height="8.657"/>
						<rect x="228.217" y="191.499" style="fill:#FFFFFF;" width="4.319" height="4.319"/>
						<rect x="228.217" y="187.17" style="fill:#FFFFFF;" width="4.319" height="4.329"/>
						<rect x="228.217" y="178.513" width="4.319" height="8.657"/>
						<rect x="228.217" y="174.194" width="4.319" height="4.319"/>
						<rect x="228.217" y="169.875" style="fill:#FFFFFF;" width="4.319" height="4.319"/>
						<rect x="228.217" y="165.546" style="fill:#FFFFFF;" width="4.319" height="4.329"/>
						<rect x="228.217" y="161.227" style="fill:#FFFFFF;" width="4.319" height="4.319"/>
						<rect x="228.217" y="156.908" style="fill:#FFFFFF;" width="4.319" height="4.319"/>
						<rect x="228.217" y="152.57" style="fill:#FFFFFF;" width="4.319" height="4.338"/>
						<rect x="228.217" y="148.251" style="fill:#FFFFFF;" width="4.319" height="4.319"/>
						<rect x="228.217" y="143.932" style="fill:#FFFFFF;" width="4.319" height="4.319"/>
						<rect x="223.898" y="234.736" style="fill:#FFFFFF;" width="4.319" height="4.329"/>
						<rect x="223.898" y="230.417" width="4.319" height="4.319"/>
						<rect x="223.898" y="221.76" width="4.319" height="8.657"/>
						<rect x="223.898" y="217.441" width="4.319" height="4.319"/>
						<rect x="223.898" y="213.113" width="4.319" height="4.329"/>
						<rect x="223.898" y="208.794" style="fill:#FFFFFF;" width="4.319" height="4.319"/>
						<rect x="223.898" y="204.475" style="fill:#FFFFFF;" width="4.319" height="4.319"/>
						<rect x="223.898" y="195.818" style="fill:#FFFFFF;" width="4.319" height="8.657"/>
						<rect x="223.898" y="191.499" style="fill:#FFFFFF;" width="4.319" height="4.319"/>
						<rect x="223.898" y="187.17" style="fill:#FFFFFF;" width="4.319" height="4.329"/>
						<rect x="223.898" y="178.513" style="fill:#FFFFFF;" width="4.319" height="8.657"/>
						<rect x="223.898" y="174.194" width="4.319" height="4.319"/>
						<rect x="223.898" y="169.875" style="fill:#FFFFFF;" width="4.319" height="4.319"/>
						<rect x="223.898" y="165.546" width="4.319" height="4.329"/>
						<rect x="223.898" y="161.227" width="4.319" height="4.319"/>
						<rect x="223.898" y="156.908" width="4.319" height="4.319"/>
						<rect x="223.898" y="152.57" width="4.319" height="4.338"/>
						<rect x="223.898" y="148.251" width="4.319" height="4.319"/>
						<rect x="223.898" y="143.932" style="fill:#FFFFFF;" width="4.319" height="4.319"/>
						<rect x="219.579" y="234.736" style="fill:#FFFFFF;" width="4.319" height="4.329"/>
						<rect x="219.579" y="230.417" width="4.319" height="4.319"/>
						<rect x="219.579" y="221.76" style="fill:#FFFFFF;" width="4.319" height="8.657"/>
						<rect x="219.579" y="217.441" style="fill:#FFFFFF;" width="4.319" height="4.319"/>
						<rect x="219.579" y="213.113" width="4.319" height="4.329"/>
						<rect x="219.579" y="208.794" style="fill:#FFFFFF;" width="4.319" height="4.319"/>
						<rect x="219.579" y="204.475" style="fill:#FFFFFF;" width="4.319" height="4.319"/>
						<rect x="219.579" y="195.818" style="fill:#FFFFFF;" width="4.319" height="8.657"/>
						<rect x="219.579" y="191.499" style="fill:#FFFFFF;" width="4.319" height="4.319"/>
						<rect x="219.579" y="187.17" width="4.319" height="4.329"/>
						<rect x="219.579" y="178.513" style="fill:#FFFFFF;" width="4.319" height="8.657"/>
						<rect x="219.579" y="174.194" width="4.319" height="4.319"/>
						<rect x="219.579" y="169.875" style="fill:#FFFFFF;" width="4.319" height="4.319"/>
						<rect x="219.579" y="165.546" width="4.319" height="4.329"/>
						<rect x="219.579" y="161.227" style="fill:#FFFFFF;" width="4.319" height="4.319"/>
						<rect x="219.579" y="156.908" style="fill:#FFFFFF;" width="4.319" height="4.319"/>
						<rect x="219.579" y="152.57" style="fill:#FFFFFF;" width="4.319" height="4.338"/>
						<rect x="219.579" y="148.251" width="4.319" height="4.319"/>
						<rect x="219.579" y="143.932" style="fill:#FFFFFF;" width="4.319" height="4.319"/>
						<rect x="215.26" y="234.736" style="fill:#FFFFFF;" width="4.319" height="4.329"/>
						<rect x="215.26" y="230.417" width="4.319" height="4.319"/>
						<rect x="215.26" y="221.76" style="fill:#FFFFFF;" width="4.319" height="8.657"/>
						<rect x="215.26" y="217.441" style="fill:#FFFFFF;" width="4.319" height="4.319"/>
						<rect x="215.26" y="213.113" width="4.319" height="4.329"/>
						<rect x="215.26" y="208.794" style="fill:#FFFFFF;" width="4.319" height="4.319"/>
						<rect x="215.26" y="204.475" width="4.319" height="4.319"/>
						<rect x="215.26" y="195.818" style="fill:#FFFFFF;" width="4.319" height="8.657"/>
						<rect x="215.26" y="191.499" style="fill:#FFFFFF;" width="4.319" height="4.319"/>
						<rect x="215.26" y="187.17" width="4.319" height="4.329"/>
						<rect x="215.26" y="178.513" style="fill:#FFFFFF;" width="4.319" height="8.657"/>
						<rect x="215.26" y="174.194" style="fill:#FFFFFF;" width="4.319" height="4.319"/>
						<rect x="215.26" y="169.875" style="fill:#FFFFFF;" width="4.319" height="4.319"/>
						<rect x="215.26" y="165.546" width="4.319" height="4.329"/>
						<rect x="215.26" y="161.227" style="fill:#FFFFFF;" width="4.319" height="4.319"/>
						<rect x="215.26" y="156.908" width="4.319" height="4.319"/>
						<rect x="215.26" y="152.57" style="fill:#FFFFFF;" width="4.319" height="4.338"/>
						<rect x="215.26" y="148.251" width="4.319" height="4.319"/>
						<rect x="215.26" y="143.932" style="fill:#FFFFFF;" width="4.319" height="4.319"/>
						<rect x="210.912" y="234.736" style="fill:#FFFFFF;" width="4.348" height="4.329"/>
						<rect x="210.912" y="230.417" width="4.348" height="4.319"/>
						<rect x="210.912" y="221.76" style="fill:#FFFFFF;" width="4.348" height="8.657"/>
						<rect x="210.912" y="217.441" style="fill:#FFFFFF;" width="4.348" height="4.319"/>
						<rect x="210.912" y="213.113" width="4.348" height="4.329"/>
						<rect x="210.912" y="208.794" style="fill:#FFFFFF;" width="4.348" height="4.319"/>
						<rect x="210.912" y="204.475" style="fill:#FFFFFF;" width="4.348" height="4.319"/>
						<rect x="210.912" y="195.818" width="4.348" height="8.657"/>
						<rect x="210.912" y="191.499" style="fill:#FFFFFF;" width="4.348" height="4.319"/>
						<rect x="210.912" y="187.17" width="4.348" height="4.329"/>
						<rect x="210.912" y="178.513" width="4.348" height="8.657"/>
						<rect x="210.912" y="174.194" width="4.348" height="4.319"/>
						<rect x="210.912" y="169.875" style="fill:#FFFFFF;" width="4.348" height="4.319"/>
						<rect x="210.912" y="165.546" width="4.348" height="4.329"/>
						<rect x="210.912" y="161.227" style="fill:#FFFFFF;" width="4.348" height="4.319"/>
						<rect x="210.912" y="156.908" style="fill:#FFFFFF;" width="4.348" height="4.319"/>
						<rect x="210.912" y="152.57" style="fill:#FFFFFF;" width="4.348" height="4.338"/>
						<rect x="210.912" y="148.251" width="4.348" height="4.319"/>
						<rect x="210.912" y="143.932" style="fill:#FFFFFF;" width="4.348" height="4.319"/>
						<rect x="206.593" y="234.736" style="fill:#FFFFFF;" width="4.319" height="4.329"/>
						<rect x="206.593" y="230.417" width="4.319" height="4.319"/>
						<rect x="206.593" y="221.76" width="4.319" height="8.657"/>
						<rect x="206.593" y="217.441" width="4.319" height="4.319"/>
						<rect x="206.593" y="213.113" width="4.319" height="4.329"/>
						<rect x="206.593" y="208.794" style="fill:#FFFFFF;" width="4.319" height="4.319"/>
						<rect x="206.593" y="204.475" width="4.319" height="4.319"/>
						<rect x="206.593" y="195.818" style="fill:#FFFFFF;" width="4.319" height="8.657"/>
						<rect x="206.593" y="191.499" width="4.319" height="4.319"/>
						<rect x="206.593" y="187.17" width="4.319" height="4.329"/>
						<rect x="206.593" y="178.513" width="4.319" height="8.657"/>
						<rect x="206.593" y="174.194" width="4.319" height="4.319"/>
						<rect x="206.593" y="169.875" style="fill:#FFFFFF;" width="4.319" height="4.319"/>
						<rect x="206.593" y="165.546" width="4.319" height="4.329"/>
						<rect x="206.593" y="161.227" width="4.319" height="4.319"/>
						<rect x="206.593" y="156.908" width="4.319" height="4.319"/>
						<rect x="206.593" y="152.57" width="4.319" height="4.338"/>
						<rect x="206.593" y="148.251" width="4.319" height="4.319"/>
						<rect x="206.593" y="143.932" style="fill:#FFFFFF;" width="4.319" height="4.319"/>
						<rect x="202.274" y="234.736" style="fill:#FFFFFF;" width="4.319" height="4.329"/>
						<rect x="202.274" y="230.417" style="fill:#FFFFFF;" width="4.319" height="4.319"/>
						<rect x="202.274" y="221.76" style="fill:#FFFFFF;" width="4.319" height="8.657"/>
						<rect x="202.274" y="217.441" style="fill:#FFFFFF;" width="4.319" height="4.319"/>
						<rect x="202.274" y="213.113" style="fill:#FFFFFF;" width="4.319" height="4.329"/>
						<rect x="202.274" y="208.794" style="fill:#FFFFFF;" width="4.319" height="4.319"/>
						<rect x="202.274" y="204.475" style="fill:#FFFFFF;" width="4.319" height="4.319"/>
						<rect x="202.274" y="195.818" style="fill:#FFFFFF;" width="4.319" height="8.657"/>
						<rect x="202.274" y="191.499" style="fill:#FFFFFF;" width="4.319" height="4.319"/>
						<rect x="202.274" y="187.17" style="fill:#FFFFFF;" width="4.319" height="4.329"/>
						<rect x="202.274" y="178.513" style="fill:#FFFFFF;" width="4.319" height="8.657"/>
						<rect x="202.274" y="174.194" style="fill:#FFFFFF;" width="4.319" height="4.319"/>
						<rect x="202.274" y="169.875" style="fill:#FFFFFF;" width="4.319" height="4.319"/>
						<rect x="202.274" y="165.546" style="fill:#FFFFFF;" width="4.319" height="4.329"/>
						<rect x="202.274" y="161.227" style="fill:#FFFFFF;" width="4.319" height="4.319"/>
						<rect x="202.274" y="156.908" style="fill:#FFFFFF;" width="4.319" height="4.319"/>
						<rect x="202.274" y="152.57" style="fill:#FFFFFF;" width="4.319" height="4.338"/>
						<rect x="202.274" y="148.251" style="fill:#FFFFFF;" width="4.319" height="4.319"/>
						<rect x="202.274" y="143.932" style="fill:#FFFFFF;" width="4.319" height="4.319"/>
					</g>
					<g>
					</g>
				</g>
				<polyline style="fill:none;stroke:#000000;stroke-width:5.184;stroke-miterlimit:10;" points="192.733,154.069 192.733,134.274 
					212.325,134.274 				"/>
				<polyline style="fill:none;stroke:#000000;stroke-width:5.184;stroke-miterlimit:10;" points="306.894,153.685 306.894,133.891 
					287.299,133.891 				"/>
				<polyline style="fill:none;stroke:#000000;stroke-width:5.184;stroke-miterlimit:10;" points="192.733,228.832 192.733,248.625 
					212.325,248.625 				"/>
				<polyline style="fill:none;stroke:#000000;stroke-width:5.184;stroke-miterlimit:10;" points="306.894,229.214 306.894,249.01 
					287.299,249.01 				"/>
			</g>
			<rect x="214.799" y="221.495" width="5" height="5"/>
		</g>
		<g>
			<path d="M270.653,335.4h-41.132c-6.17,0-11.172-5.002-11.172-11.172l0,0c0-6.17,5.002-11.172,11.172-11.172h41.132
				c6.17,0,11.172,5.002,11.172,11.172l0,0C281.825,330.398,276.823,335.4,270.653,335.4z"/>
			
				<text transform="matrix(1 0 0 1 230.5113 328.2529)" style="fill:#FFFFFF; font-family:'Montserrat-Bold'; font-size:12.5986px;">SCAN</text>
		</g>
		<rect x="236.952" y="217.46" width="40.614" height="4.534"/>
		<rect x="250.003" y="225.917" width="40.614" height="4.534"/>
	</g>
	<g>
		<path style="fill:#E0A78F;" d="M402.262,197.167l10.117-6.419c0.445-0.282,0.994-0.344,1.49-0.168l0,0
			c1.039,0.368,1.464,1.608,0.871,2.537l-4.922,6.43L402.262,197.167z"/>
		<path style="fill:#2E1E94;" d="M412.01,200.265c0,0-9.09,19.71-8.79,18.08c0.13-0.68-17.5-4.84-38.16-9.47v-24.27L412.01,200.265z
			"/>
		<path style="fill:#E0A78F;" d="M416.303,196.064l-7.179,3.354l-5.905,18.925l2.779,0.813c2.597,0.759,5.349-0.557,6.388-3.055
			l7.075-17.012C420.282,197.112,418.243,195.158,416.303,196.064z"/>
		<polygon style="fill:#E0A78F;" points="400.731,196.418 394.524,215.821 404.136,218.539 409.783,198.275 		"/>
		<path d="M423.166,186.188l-11.959,23.544l-7.115-1.327l13.89-24.974c0.722-1.298,2.3-1.853,3.675-1.292l0,0
			C423.247,182.788,423.944,184.657,423.166,186.188z"/>
		<g>
			<polygon style="fill:#E8AF94;" points="382.766,429.162 381.779,381.86 396.388,382.256 396.388,431.733 			"/>
		</g>
		<g>
			<polygon style="fill:#E8AF94;" points="343.386,429.162 342.399,381.86 357.009,382.256 357.009,431.733 			"/>
			<g>
				<path style="fill:#262722;" d="M378.435,435.361c-0.24,0.9-1.01,1.6-3.03,1.64c-2.99,0.06-12.79-0.2-18.99-0.39l-8.22-1.73v1.53
					l-6.2-0.07c0,0-2.03-6.02,1.05-14.25c0,0,13.939,0.75,14.021,0.867c4.158,5.881,20.129,9.513,20.129,9.513
					c0.58,0.32,1.01,0.89,1.2,1.54C378.534,434.441,378.555,434.901,378.435,435.361z"/>
			</g>
			<g>
				<path style="fill:#262722;" d="M417.539,435.361c-0.24,0.9-1.01,1.6-3.03,1.64c-2.99,0.06-12.79-0.2-18.99-0.39l-8.22-1.73v1.53
					l-6.2-0.07c0,0-2.03-6.02,1.05-14.25c0,0,13.938,0.75,14.021,0.867c4.158,5.881,20.129,9.513,20.129,9.513
					c0.58,0.32,1.01,0.89,1.2,1.54C417.639,434.441,417.659,434.901,417.539,435.361z"/>
			</g>
		</g>
		
			<ellipse transform="matrix(0.9986 -0.0532 0.0532 0.9986 -5.2737 19.4164)" style="fill:#2E1E94;" cx="362.271" cy="108.821" rx="17.085" ry="17.085"/>
		
			<ellipse transform="matrix(0.5567 -0.8307 0.8307 0.5567 60.4847 338.374)" style="fill:#2E1E94;" cx="347.3" cy="112.513" rx="14.67" ry="14.67"/>
		<g>
			<path style="fill:#E0A78F;" d="M348.202,126.218c-0.322,3.023-3.035,5.213-6.058,4.891c-3.024-0.322-5.213-3.035-4.891-6.058
				c0.322-3.024,3.035-5.213,6.058-4.891C346.335,120.482,348.525,123.194,348.202,126.218z"/>
			
				<path style="fill:none;stroke:#B9635E;stroke-width:0.6612;stroke-linecap:round;stroke-linejoin:round;stroke-miterlimit:10;" d="
				M339.734,124.448c0,0,2.312-0.763,3.87,3.286l-1.571,0.048"/>
		</g>
		<g>
			<path style="fill:#E0A78F;" d="M340.316,154.359l13.879,0.564l2.109-12.736l1.426-8.68c-0.178,0.117-2.975,2.026-3.01,2.042
				c-0.033,0.025-2.568,1.821-4.543,0.662c-1.66-0.98-3.15-3.55-3.576-4.343l-0.002-0.009c-0.081-0.137-0.125-0.224-0.125-0.224
				l-0.057,0.209l-1.936,7.571L340.316,154.359z"/>
		</g>
		<path style="fill:#1E0B02;" d="M344.479,139.413c1.508,1.508,3.56,2.72,6.332,3.046c1.962,0.235,3.79,0.097,5.492-0.273
			l1.426-8.68c-0.178,0.117-2.975,2.026-3.01,2.042c-0.033,0.025-2.568,1.821-4.543,0.662c-1.66-0.98-3.15-3.55-3.576-4.343
			l-0.002-0.009l-0.182-0.015L344.479,139.413z"/>
		<path style="fill:#E0A78F;" d="M344.508,115.471c-0.661,5.919-0.349,11.126,0.128,14.85c0.467,3.646,2.619,6.398,5.83,8.778
			l0.585,0.433c3.397,2.519,8.085,3.092,12.001,1.469l0,0c3.95-1.637,6.857-4.053,8.084-7.773c2.232-6.765,3.249-14.42,3.249-14.42
			s2.956-15.887-13.189-17.397C345.052,99.903,344.508,115.471,344.508,115.471z"/>
		<g>
			<path d="M374.313,121.834l-7.043-1.462c0,0,0.101-2.467,3.509-1.741C374.267,119.373,374.313,121.834,374.313,121.834z"/>
			<path d="M350.978,119.594l8.607,0.14c0,0,0.392-2.409-3.093-2.419C352.926,117.306,350.978,119.594,350.978,119.594z"/>
		</g>
		<path style="fill:#2E1E94;" d="M343.67,114.14c0,0,22.311,3.86,25.344-12.912C369.013,101.228,342.737,93.028,343.67,114.14z"/>
		<path style="fill:#2E1E94;" d="M375.192,117.85c0,0-8.015-7.16-7.104-15.704C368.088,102.146,377.169,105.925,375.192,117.85z"/>
		<path style="fill:#5B50FB;" d="M364.7,411.962c-0.266,0.63-0.94,0.994-1.62,0.873l-22.889,0.039
			c-0.866-0.166-1.394-1.044-1.13-1.887c0,0,0.549-175.643,1.106-185.224l35.758,4.494C376.349,230.333,364.7,411.962,364.7,411.962
			z"/>
		<path style="fill:#2E1E94;" d="M342.41,147.784c0,0-8.977,21.179-2.169,78.322l39.77,0.621c0,0,14.513-60.512-24.333-78.687
			L342.41,147.784z"/>
		<path style="fill:#5B50FB;" d="M411.081,310.354c0,0-30.658-80.967-31.507-84.575c0,0-39.042-0.265-38.89,0.325
			c-13.527,26.202,2.524,46.468,16.32,48.764L380.01,327.8c0.071,0.17,0.351,84.136,0.351,84.136
			c0.006,0.883,0.776,1.557,1.651,1.452l20.695-0.096c0.685-0.092,1.216-0.644,1.277-1.326l9.376-80.99
			c0.737-6.366,0.273-12.853-1.702-18.95C411.476,311.466,411.284,310.908,411.081,310.354z"/>
		<path style="fill:#2E1E94;" d="M333.681,153.208l-18.72,36.74c-8.506,13.126-5.102,30.63,7.705,39.609l42.074,29.615l4.623-24.911
			l-21.382-27.938l14.786-38.724l-12.428-15.978C345.881,145.891,336.977,146.739,333.681,153.208z"/>
		<polygon style="fill:#E0A78F;" points="369.363,234.263 375.87,237.54 378.74,270.128 364.74,259.173 		"/>
		
			<polyline style="fill:none;stroke:#000000;stroke-width:0.9147;stroke-linecap:round;stroke-linejoin:round;stroke-miterlimit:10;" points="
			369.363,234.263 343.743,202.866 356.028,178.296 		"/>
		
			<path style="fill:none;stroke:#000000;stroke-width:0.9147;stroke-linecap:round;stroke-linejoin:round;stroke-miterlimit:10;" d="
			M372.274,308.8l-23.236-42.591c0,0-4.891-0.496-9.079-4.984"/>
		
			<path style="fill:none;stroke:#000000;stroke-width:0.9147;stroke-linecap:round;stroke-linejoin:round;stroke-miterlimit:10;" d="
			M381.557,212.222c0.57-6.262,0.838-14.114-0.001-22.279"/>
		
			<line style="fill:none;stroke:#000000;stroke-width:0.9147;stroke-linecap:round;stroke-linejoin:round;stroke-miterlimit:10;" x1="375.735" y1="234.988" x2="379.337" y2="274.116"/>
		
			<path style="fill:none;stroke:#000000;stroke-width:0.9147;stroke-linecap:round;stroke-linejoin:round;stroke-miterlimit:10;" d="
			M359.911,122.163c0,2.052-1.663,3.715-3.715,3.715c-2.052,0-3.715-1.663-3.715-3.715"/>
		
			<path style="fill:none;stroke:#000000;stroke-width:0.9147;stroke-linecap:round;stroke-linejoin:round;stroke-miterlimit:10;" d="
			M373.822,123.461c0,2.052-1.663,3.715-3.715,3.715c-2.052,0-3.715-1.663-3.715-3.715"/>
		
			<polyline style="fill:none;stroke:#B9635E;stroke-width:0.6612;stroke-linecap:round;stroke-linejoin:round;stroke-miterlimit:10;" points="
			363.899,122.262 364.299,130.268 361.096,130.268 		"/>
		
			<path style="fill:none;stroke:#000000;stroke-width:0.9147;stroke-linecap:round;stroke-linejoin:round;stroke-miterlimit:10;" d="
			M357.492,132.663c0,0,0.754,2.799,4.629,3.229"/>
	</g>
	<g>
		<g>
			<g>
				<g>
					<path style="fill:#262722;" d="M141.646,443.295l-8.949,0.109c0,0-19.412,0.629-23.8,0.538
						c-1.98-0.037-2.737-0.721-2.965-1.606c-0.119-0.447-0.1-2.92,0.036-3.34c0.183-0.638,0.611-1.195,1.177-1.505l3.348-1.843
						l5.528-3.038l23.848-6.404C145.038,427.611,141.646,443.295,141.646,443.295z"/>
					<path style="fill:#E8AF94;" d="M127.915,424.638l-11.891,7.969c0,0,1.53,4.389,8.306,1.463s15.265-7.334,15.265-7.334
						l-1.238-3.342L127.915,424.638z"/>
				</g>
				<polygon style="fill:#E8AF94;" points="138.358,423.395 126.903,389.051 115.118,389.83 126.785,429.318 				"/>
			</g>
			<path style="fill:#E8AF94;" d="M112.911,438.998h-6.942c0.183-0.638,0.611-1.195,1.177-1.505l3.348-1.843L112.911,438.998z"/>
		</g>
		<g>
			<g>
				<g>
					<path style="fill:#262722;" d="M147.366,443.295l8.949,0.109c0,0,19.412,0.629,23.8,0.538c1.98-0.037,2.737-0.721,2.965-1.606
						c0.119-0.447,0.1-2.92-0.036-3.34c-0.183-0.638-0.611-1.195-1.177-1.505l-3.348-1.843l-5.528-3.038l-23.848-6.404
						C143.974,427.611,147.366,443.295,147.366,443.295z"/>
					<path style="fill:#E8AF94;" d="M161.097,424.638l11.891,7.969c0,0-1.53,4.389-8.306,1.463
						c-6.776-2.926-15.265-7.334-15.265-7.334l1.238-3.342L161.097,424.638z"/>
				</g>
				<polygon style="fill:#E8AF94;" points="150.654,423.395 162.109,389.051 173.895,389.83 162.227,429.318 				"/>
			</g>
			<path style="fill:#E8AF94;" d="M176.102,438.998h6.942c-0.183-0.638-0.611-1.195-1.177-1.505l-3.348-1.843L176.102,438.998z"/>
		</g>
		<circle style="fill:#2E1E94;" cx="128.512" cy="160.117" r="25.527"/>
		
			<ellipse transform="matrix(0.6908 -0.723 0.723 0.6908 -93.1452 128.1546)" style="fill:#2E1E94;" cx="103.278" cy="172.991" rx="13.515" ry="13.515"/>
		<circle style="fill:#2E1E94;" cx="105.683" cy="173.628" r="16.744"/>
		<path style="fill:#5B50FB;" d="M113.997,172.784l-34.655,34.592c-2.48,2.521-2.463,6.571,0.038,9.071l0,0
			c2.158,2.158,5.535,2.505,8.087,0.832l35.742-23.437L113.997,172.784z"/>
		<path style="fill:#2E1E94;" d="M118.167,138.703c6.017,6.017,6.017,15.773,0,21.79c-6.017,6.017-15.773,6.017-21.79,0
			c-6.017-6.017-6.017-15.773,0-21.79C102.394,132.686,112.15,132.686,118.167,138.703z"/>
		<circle style="fill:#2E1E94;" cx="157.866" cy="158.432" r="16.744"/>
		
			<ellipse transform="matrix(0.9729 -0.2312 0.2312 0.9729 -28.7622 36.6423)" style="fill:#2E1E94;" cx="141.976" cy="141.053" rx="14.377" ry="14.377"/>
		<g>
			<path style="fill:#E0A78F;" d="M114.772,146.665c0.913,2.837-0.646,5.877-3.482,6.79c-2.837,0.913-5.877-0.645-6.79-3.482
				c-0.913-2.837,0.646-5.876,3.482-6.79C110.818,142.269,113.858,143.828,114.772,146.665z"/>
			
				<path style="fill:none;stroke:#B9635E;stroke-width:0.6612;stroke-linecap:round;stroke-linejoin:round;stroke-miterlimit:10;" d="
				M106.483,148.447c0,0,1.768-1.603,4.773,1.404l-0.985,0.617"/>
		</g>
		<g>
			<path style="fill:#E0A78F;" d="M133.73,141.305c0.833,2.861,3.828,4.505,6.689,3.673c2.861-0.833,4.505-3.828,3.673-6.689
				c-0.833-2.861-3.828-4.505-6.689-3.673C134.541,135.449,132.897,138.443,133.73,141.305z"/>
			
				<path style="fill:none;stroke:#B9635E;stroke-width:0.6612;stroke-linecap:round;stroke-linejoin:round;stroke-miterlimit:10;" d="
				M141.594,138.136c0,0-2.363-0.337-3.166,3.838l1.524-0.225"/>
		</g>
		<path style="fill:#2E1E94;" d="M138.279,126.312c2.674,9.186-3.136,18.955-12.978,21.82c-9.842,2.865-19.988-2.259-22.662-11.446
			c-2.674-9.186,3.136-18.955,12.978-21.82C125.459,112.001,135.605,117.126,138.279,126.312z"/>
		<g>
			<path style="fill:#E0A78F;" d="M146.195,167.092l-13.292,2.939l-4.233-11.923l-2.874-8.128c0.192,0.082,3.22,1.441,3.257,1.45
				c0.036,0.018,2.791,1.314,4.497-0.146c1.432-1.232,2.427-3.968,2.7-4.807v-0.009c0.055-0.146,0.082-0.237,0.082-0.237
				l0.091,0.192l3.174,6.969L146.195,167.092z"/>
		</g>
		<path style="fill:#1E0B02;" d="M139.599,153.392c-1.195,1.715-2.965,3.238-5.583,4.032c-1.852,0.566-3.64,0.748-5.346,0.684
			l-2.874-8.128c0.192,0.082,3.22,1.441,3.257,1.45c0.036,0.018,2.791,1.314,4.497-0.146c1.432-1.232,2.427-3.968,2.7-4.807v-0.009
			l0.173-0.046L139.599,153.392z"/>
		<path style="fill:#E0A78F;" d="M135.438,130.3c1.66,5.596,2.257,10.674,2.44,14.348c0.179,3.598-1.423,6.624-4.109,9.475
			l-0.489,0.519c-2.842,3.016-7.266,4.379-11.325,3.488l0,0c-4.093-0.898-7.315-2.727-9.141-6.103
			c-3.321-6.141-5.623-13.35-5.623-13.35s-5.594-14.816,9.721-19.06C132.227,115.374,135.438,130.3,135.438,130.3z"/>
		<g>
			
				<polyline style="fill:none;stroke:#B9635E;stroke-width:0.6612;stroke-linecap:round;stroke-linejoin:round;stroke-miterlimit:10;" points="
				118.633,138.884 119.972,145.551 121.469,145.115 			"/>
			<path d="M108.086,140.222l7.855-3.076c0,0-0.523-2.362-3.686-1.074C109.019,137.391,108.086,140.222,108.086,140.222z"/>
			<path d="M131.336,131.884l-8.279,1.621c0,0-0.794-2.257,2.566-2.867C129.061,130.014,131.336,131.884,131.336,131.884z"/>
			
				<path style="fill:none;stroke:#000000;stroke-width:0.6612;stroke-linecap:round;stroke-linejoin:round;stroke-miterlimit:10;" d="
				M118.055,149.821c0,0,3.768,1.313,8.147-1.429"/>
		</g>
		<path style="fill:#2E1E94;" d="M136.018,128.87c0,0-20.858,7.575-26.678-8.082C109.339,120.788,133.273,108.342,136.018,128.87z"
			/>
		<path style="fill:#2E1E94;" d="M106.248,137.891c0,0,6.496-8.291,4.143-16.376C110.39,121.514,102.282,126.728,106.248,137.891z"
			/>
		
			<path style="fill:none;stroke:#000000;stroke-width:0.6612;stroke-linecap:round;stroke-linejoin:round;stroke-miterlimit:10;" d="
			M111.243,143.427c0,0,1.007,2.086,3.073,1.51c2.067-0.577,2.513-3.116,2.513-3.116"/>
		
			<path style="fill:none;stroke:#000000;stroke-width:0.6612;stroke-linecap:round;stroke-linejoin:round;stroke-miterlimit:10;" d="
			M123.929,139.54c0,0,1.007,2.086,3.073,1.51c2.067-0.576,2.513-3.116,2.513-3.116"/>
		<g>
			<g>
				<path style="fill:#2E1E94;" d="M156.61,221.95c0.507-0.022,0.985,0.219,1.264,0.643c2.615,3.981,15.597,24.917,15.204,47.591
					c-0.409,23.619,4.843,129.984,4.258,143.33c-0.034,0.77-0.668,1.376-1.439,1.376l-26.292,0.102
					c-0.774,0-1.409-0.611-1.439-1.385l-5.961-153.592c-0.029-0.74-0.613-1.337-1.352-1.382l0,0
					c-0.708-0.043-1.341,0.435-1.494,1.127l-8.082,63.924c-0.041,0.185-0.045,0.376-0.012,0.562l9.592,88.867
					c0.15,0.851-0.478,1.643-1.341,1.689l-24.577,0.799c-0.677,0.037-1.287-0.403-1.467-1.057l-13.534-82.275
					c-0.845-5.137-0.818-10.379,0.079-15.506l7.896-45.118c1.422-9.091,3.859-18.003,7.399-26.497
					c2.945-7.066,6.954-15.082,11.947-21.412c0.261-0.331,0.655-0.527,1.075-0.545L156.61,221.95z"/>
				
					<line style="fill:none;stroke:#000000;stroke-width:0.9147;stroke-linecap:round;stroke-linejoin:round;stroke-miterlimit:10;" x1="134.829" y1="257.7" x2="147.355" y2="259.848"/>
			</g>
		</g>
		<g>
			<path style="fill:#5B50FB;" d="M137.945,164.761l-19.637,5.518c-5.668,1.593-15.609,16.59-13.896,22.222l23.082,31.031
				l29.925-1.357l10.519-43.353c0.902-5.89-5.207-11.239-11.128-11.913L137.945,164.761z"/>
			<path style="fill:#E0A78F;" d="M118.308,170.279l19.637-5.518l18.864,2.149l-0.391,0.327
				C145.658,176.259,130.364,177.48,118.308,170.279L118.308,170.279z"/>
		</g>
		<path style="fill:#5B50FB;" d="M82.509,205.624l46.368-11.859l3.689,12.173l-43.924,15.501c-4.226,1.864-9.166,0.009-11.12-4.176
			l0,0C75.379,212.672,77.707,207.239,82.509,205.624z"/>
		<path style="fill:#1E0B02;" d="M123.926,185.084l5.084,21.748c0.279,1.194,1.424,1.976,2.637,1.803l9.88-1.411
			c1.29-0.184,2.188-1.377,2.008-2.667l-3.101-22.273c-0.183-1.315-1.413-2.222-2.723-2.008l-11.862,1.937
			C124.497,182.432,123.615,183.751,123.926,185.084z"/>
		<path style="fill:#E0A78F;" d="M116.489,200.479l1.42,7.077c1.055,3.712,5.96,4.512,8.139,1.326l1.18-1.725l12.29-1.734
			c1.139-0.161,2.157-0.796,2.801-1.748l1.099-1.624c0.964-1.423,0.421-3.371-1.139-4.091l-10.779-4.975
			c-3.687-1.702-8.056-0.733-10.678,2.368L116.489,200.479z"/>
		<path style="fill:#5B50FB;" d="M166.005,172.732l22.103,40.062c2.339,4.239,2.337,9.383-0.005,13.62l-19.992,21.087l-6.979-11.631
			l11.338-20.467l-15.84-25.861L166.005,172.732z"/>
		<polygon style="fill:#E0A78F;" points="162.189,233.842 158.348,240.659 164.891,256.806 170.08,245.174 		"/>
		
			<line style="fill:none;stroke:#000000;stroke-width:0.9147;stroke-linecap:round;stroke-linejoin:round;stroke-miterlimit:10;" x1="157.184" y1="237.804" x2="166.318" y2="260.119"/>
		
			<line style="fill:none;stroke:#000000;stroke-width:0.9147;stroke-linecap:round;stroke-linejoin:round;stroke-miterlimit:10;" x1="126.906" y1="235.636" x2="117.508" y2="252.475"/>
		
			<path style="fill:none;stroke:#000000;stroke-width:0.9147;stroke-linecap:round;stroke-linejoin:round;stroke-miterlimit:10;" d="
			M128.853,202.068c0,0,13.31,2.561,12.943,2.827"/>
		
			<path style="fill:none;stroke:#000000;stroke-width:0.9147;stroke-linecap:round;stroke-linejoin:round;stroke-miterlimit:10;" d="
			M130.51,198.145c0,0,13.31,2.561,12.943,2.827"/>
	</g>
</g>
</svg>
