<?xml version="1.0" encoding="UTF-8"?>
<!DOCTYPE svg PUBLIC "-//W3C//DTD SVG 1.1//EN" "http://www.w3.org/Graphics/SVG/1.1/DTD/svg11.dtd">
<svg xmlns="http://www.w3.org/2000/svg" version="1.1" width="500px" height="500px" style="shape-rendering:geometricPrecision; text-rendering:geometricPrecision; image-rendering:optimizeQuality; fill-rule:evenodd; clip-rule:evenodd" xmlns:xlink="http://www.w3.org/1999/xlink">
<g><path style="opacity:0.004" fill="#fefffe" d="M 126.5,5.5 C 127.833,6.16667 127.833,6.16667 126.5,5.5 Z"/></g>
<g><path style="opacity:0.004" fill="#fefffe" d="M 253.5,11.5 C 254.833,12.1667 254.833,12.1667 253.5,11.5 Z"/></g>
<g><path style="opacity:0.004" fill="#fefffe" d="M 499.5,12.5 C 499.5,12.8333 499.5,13.1667 499.5,13.5C 498.83,13.0187 498.83,12.6853 499.5,12.5 Z"/></g>
<g><path style="opacity:0.004" fill="#fefffe" d="M 485.5,19.5 C 486.833,20.1667 486.833,20.1667 485.5,19.5 Z"/></g>
<g><path style="opacity:0.004" fill="#fefffe" d="M 138.5,20.5 C 139.833,21.1667 139.833,21.1667 138.5,20.5 Z"/></g>
<g><path style="opacity:0.004" fill="#fefffe" d="M 497.5,26.5 C 498.833,27.1667 498.833,27.1667 497.5,26.5 Z"/></g>
<g><path style="opacity:0.004" fill="#fefffe" d="M 252.5,33.5 C 253.833,34.1667 253.833,34.1667 252.5,33.5 Z"/></g>
<g><path style="opacity:0.004" fill="#fefffe" d="M 411.5,37.5 C 412.833,38.1667 412.833,38.1667 411.5,37.5 Z"/></g>
<g><path style="opacity:0.004" fill="#fefffe" d="M 89.5,39.5 C 90.8333,40.1667 90.8333,40.1667 89.5,39.5 Z"/></g>
<g><path style="opacity:0.004" fill="#fefffe" d="M 238.5,40.5 C 239.833,41.1667 239.833,41.1667 238.5,40.5 Z"/></g>
<g><path style="opacity:0.004" fill="#fefffe" d="M 412.5,43.5 C 413.833,44.1667 413.833,44.1667 412.5,43.5 Z"/></g>
<g><path style="opacity:0.004" fill="#fefffe" d="M 387.5,47.5 C 388.833,48.1667 388.833,48.1667 387.5,47.5 Z"/></g>
<g><path style="opacity:0.004" fill="#fefffe" d="M 339.5,51.5 C 340.833,52.1667 340.833,52.1667 339.5,51.5 Z"/></g>
<g><path style="opacity:0.004" fill="#fefffe" d="M 438.5,53.5 C 439.833,54.1667 439.833,54.1667 438.5,53.5 Z"/></g>
<g><path style="opacity:0.997" fill="#050203" d="M 354.5,92.5 C 352.095,93.3981 350.095,94.8981 348.5,97C 347.552,97.4828 346.552,97.6495 345.5,97.5C 345.666,93.4862 345.499,89.4862 345,85.5C 344.284,83.1209 343.117,81.1209 341.5,79.5C 337.597,71.5244 331.263,66.3577 322.5,64C 308.837,63.5001 295.171,63.3334 281.5,63.5C 282.041,68.7389 280.041,72.5723 275.5,75C 258.167,75.6667 240.833,75.6667 223.5,75C 220.211,73.5897 218.544,71.0897 218.5,67.5C 218.5,66.1667 218.5,64.8333 218.5,63.5C 205.323,63.1712 192.323,63.5045 179.5,64.5C 173.703,64.7315 169.037,67.0649 165.5,71.5C 160.9,74.6663 157.733,78.9996 156,84.5C 155.5,100.83 155.333,117.163 155.5,133.5C 152.698,130.358 149.365,128.025 145.5,126.5C 145.333,112.829 145.5,99.1626 146,85.5C 149.286,69.547 158.786,59.3803 174.5,55C 224.833,54.3333 275.167,54.3333 325.5,55C 344.405,60.4003 354.072,72.9003 354.5,92.5 Z"/></g>
<g><path style="opacity:1" fill="#ab616d" d="M 179.5,64.5 C 192.323,63.5045 205.323,63.1712 218.5,63.5C 218.5,64.8333 218.5,66.1667 218.5,67.5C 217.596,66.791 217.263,65.791 217.5,64.5C 204.833,64.5 192.167,64.5 179.5,64.5 Z"/></g>
<g><path style="opacity:1" fill="#f98598" d="M 341.5,79.5 C 317.104,86.612 307.938,102.612 314,127.5C 317.645,135.645 323.479,141.645 331.5,145.5C 330.665,146.943 329.332,147.943 327.5,148.5C 329.031,149.613 330.031,151.113 330.5,153C 329.382,155.059 328.715,157.226 328.5,159.5C 327.325,159.281 326.325,159.614 325.5,160.5C 324.787,162.776 324.287,165.109 324,167.5C 323.465,165.729 322.631,165.396 321.5,166.5C 321.931,167.293 322.265,168.127 322.5,169C 320.408,173.551 318.241,178.051 316,182.5C 315.107,181.289 314.274,181.289 313.5,182.5C 314.516,185.134 314.516,187.8 313.5,190.5C 309.918,196.711 308.751,203.378 310,210.5C 310.757,212.315 311.59,213.981 312.5,215.5C 313.5,218.167 314.5,220.833 315.5,223.5C 314.5,223.5 313.5,223.5 312.5,223.5C 311.207,232.594 310.207,241.594 309.5,250.5C 309.5,243.167 309.5,235.833 309.5,228.5C 307.5,228.5 305.5,228.5 303.5,228.5C 303.5,234.167 303.5,239.833 303.5,245.5C 297.833,245.5 292.167,245.5 286.5,245.5C 286.5,247.5 286.5,249.5 286.5,251.5C 294.167,251.5 301.833,251.5 309.5,251.5C 301.601,252.391 293.601,252.891 285.5,253C 281.633,249.582 281.633,246.249 285.5,243C 290.939,244.285 296.605,244.785 302.5,244.5C 302.5,242.167 302.5,239.833 302.5,237.5C 301.167,237.5 299.833,237.5 298.5,237.5C 298.5,205.833 298.5,174.167 298.5,142.5C 265.833,142.5 233.167,142.5 200.5,142.5C 200.5,145.833 200.5,149.167 200.5,152.5C 198.075,150.881 196.075,151.214 194.5,153.5C 194.5,147.833 194.5,142.167 194.5,136.5C 200.167,136.5 205.833,136.5 211.5,136.5C 211.5,134.833 211.5,133.167 211.5,131.5C 204.167,131.5 196.833,131.5 189.5,131.5C 189.5,137.5 189.5,143.5 189.5,149.5C 184.4,148.2 179.4,148.2 174.5,149.5C 173.609,148.89 172.609,148.557 171.5,148.5C 170.07,146.614 168.403,144.947 166.5,143.5C 166.047,142.542 165.381,141.708 164.5,141C 161.854,140.503 159.187,140.336 156.5,140.5C 156.333,122.497 156.5,104.497 157,86.5C 158.338,83.5715 159.505,80.5715 160.5,77.5C 161.5,77.5 162.5,77.5 163.5,77.5C 163.604,75.2972 164.27,73.2972 165.5,71.5C 169.037,67.0649 173.703,64.7315 179.5,64.5C 192.167,64.5 204.833,64.5 217.5,64.5C 217.263,65.791 217.596,66.791 218.5,67.5C 218.544,71.0897 220.211,73.5897 223.5,75C 240.833,75.6667 258.167,75.6667 275.5,75C 280.041,72.5723 282.041,68.7389 281.5,63.5C 295.171,63.3334 308.837,63.5001 322.5,64C 331.263,66.3577 337.597,71.5244 341.5,79.5 Z"/></g>
<g><path style="opacity:0.004" fill="#fefffe" d="M 391.5,74.5 C 392.833,75.1667 392.833,75.1667 391.5,74.5 Z"/></g>
<g><path style="opacity:1" fill="#301e8d" d="M 376.5,117.5 C 375.391,117.443 374.391,117.11 373.5,116.5C 370.827,113.158 368.661,109.492 367,105.5C 363.77,110.363 359.27,113.03 353.5,113.5C 350.167,113.5 346.833,113.5 343.5,113.5C 343.5,115.5 343.5,117.5 343.5,119.5C 340.687,119.025 338.687,120.025 337.5,122.5C 335.496,121.327 333.996,119.66 333,117.5C 330.575,106.468 334.742,99.8012 345.5,97.5C 346.552,97.6495 347.552,97.4828 348.5,97C 350.095,94.8981 352.095,93.3981 354.5,92.5C 368.282,88.7698 376.615,93.9364 379.5,108C 379.034,111.375 378.034,114.542 376.5,117.5 Z"/></g>
<g><path style="opacity:1" fill="#e2879e" d="M 165.5,71.5 C 164.27,73.2972 163.604,75.2972 163.5,77.5C 162.5,77.5 161.5,77.5 160.5,77.5C 159.505,80.5715 158.338,83.5715 157,86.5C 156.5,104.497 156.333,122.497 156.5,140.5C 159.187,140.336 161.854,140.503 164.5,141C 165.381,141.708 166.047,142.542 166.5,143.5C 162.985,142.081 159.319,141.414 155.5,141.5C 155.5,138.833 155.5,136.167 155.5,133.5C 155.333,117.163 155.5,100.83 156,84.5C 157.733,78.9996 160.9,74.6663 165.5,71.5 Z"/></g>
<g><path style="opacity:0.004" fill="#fefffe" d="M 119.5,98.5 C 120.833,99.1667 120.833,99.1667 119.5,98.5 Z"/></g>
<g><path style="opacity:0.004" fill="#fefffe" d="M 143.5,101.5 C 144.833,102.167 144.833,102.167 143.5,101.5 Z"/></g>
<g><path style="opacity:1" fill="#e2687d" d="M 341.5,79.5 C 343.117,81.1209 344.284,83.1209 345,85.5C 345.499,89.4862 345.666,93.4862 345.5,97.5C 334.742,99.8012 330.575,106.468 333,117.5C 333.996,119.66 335.496,121.327 337.5,122.5C 336.156,128.166 338.49,130.832 344.5,130.5C 344.433,131.959 344.766,133.292 345.5,134.5C 344.549,135.919 344.216,137.585 344.5,139.5C 343.388,141.599 342.721,143.933 342.5,146.5C 340.901,146.232 339.568,146.566 338.5,147.5C 335.924,147.532 333.591,146.865 331.5,145.5C 323.479,141.645 317.645,135.645 314,127.5C 307.938,102.612 317.104,86.612 341.5,79.5 Z"/></g>
<g><path style="opacity:0.004" fill="#fefffe" d="M 91.5,112.5 C 92.8333,113.167 92.8333,113.167 91.5,112.5 Z"/></g>
<g><path style="opacity:1" fill="#946f91" d="M 353.5,113.5 C 350.713,114.477 347.713,114.81 344.5,114.5C 344.784,116.415 344.451,118.081 343.5,119.5C 343.5,117.5 343.5,115.5 343.5,113.5C 346.833,113.5 350.167,113.5 353.5,113.5 Z"/></g>
<g><path style="opacity:1" fill="#d3a29c" d="M 373.5,116.5 C 373.5,117.5 373.5,118.5 373.5,119.5C 371.621,118.659 369.621,118.325 367.5,118.5C 368.718,117.839 370.051,117.172 371.5,116.5C 371.113,115.28 370.28,114.613 369,114.5C 364.202,115.066 359.369,115.232 354.5,115C 355.056,115.383 355.389,115.883 355.5,116.5C 353.716,116.893 352.05,117.559 350.5,118.5C 350.5,117.5 350.5,116.5 350.5,115.5C 348.61,115.297 347.11,115.963 346,117.5C 345.966,119.18 345.799,120.68 345.5,122C 342.843,121.19 340.177,121.356 337.5,122.5C 338.687,120.025 340.687,119.025 343.5,119.5C 344.451,118.081 344.784,116.415 344.5,114.5C 347.713,114.81 350.713,114.477 353.5,113.5C 359.27,113.03 363.77,110.363 367,105.5C 368.661,109.492 370.827,113.158 373.5,116.5 Z"/></g>
<g><path style="opacity:1" fill="#2a1512" d="M 367.5,118.5 C 369.621,118.325 371.621,118.659 373.5,119.5C 373.5,120.167 373.5,120.833 373.5,121.5C 370.895,121.379 368.895,120.379 367.5,118.5 Z"/></g>
<g><path style="opacity:1" fill="#d9a48e" d="M 367.5,118.5 C 368.895,120.379 370.895,121.379 373.5,121.5C 371.488,126.3 368.988,126.633 366,122.5C 365.135,124.888 365.968,126.388 368.5,127C 369.928,127.579 371.262,127.412 372.5,126.5C 371.548,136.119 366.215,141.452 356.5,142.5C 355.691,144.071 355.357,145.738 355.5,147.5C 349.833,147.5 344.167,147.5 338.5,147.5C 339.568,146.566 340.901,146.232 342.5,146.5C 342.721,143.933 343.388,141.599 344.5,139.5C 347.518,141.463 350.851,141.963 354.5,141C 351.06,139.386 348.06,137.22 345.5,134.5C 344.766,133.292 344.433,131.959 344.5,130.5C 338.49,130.832 336.156,128.166 337.5,122.5C 340.177,121.356 342.843,121.19 345.5,122C 345.799,120.68 345.966,119.18 346,117.5C 347.11,115.963 348.61,115.297 350.5,115.5C 350.5,116.5 350.5,117.5 350.5,118.5C 353.355,119.803 356.355,119.803 359.5,118.5C 358.423,117.295 357.09,116.628 355.5,116.5C 355.389,115.883 355.056,115.383 354.5,115C 359.369,115.232 364.202,115.066 369,114.5C 370.28,114.613 371.113,115.28 371.5,116.5C 370.051,117.172 368.718,117.839 367.5,118.5 Z"/></g>
<g><path style="opacity:1" fill="#4b322a" d="M 355.5,116.5 C 357.09,116.628 358.423,117.295 359.5,118.5C 356.355,119.803 353.355,119.803 350.5,118.5C 352.05,117.559 353.716,116.893 355.5,116.5 Z"/></g>
<g><path style="opacity:1" fill="#5c3427" d="M 358.5,121.5 C 360.49,121.993 360.49,123.16 358.5,125C 356.421,125.808 354.421,125.641 352.5,124.5C 353.909,124.346 355.576,124.179 357.5,124C 358.252,123.329 358.586,122.496 358.5,121.5 Z"/></g>
<g><path style="opacity:0.796" fill="#5a3d45" d="M 373.5,116.5 C 374.391,117.11 375.391,117.443 376.5,117.5C 375.167,120.541 373.833,123.541 372.5,126.5C 371.262,127.412 369.928,127.579 368.5,127C 365.968,126.388 365.135,124.888 366,122.5C 368.988,126.633 371.488,126.3 373.5,121.5C 373.5,120.833 373.5,120.167 373.5,119.5C 373.5,118.5 373.5,117.5 373.5,116.5 Z"/></g>
<g><path style="opacity:1" fill="#bb909d" d="M 115.5,127.5 C 118.02,128.918 120.687,129.918 123.5,130.5C 123.5,131.167 123.167,131.5 122.5,131.5C 119.23,130.717 115.897,129.717 112.5,128.5C 111.583,129.127 110.583,129.461 109.5,129.5C 109.231,127.571 109.731,125.905 111,124.5C 112.129,126.141 113.629,127.141 115.5,127.5 Z"/></g>
<g><path style="opacity:1" fill="#432d7f" d="M 115.5,127.5 C 121.502,128.723 127.502,128.723 133.5,127.5C 134.713,127.747 135.38,128.414 135.5,129.5C 132.941,129.198 130.607,129.532 128.5,130.5C 126.833,130.5 125.167,130.5 123.5,130.5C 120.687,129.918 118.02,128.918 115.5,127.5 Z"/></g>
<g><path style="opacity:1" fill="#653728" d="M 356.5,131.5 C 358.01,132.836 359.677,134.003 361.5,135C 358.632,135.64 356.965,134.473 356.5,131.5 Z"/></g>
<g><path style="opacity:1" fill="#31208b" d="M 114.5,114.5 C 113.207,116.296 111.707,117.963 110,119.5C 109.517,120.448 109.351,121.448 109.5,122.5C 113.938,121.425 115.938,123.092 115.5,127.5C 113.629,127.141 112.129,126.141 111,124.5C 109.731,125.905 109.231,127.571 109.5,129.5C 107.286,132.732 106.62,136.065 107.5,139.5C 107.5,140.167 107.5,140.833 107.5,141.5C 102.706,144.872 102.372,148.705 106.5,153C 108.81,153.497 111.143,153.663 113.5,153.5C 115.191,154.864 116.858,156.197 118.5,157.5C 113.562,155.996 108.728,154.33 104,152.5C 103.101,154.327 101.767,155.66 100,156.5C 98.5,156.333 97.6667,155.5 97.5,154C 99.7413,151.572 99.9079,149.072 98,146.5C 97.51,147.793 97.3433,149.127 97.5,150.5C 96.1779,150.33 95.0113,150.663 94,151.5C 93.9822,153.797 94.1489,156.131 94.5,158.5C 90.6937,152.39 90.527,146.056 94,139.5C 95.7391,137.259 97.9058,135.592 100.5,134.5C 100.761,124.616 105.427,117.949 114.5,114.5 Z"/></g>
<g><path style="opacity:1" fill="#180303" d="M 194.5,153.5 C 192.833,153.5 191.167,153.5 189.5,153.5C 189.5,152.167 189.5,150.833 189.5,149.5C 189.5,143.5 189.5,137.5 189.5,131.5C 196.833,131.5 204.167,131.5 211.5,131.5C 211.5,133.167 211.5,134.833 211.5,136.5C 205.833,136.5 200.167,136.5 194.5,136.5C 194.5,142.167 194.5,147.833 194.5,153.5 Z"/></g>
<g><path style="opacity:1" fill="#70353e" d="M 286.5,130.5 C 294.167,130.5 301.833,130.5 309.5,130.5C 309.5,138.167 309.5,145.833 309.5,153.5C 307.5,153.5 305.5,153.5 303.5,153.5C 303.5,147.833 303.5,142.167 303.5,136.5C 297.833,136.5 292.167,136.5 286.5,136.5C 286.5,134.5 286.5,132.5 286.5,130.5 Z"/></g>
<g><path style="opacity:0.004" fill="#fefffe" d="M 415.5,136.5 C 416.833,137.167 416.833,137.167 415.5,136.5 Z"/></g>
<g><path style="opacity:1" fill="#2f1109" d="M 345.5,134.5 C 348.06,137.22 351.06,139.386 354.5,141C 350.851,141.963 347.518,141.463 344.5,139.5C 344.216,137.585 344.549,135.919 345.5,134.5 Z"/></g>
<g><path style="opacity:1" fill="#2f1e90" d="M 145.5,126.5 C 149.365,128.025 152.698,130.358 155.5,133.5C 155.5,136.167 155.5,138.833 155.5,141.5C 159.319,141.414 162.985,142.081 166.5,143.5C 168.403,144.947 170.07,146.614 171.5,148.5C 175.126,157.024 173.793,164.69 167.5,171.5C 166.448,171.649 165.448,171.483 164.5,171C 162.286,167.893 159.286,166.393 155.5,166.5C 152.375,165.521 149.042,165.187 145.5,165.5C 144.596,164.791 144.263,163.791 144.5,162.5C 143.498,158.16 141.665,154.16 139,150.5C 138.506,148.866 138.34,147.199 138.5,145.5C 139.791,145.737 140.791,145.404 141.5,144.5C 143.391,142.164 143.891,139.498 143,136.5C 140.916,133.967 138.916,133.967 137,136.5C 136.023,134.26 135.523,131.927 135.5,129.5C 135.38,128.414 134.713,127.747 133.5,127.5C 127.502,128.723 121.502,128.723 115.5,127.5C 115.938,123.092 113.938,121.425 109.5,122.5C 109.351,121.448 109.517,120.448 110,119.5C 111.707,117.963 113.207,116.296 114.5,114.5C 125.894,111.612 134.061,115.612 139,126.5C 141.12,125.395 143.287,125.395 145.5,126.5 Z"/></g>
<g><path style="opacity:1" fill="#080000" d="M 287.5,131.5 C 294.5,131.5 301.5,131.5 308.5,131.5C 308.5,138.5 308.5,145.5 308.5,152.5C 307.167,152.5 305.833,152.5 304.5,152.5C 304.5,146.833 304.5,141.167 304.5,135.5C 298.833,135.5 293.167,135.5 287.5,135.5C 287.5,134.167 287.5,132.833 287.5,131.5 Z"/></g>
<g><path style="opacity:1" fill="#ed9ba8" d="M 298.5,237.5 C 297.833,237.833 297.167,238.167 296.5,238.5C 296.5,206.833 296.5,175.167 296.5,143.5C 265.167,143.5 233.833,143.5 202.5,143.5C 201.523,146.287 201.19,149.287 201.5,152.5C 201.167,152.5 200.833,152.5 200.5,152.5C 200.5,149.167 200.5,145.833 200.5,142.5C 233.167,142.5 265.833,142.5 298.5,142.5C 298.5,174.167 298.5,205.833 298.5,237.5 Z"/></g>
<g><path style="opacity:1" fill="#f9f2f3" d="M 202.5,143.5 C 233.833,143.5 265.167,143.5 296.5,143.5C 296.5,175.167 296.5,206.833 296.5,238.5C 269.167,238.5 241.833,238.5 214.5,238.5C 212.052,237.527 209.385,237.194 206.5,237.5C 206.5,236.5 206.5,235.5 206.5,234.5C 213.5,234.5 220.5,234.5 227.5,234.5C 227.5,227.5 227.5,220.5 227.5,213.5C 220.687,212.509 213.687,212.175 206.5,212.5C 205.507,220.65 205.174,228.983 205.5,237.5C 204.5,237.5 203.5,237.5 202.5,237.5C 202.5,217.833 202.5,198.167 202.5,178.5C 203.5,178.5 204.5,178.5 205.5,178.5C 205.178,184.358 205.511,190.025 206.5,195.5C 207.833,195.5 209.167,195.5 210.5,195.5C 210.5,194.167 210.5,192.833 210.5,191.5C 214.833,191.5 219.167,191.5 223.5,191.5C 223.5,189.833 223.5,188.167 223.5,186.5C 220.5,186.5 217.5,186.5 214.5,186.5C 214.5,182.167 214.5,177.833 214.5,173.5C 211.833,173.5 209.167,173.5 206.5,173.5C 206.5,172.167 206.5,170.833 206.5,169.5C 213.5,169.5 220.5,169.5 227.5,169.5C 227.5,162.167 227.5,154.833 227.5,147.5C 220.5,147.5 213.5,147.5 206.5,147.5C 205.509,154.313 205.175,161.313 205.5,168.5C 204.5,168.5 203.5,168.5 202.5,168.5C 202.5,160.167 202.5,151.833 202.5,143.5 Z"/></g>
<g><path style="opacity:1" fill="#0c0404" d="M 249.5,148.5 C 253.5,148.5 257.5,148.5 261.5,148.5C 261.5,149.5 261.5,150.5 261.5,151.5C 257.5,151.5 253.5,151.5 249.5,151.5C 249.5,150.5 249.5,149.5 249.5,148.5 Z"/></g>
<g><path style="opacity:1" fill="#2d1e92" d="M 338.5,147.5 C 344.167,147.5 349.833,147.5 355.5,147.5C 370.048,155.069 378.382,167.069 380.5,183.5C 380.551,185.57 379.885,187.403 378.5,189C 379.833,195.667 379.833,202.333 378.5,209C 380.227,212.276 380.894,215.776 380.5,219.5C 380.795,221.735 380.461,223.735 379.5,225.5C 374.833,225.5 370.167,225.5 365.5,225.5C 365.343,226.873 365.51,228.207 366,229.5C 367.802,230.789 368.969,232.456 369.5,234.5C 367.217,239.81 365.884,245.476 365.5,251.5C 365.5,252.5 365.5,253.5 365.5,254.5C 364.549,255.919 364.216,257.585 364.5,259.5C 355.048,252.267 345.381,245.267 335.5,238.5C 328.476,233.987 321.809,228.987 315.5,223.5C 314.5,220.833 313.5,218.167 312.5,215.5C 312.634,211.698 311.967,208.032 310.5,204.5C 311.361,200.417 312.527,196.417 314,192.5C 318.013,186.477 321.513,180.144 324.5,173.5C 325.325,172.614 326.325,172.281 327.5,172.5C 327.23,167.38 328.897,163.047 332.5,159.5C 333.167,160.167 333.833,160.833 334.5,161.5C 334.833,161 335.167,160.5 335.5,160C 334.612,158.78 333.945,157.447 333.5,156C 333.954,154.061 334.621,152.228 335.5,150.5C 336.306,149.272 337.306,148.272 338.5,147.5 Z"/></g>
<g><path style="opacity:1" fill="#d7a28e" d="M 122.5,131.5 C 122.917,132.124 123.584,132.457 124.5,132.5C 126.5,132 128.5,131.5 130.5,131C 129.906,130.536 129.239,130.369 128.5,130.5C 130.607,129.532 132.941,129.198 135.5,129.5C 135.523,131.927 136.023,134.26 137,136.5C 138.916,133.967 140.916,133.967 143,136.5C 143.891,139.498 143.391,142.164 141.5,144.5C 140.167,144.5 138.833,144.5 137.5,144.5C 137.5,145.833 137.5,147.167 137.5,148.5C 134.833,151.833 131.833,154.833 128.5,157.5C 125.167,157.5 121.833,157.5 118.5,157.5C 116.858,156.197 115.191,154.864 113.5,153.5C 111.721,151.656 109.388,150.99 106.5,151.5C 106.167,149.5 105.833,147.5 105.5,145.5C 109.91,145.677 110.577,144.343 107.5,141.5C 107.5,140.833 107.5,140.167 107.5,139.5C 106.62,136.065 107.286,132.732 109.5,129.5C 110.583,129.461 111.583,129.127 112.5,128.5C 115.897,129.717 119.23,130.717 122.5,131.5 Z"/></g>
<g><path style="opacity:1" fill="#251410" d="M 107.5,139.5 C 108.898,136.068 111.231,135.068 114.5,136.5C 112.27,137.783 109.937,138.783 107.5,139.5 Z"/></g>
<g><path style="opacity:1" fill="#1b0c0f" d="M 123.5,130.5 C 125.167,130.5 126.833,130.5 128.5,130.5C 129.239,130.369 129.906,130.536 130.5,131C 128.5,131.5 126.5,132 124.5,132.5C 123.584,132.457 122.917,132.124 122.5,131.5C 123.167,131.5 123.5,131.167 123.5,130.5 Z"/></g>
<g><path style="opacity:1" fill="#b48aa2" d="M 107.5,141.5 C 110.577,144.343 109.91,145.677 105.5,145.5C 105.833,147.5 106.167,149.5 106.5,151.5C 109.388,150.99 111.721,151.656 113.5,153.5C 111.143,153.663 108.81,153.497 106.5,153C 102.372,148.705 102.706,144.872 107.5,141.5 Z"/></g>
<g><path style="opacity:1" fill="#43383a" d="M 292.5,148.5 C 286.833,148.5 281.167,148.5 275.5,148.5C 275.5,149.5 275.5,150.5 275.5,151.5C 280.032,151.182 284.366,151.515 288.5,152.5C 283.706,151.903 279.373,152.57 275.5,154.5C 274.533,153.194 273.199,152.527 271.5,152.5C 271.5,150.833 271.5,149.167 271.5,147.5C 278.687,147.175 285.687,147.509 292.5,148.5 Z"/></g>
<g><path style="opacity:1" fill="#080203" d="M 240.5,152.5 C 240.5,153.5 240.5,154.5 240.5,155.5C 238.901,155.232 237.568,155.566 236.5,156.5C 235.167,156.5 233.833,156.5 232.5,156.5C 232.5,155.167 232.5,153.833 232.5,152.5C 235.167,152.5 237.833,152.5 240.5,152.5 Z"/></g>
<g><path style="opacity:1" fill="#fdfaf9" d="M 249.5,152.5 C 252.167,152.5 254.833,152.5 257.5,152.5C 257.5,153.833 257.5,155.167 257.5,156.5C 256.167,156.5 254.833,156.5 253.5,156.5C 253.5,157.833 253.5,159.167 253.5,160.5C 252.527,159.209 251.527,159.209 250.5,160.5C 249.262,156.689 248.596,156.689 248.5,160.5C 247.5,160.5 246.5,160.5 245.5,160.5C 245.5,159.167 245.5,157.833 245.5,156.5C 246.833,156.5 248.167,156.5 249.5,156.5C 249.5,155.167 249.5,153.833 249.5,152.5 Z"/></g>
<g><path style="opacity:1" fill="#2e1e92" d="M 118.5,157.5 C 121.833,157.5 125.167,157.5 128.5,157.5C 129.578,160.402 130.244,163.402 130.5,166.5C 128.035,166.767 125.701,167.434 123.5,168.5C 122.127,168.343 120.793,168.51 119.5,169C 118.402,169.77 118.402,170.603 119.5,171.5C 117.402,170.037 115.402,170.204 113.5,172C 108.242,177.764 102.576,182.931 96.5,187.5C 94.9128,184.732 93.0795,182.065 91,179.5C 90.3333,175.5 90.3333,171.5 91,167.5C 91.9888,165.03 93.1554,162.697 94.5,160.5C 94.5,159.833 94.5,159.167 94.5,158.5C 94.1489,156.131 93.9822,153.797 94,151.5C 95.0113,150.663 96.1779,150.33 97.5,150.5C 97.3433,149.127 97.51,147.793 98,146.5C 99.9079,149.072 99.7413,151.572 97.5,154C 97.6667,155.5 98.5,156.333 100,156.5C 101.767,155.66 103.101,154.327 104,152.5C 108.728,154.33 113.562,155.996 118.5,157.5 Z"/></g>
<g><path style="opacity:1" fill="#341410" d="M 137.5,148.5 C 137.629,150.216 137.962,151.883 138.5,153.5C 135.808,156.181 132.475,157.514 128.5,157.5C 131.833,154.833 134.833,151.833 137.5,148.5 Z"/></g>
<g><path style="opacity:1" fill="#402376" d="M 141.5,144.5 C 140.791,145.404 139.791,145.737 138.5,145.5C 138.34,147.199 138.506,148.866 139,150.5C 141.665,154.16 143.498,158.16 144.5,162.5C 142.748,159.328 140.748,156.328 138.5,153.5C 137.962,151.883 137.629,150.216 137.5,148.5C 137.5,147.167 137.5,145.833 137.5,144.5C 138.833,144.5 140.167,144.5 141.5,144.5 Z"/></g>
<g><path style="opacity:1" fill="#3e3436" d="M 245.5,152.5 C 244.566,151.432 244.232,150.099 244.5,148.5C 243.5,148.5 242.5,148.5 241.5,148.5C 241.822,154.358 241.489,160.025 240.5,165.5C 240.5,162.5 240.5,159.5 240.5,156.5C 239.167,156.5 237.833,156.5 236.5,156.5C 237.568,155.566 238.901,155.232 240.5,155.5C 240.5,154.5 240.5,153.5 240.5,152.5C 240.5,150.833 240.5,149.167 240.5,147.5C 242.167,147.5 243.833,147.5 245.5,147.5C 245.5,149.167 245.5,150.833 245.5,152.5 Z"/></g>
<g><path style="opacity:1" fill="#161010" d="M 292.5,148.5 C 292.5,155.5 292.5,162.5 292.5,169.5C 285.5,169.5 278.5,169.5 271.5,169.5C 271.5,163.833 271.5,158.167 271.5,152.5C 273.199,152.527 274.533,153.194 275.5,154.5C 275.5,157.833 275.5,161.167 275.5,164.5C 279.833,165.833 284.167,165.833 288.5,164.5C 288.5,160.5 288.5,156.5 288.5,152.5C 284.366,151.515 280.032,151.182 275.5,151.5C 275.5,150.5 275.5,149.5 275.5,148.5C 281.167,148.5 286.833,148.5 292.5,148.5 Z"/></g>
<g><path style="opacity:1" fill="#fcf7f7" d="M 288.5,152.5 C 288.5,156.5 288.5,160.5 288.5,164.5C 287.167,164.5 285.833,164.5 284.5,164.5C 284.5,163.5 284.5,162.5 284.5,161.5C 288.5,161.167 288.5,160.833 284.5,160.5C 284.768,158.901 284.434,157.568 283.5,156.5C 282.167,156.5 280.833,156.5 279.5,156.5C 279.5,157.833 279.5,159.167 279.5,160.5C 280.568,161.434 281.901,161.768 283.5,161.5C 283.5,162.5 283.5,163.5 283.5,164.5C 280.833,164.5 278.167,164.5 275.5,164.5C 275.5,161.167 275.5,157.833 275.5,154.5C 279.373,152.57 283.706,151.903 288.5,152.5 Z"/></g>
<g><path style="opacity:1" fill="#f2d3d8" d="M 202.5,143.5 C 202.5,151.833 202.5,160.167 202.5,168.5C 203.5,168.5 204.5,168.5 205.5,168.5C 205.175,161.313 205.509,154.313 206.5,147.5C 206.5,154.833 206.5,162.167 206.5,169.5C 206.5,170.833 206.5,172.167 206.5,173.5C 206.5,180.833 206.5,188.167 206.5,195.5C 205.511,190.025 205.178,184.358 205.5,178.5C 204.5,178.5 203.5,178.5 202.5,178.5C 202.5,198.167 202.5,217.833 202.5,237.5C 203.5,237.5 204.5,237.5 205.5,237.5C 205.174,228.983 205.507,220.65 206.5,212.5C 206.5,212.833 206.5,213.167 206.5,213.5C 206.5,220.5 206.5,227.5 206.5,234.5C 206.5,235.5 206.5,236.5 206.5,237.5C 209.385,237.194 212.052,237.527 214.5,238.5C 210.167,238.5 205.833,238.5 201.5,238.5C 201.5,209.833 201.5,181.167 201.5,152.5C 201.19,149.287 201.523,146.287 202.5,143.5 Z"/></g>
<g><path style="opacity:1" fill="#0f0808" d="M 261.5,160.5 C 258.833,160.5 256.167,160.5 253.5,160.5C 253.5,159.167 253.5,157.833 253.5,156.5C 254.833,156.5 256.167,156.5 257.5,156.5C 258.434,155.432 258.768,154.099 258.5,152.5C 259.5,152.5 260.5,152.5 261.5,152.5C 261.5,155.167 261.5,157.833 261.5,160.5 Z"/></g>
<g><path style="opacity:1" fill="#423739" d="M 249.5,148.5 C 254.975,147.511 260.642,147.178 266.5,147.5C 266.5,149.167 266.5,150.833 266.5,152.5C 265.167,152.5 263.833,152.5 262.5,152.5C 262.5,155.167 262.5,157.833 262.5,160.5C 262.167,160.5 261.833,160.5 261.5,160.5C 261.5,157.833 261.5,155.167 261.5,152.5C 260.5,152.5 259.5,152.5 258.5,152.5C 258.768,154.099 258.434,155.432 257.5,156.5C 257.5,155.167 257.5,153.833 257.5,152.5C 254.833,152.5 252.167,152.5 249.5,152.5C 249.5,152.167 249.5,151.833 249.5,151.5C 253.5,151.5 257.5,151.5 261.5,151.5C 261.5,150.5 261.5,149.5 261.5,148.5C 257.5,148.5 253.5,148.5 249.5,148.5 Z"/></g>
<g><path style="opacity:1" fill="#100c0c" d="M 283.5,156.5 C 283.5,157.833 283.5,159.167 283.5,160.5C 282.167,160.5 280.833,160.5 279.5,160.5C 279.5,159.167 279.5,157.833 279.5,156.5C 280.833,156.5 282.167,156.5 283.5,156.5 Z"/></g>
<g><path style="opacity:1" fill="#ded3d5" d="M 253.5,160.5 C 256.167,160.5 258.833,160.5 261.5,160.5C 261.833,160.5 262.167,160.5 262.5,160.5C 262.5,160.833 262.5,161.167 262.5,161.5C 258.167,161.5 253.833,161.5 249.5,161.5C 249.5,162.5 249.5,163.5 249.5,164.5C 252.5,164.5 255.5,164.5 258.5,164.5C 258.5,166.167 258.5,167.833 258.5,169.5C 258.5,170.833 258.5,172.167 258.5,173.5C 258.167,173.5 257.833,173.5 257.5,173.5C 257.5,172.167 257.5,170.833 257.5,169.5C 257.5,168.167 257.5,166.833 257.5,165.5C 256.167,165.5 254.833,165.5 253.5,165.5C 252.167,165.5 250.833,165.5 249.5,165.5C 248.167,165.5 246.833,165.5 245.5,165.5C 245.5,163.833 245.5,162.167 245.5,160.5C 246.5,160.5 247.5,160.5 248.5,160.5C 248.596,156.689 249.262,156.689 250.5,160.5C 251.527,159.209 252.527,159.209 253.5,160.5 Z"/></g>
<g><path style="opacity:0.004" fill="#fefffe" d="M 6.5,161.5 C 7.83333,162.167 7.83333,162.167 6.5,161.5 Z"/></g>
<g><path style="opacity:1" fill="#272021" d="M 262.5,160.5 C 263.833,160.5 265.167,160.5 266.5,160.5C 266.5,162.167 266.5,163.833 266.5,165.5C 265.167,165.5 263.833,165.5 262.5,165.5C 262.5,164.167 262.5,162.833 262.5,161.5C 262.5,161.167 262.5,160.833 262.5,160.5 Z"/></g>
<g><path style="opacity:1" fill="#c8bbbd" d="M 283.5,156.5 C 284.434,157.568 284.768,158.901 284.5,160.5C 288.5,160.833 288.5,161.167 284.5,161.5C 284.5,162.5 284.5,163.5 284.5,164.5C 285.833,164.5 287.167,164.5 288.5,164.5C 284.167,165.833 279.833,165.833 275.5,164.5C 278.167,164.5 280.833,164.5 283.5,164.5C 283.5,163.5 283.5,162.5 283.5,161.5C 281.901,161.768 280.568,161.434 279.5,160.5C 280.833,160.5 282.167,160.5 283.5,160.5C 283.5,159.167 283.5,157.833 283.5,156.5 Z"/></g>
<g><path style="opacity:1" fill="#161414" d="M 253.5,165.5 C 254.833,165.5 256.167,165.5 257.5,165.5C 257.5,166.833 257.5,168.167 257.5,169.5C 256.167,169.5 254.833,169.5 253.5,169.5C 253.5,168.167 253.5,166.833 253.5,165.5 Z"/></g>
<g><path style="opacity:1" fill="#191414" d="M 206.5,147.5 C 213.5,147.5 220.5,147.5 227.5,147.5C 227.5,154.833 227.5,162.167 227.5,169.5C 220.5,169.5 213.5,169.5 206.5,169.5C 206.5,162.167 206.5,154.833 206.5,147.5 Z"/></g>
<g><path style="opacity:1" fill="#f8f2f3" d="M 210.5,152.5 C 214.833,152.5 219.167,152.5 223.5,152.5C 223.5,156.833 223.5,161.167 223.5,165.5C 219.167,165.5 214.833,165.5 210.5,165.5C 210.5,161.167 210.5,156.833 210.5,152.5 Z"/></g>
<g><path style="opacity:1" fill="#948789" d="M 215.5,156.5 C 215.5,157.833 215.5,159.167 215.5,160.5C 216.5,160.5 217.5,160.5 218.5,160.5C 218.5,159.167 218.5,157.833 218.5,156.5C 219.451,157.919 219.784,159.585 219.5,161.5C 217.833,161.5 216.167,161.5 214.5,161.5C 214.216,159.585 214.549,157.919 215.5,156.5 Z"/></g>
<g><path style="opacity:1" fill="#060000" d="M 215.5,156.5 C 216.5,156.5 217.5,156.5 218.5,156.5C 218.5,157.833 218.5,159.167 218.5,160.5C 217.5,160.5 216.5,160.5 215.5,160.5C 215.5,159.167 215.5,157.833 215.5,156.5 Z"/></g>
<g><path style="opacity:1" fill="#c79cb5" d="M 145.5,165.5 C 149.042,165.187 152.375,165.521 155.5,166.5C 155.047,167.458 154.381,168.292 153.5,169C 150.707,170.654 147.707,171.821 144.5,172.5C 146.511,170.661 148.844,169.161 151.5,168C 149.498,166.981 147.498,166.148 145.5,165.5 Z"/></g>
<g><path style="opacity:1" fill="#dba496" d="M 138.5,153.5 C 140.748,156.328 142.748,159.328 144.5,162.5C 144.263,163.791 144.596,164.791 145.5,165.5C 147.498,166.148 149.498,166.981 151.5,168C 148.844,169.161 146.511,170.661 144.5,172.5C 143.791,173.404 142.791,173.737 141.5,173.5C 135.435,173.739 129.435,173.239 123.5,172C 122.316,170.855 122.316,169.688 123.5,168.5C 125.701,167.434 128.035,166.767 130.5,166.5C 130.244,163.402 129.578,160.402 128.5,157.5C 132.475,157.514 135.808,156.181 138.5,153.5 Z"/></g>
<g><path style="opacity:1" fill="#0f0909" d="M 245.5,165.5 C 246.833,165.5 248.167,165.5 249.5,165.5C 249.5,168.167 249.5,170.833 249.5,173.5C 248.167,173.5 246.833,173.5 245.5,173.5C 245.5,170.833 245.5,168.167 245.5,165.5 Z"/></g>
<g><path style="opacity:1" fill="#b991c7" d="M 123.5,168.5 C 122.316,169.688 122.316,170.855 123.5,172C 129.435,173.239 135.435,173.739 141.5,173.5C 134.028,175.108 126.695,174.441 119.5,171.5C 118.402,170.603 118.402,169.77 119.5,169C 120.793,168.51 122.127,168.343 123.5,168.5 Z"/></g>
<g><path style="opacity:1" fill="#d2648c" d="M 171.5,148.5 C 172.609,148.557 173.609,148.89 174.5,149.5C 175.955,156.438 175.122,163.104 172,169.5C 172.088,173.259 171.921,176.925 171.5,180.5C 167.991,178.657 166.657,175.657 167.5,171.5C 173.793,164.69 175.126,157.024 171.5,148.5 Z"/></g>
<g><path style="opacity:1" fill="#5d4ff8" d="M 155.5,166.5 C 159.286,166.393 162.286,167.893 164.5,171C 165.448,171.483 166.448,171.649 167.5,171.5C 166.657,175.657 167.991,178.657 171.5,180.5C 172.167,182.5 172.833,184.5 173.5,186.5C 175.091,189.352 176.424,192.352 177.5,195.5C 180.483,201.861 183.65,208.194 187,214.5C 188.149,217.393 188.649,220.393 188.5,223.5C 187.662,223.842 187.328,224.508 187.5,225.5C 184.757,227.239 182.757,229.573 181.5,232.5C 178.757,234.239 176.757,236.573 175.5,239.5C 173.5,240.833 171.5,242.167 169.5,243.5C 166.833,240.167 164.167,236.833 161.5,233.5C 162.833,232.167 162.833,230.833 161.5,229.5C 163.017,229.489 164.184,228.823 165,227.5C 166.751,225.51 167.751,223.177 168,220.5C 171.297,218.821 172.297,216.154 171,212.5C 169.303,209.98 167.47,207.647 165.5,205.5C 165.5,205.167 165.5,204.833 165.5,204.5C 164.952,202.606 163.952,200.94 162.5,199.5C 160.185,206.706 158.518,214.04 157.5,221.5C 147.086,221.763 136.753,222.43 126.5,223.5C 124.5,220.5 122.5,217.5 120.5,214.5C 120.5,213.5 120.5,212.5 120.5,211.5C 121.791,211.737 122.791,211.404 123.5,210.5C 123.842,209.662 124.508,209.328 125.5,209.5C 131.409,208.545 137.409,208.211 143.5,208.5C 143.5,207.5 143.5,206.5 143.5,205.5C 143.806,202.615 143.473,199.948 142.5,197.5C 141.935,192.851 141.435,188.184 141,183.5C 140.722,182.584 140.222,181.918 139.5,181.5C 138.486,180.235 136.986,179.569 135,179.5C 132.456,179.336 130.29,180.003 128.5,181.5C 127.5,181.5 126.5,181.5 125.5,181.5C 124.275,182.152 123.608,183.319 123.5,185C 123.788,187.187 124.122,189.354 124.5,191.5C 123.5,191.833 122.833,192.5 122.5,193.5C 119.5,194.5 117.5,196.5 116.5,199.5C 115.335,200.496 114.668,201.829 114.5,203.5C 115.937,205.577 116.604,207.91 116.5,210.5C 114.219,210.077 112.552,210.744 111.5,212.5C 105.182,213.163 99.1822,214.83 93.5,217.5C 91.9446,217.278 90.6113,216.611 89.5,215.5C 88.5481,217.045 88.2148,218.712 88.5,220.5C 85.8333,220.5 83.1667,220.5 80.5,220.5C 76.0233,217.562 74.8566,213.562 77,208.5C 84.0947,201.911 90.5947,194.911 96.5,187.5C 102.576,182.931 108.242,177.764 113.5,172C 115.402,170.204 117.402,170.037 119.5,171.5C 126.695,174.441 134.028,175.108 141.5,173.5C 142.791,173.737 143.791,173.404 144.5,172.5C 147.707,171.821 150.707,170.654 153.5,169C 154.381,168.292 155.047,167.458 155.5,166.5 Z"/></g>
<g><path style="opacity:1" fill="#524749" d="M 240.5,169.5 C 241.451,170.919 241.784,172.585 241.5,174.5C 234.167,174.5 226.833,174.5 219.5,174.5C 226.313,173.509 233.313,173.175 240.5,173.5C 240.5,172.167 240.5,170.833 240.5,169.5 Z"/></g>
<g><path style="opacity:1" fill="#0f0708" d="M 245.5,152.5 C 246.833,152.5 248.167,152.5 249.5,152.5C 249.5,153.833 249.5,155.167 249.5,156.5C 248.167,156.5 246.833,156.5 245.5,156.5C 244.509,163.313 244.175,170.313 244.5,177.5C 240.298,177.183 236.298,177.517 232.5,178.5C 231.527,180.948 231.194,183.615 231.5,186.5C 230.5,186.5 229.5,186.5 228.5,186.5C 228.5,183.5 228.5,180.5 228.5,177.5C 225.5,177.5 222.5,177.5 219.5,177.5C 219.5,176.5 219.5,175.5 219.5,174.5C 226.833,174.5 234.167,174.5 241.5,174.5C 241.784,172.585 241.451,170.919 240.5,169.5C 237.833,169.5 235.167,169.5 232.5,169.5C 232.5,168.167 232.5,166.833 232.5,165.5C 235.167,165.5 237.833,165.5 240.5,165.5C 241.489,160.025 241.822,154.358 241.5,148.5C 242.5,148.5 243.5,148.5 244.5,148.5C 244.232,150.099 244.566,151.432 245.5,152.5 Z"/></g>
<g><path style="opacity:1" fill="#140c0d" d="M 258.5,169.5 C 259.833,169.5 261.167,169.5 262.5,169.5C 262.5,170.833 262.5,172.167 262.5,173.5C 263.833,173.5 265.167,173.5 266.5,173.5C 266.5,174.833 266.5,176.167 266.5,177.5C 263.833,177.5 261.167,177.5 258.5,177.5C 258.5,176.167 258.5,174.833 258.5,173.5C 258.5,172.167 258.5,170.833 258.5,169.5 Z"/></g>
<g><path style="opacity:1" fill="#67575a" d="M 245.5,156.5 C 245.5,157.833 245.5,159.167 245.5,160.5C 245.5,162.167 245.5,163.833 245.5,165.5C 245.5,168.167 245.5,170.833 245.5,173.5C 245.5,175.167 245.5,176.833 245.5,178.5C 241.167,178.5 236.833,178.5 232.5,178.5C 236.298,177.517 240.298,177.183 244.5,177.5C 244.175,170.313 244.509,163.313 245.5,156.5 Z"/></g>
<g><path style="opacity:1" fill="#69595c" d="M 257.5,173.5 C 257.833,173.5 258.167,173.5 258.5,173.5C 258.5,174.833 258.5,176.167 258.5,177.5C 261.167,177.5 263.833,177.5 266.5,177.5C 262.366,178.485 258.032,178.818 253.5,178.5C 253.5,176.833 253.5,175.167 253.5,173.5C 254.833,173.5 256.167,173.5 257.5,173.5 Z"/></g>
<g><path style="opacity:1" fill="#040000" d="M 254.5,174.5 C 255.5,174.5 256.5,174.5 257.5,174.5C 257.5,175.5 257.5,176.5 257.5,177.5C 256.5,177.5 255.5,177.5 254.5,177.5C 254.5,176.5 254.5,175.5 254.5,174.5 Z"/></g>
<g><path style="opacity:1" fill="#4a2283" d="M 335.5,150.5 C 334.621,152.228 333.954,154.061 333.5,156C 333.945,157.447 334.612,158.78 335.5,160C 335.167,160.5 334.833,161 334.5,161.5C 333.833,160.833 333.167,160.167 332.5,159.5C 328.897,163.047 327.23,167.38 327.5,172.5C 326.325,172.281 325.325,172.614 324.5,173.5C 321.513,180.144 318.013,186.477 314,192.5C 312.527,196.417 311.361,200.417 310.5,204.5C 311.967,208.032 312.634,211.698 312.5,215.5C 311.59,213.981 310.757,212.315 310,210.5C 308.751,203.378 309.918,196.711 313.5,190.5C 320.195,178.113 326.695,165.447 333,152.5C 333.708,151.619 334.542,150.953 335.5,150.5 Z"/></g>
<g><path style="opacity:1" fill="#3b2c7d" d="M 139.5,181.5 C 135.896,180.479 132.229,180.479 128.5,181.5C 130.29,180.003 132.456,179.336 135,179.5C 136.986,179.569 138.486,180.235 139.5,181.5 Z"/></g>
<g><path style="opacity:1" fill="#181112" d="M 206.5,173.5 C 209.167,173.5 211.833,173.5 214.5,173.5C 214.5,177.833 214.5,182.167 214.5,186.5C 217.5,186.5 220.5,186.5 223.5,186.5C 223.5,188.167 223.5,189.833 223.5,191.5C 219.167,191.5 214.833,191.5 210.5,191.5C 210.5,192.833 210.5,194.167 210.5,195.5C 209.167,195.5 207.833,195.5 206.5,195.5C 206.5,188.167 206.5,180.833 206.5,173.5 Z"/></g>
<g><path style="opacity:0.969" fill="#2c2378" d="M 94.5,160.5 C 93.1554,162.697 91.9888,165.03 91,167.5C 90.3333,171.5 90.3333,175.5 91,179.5C 93.0795,182.065 94.9128,184.732 96.5,187.5C 89.2733,182.698 86.7733,176.031 89,167.5C 89.9354,164.405 91.7687,162.071 94.5,160.5 Z"/></g>
<g><path style="opacity:1" fill="#5c5152" d="M 219.5,177.5 C 222.5,177.5 225.5,177.5 228.5,177.5C 228.5,180.5 228.5,183.5 228.5,186.5C 228.167,186.5 227.833,186.5 227.5,186.5C 227.5,183.833 227.5,181.167 227.5,178.5C 224.615,178.806 221.948,178.473 219.5,177.5 Z"/></g>
<g><path style="opacity:0.004" fill="#fefffe" d="M 428.5,180.5 C 429.833,181.167 429.833,181.167 428.5,180.5 Z"/></g>
<g><path style="opacity:1" fill="#eb85a7" d="M 331.5,145.5 C 333.591,146.865 335.924,147.532 338.5,147.5C 337.306,148.272 336.306,149.272 335.5,150.5C 334.542,150.953 333.708,151.619 333,152.5C 326.695,165.447 320.195,178.113 313.5,190.5C 314.516,187.8 314.516,185.134 313.5,182.5C 314.274,181.289 315.107,181.289 316,182.5C 318.241,178.051 320.408,173.551 322.5,169C 322.265,168.127 321.931,167.293 321.5,166.5C 322.631,165.396 323.465,165.729 324,167.5C 324.287,165.109 324.787,162.776 325.5,160.5C 326.325,159.614 327.325,159.281 328.5,159.5C 328.715,157.226 329.382,155.059 330.5,153C 330.031,151.113 329.031,149.613 327.5,148.5C 329.332,147.943 330.665,146.943 331.5,145.5 Z"/></g>
<g><path style="opacity:0.984" fill="#0b0505" d="M 418.5,194.5 C 415.941,198.612 413.608,202.946 411.5,207.5C 409.257,208.474 406.924,208.808 404.5,208.5C 407.221,202.056 410.221,195.723 413.5,189.5C 414.693,186.948 416.027,184.448 417.5,182C 419.167,181.333 420.833,181.333 422.5,182C 423.022,182.561 423.355,183.228 423.5,184C 421.922,187.652 420.255,191.152 418.5,194.5 Z"/></g>
<g><path style="opacity:1" fill="#aa9a9d" d="M 271.5,173.5 C 271.5,179.5 271.5,185.5 271.5,191.5C 269.585,191.784 267.919,191.451 266.5,190.5C 267.833,190.5 269.167,190.5 270.5,190.5C 270.178,184.642 270.511,178.975 271.5,173.5 Z"/></g>
<g><path style="opacity:1" fill="#413387" d="M 139.5,181.5 C 140.222,181.918 140.722,182.584 141,183.5C 141.435,188.184 141.935,192.851 142.5,197.5C 142.167,197.5 141.833,197.5 141.5,197.5C 140.554,192.207 139.887,186.874 139.5,181.5 Z"/></g>
<g><path style="opacity:1" fill="#241238" d="M 125.5,181.5 C 125.018,182.416 124.685,183.416 124.5,184.5C 125.894,186.646 126.56,188.979 126.5,191.5C 125.833,191.5 125.167,191.5 124.5,191.5C 124.122,189.354 123.788,187.187 123.5,185C 123.608,183.319 124.275,182.152 125.5,181.5 Z"/></g>
<g><path style="opacity:1" fill="#161011" d="M 271.5,173.5 C 272.833,173.5 274.167,173.5 275.5,173.5C 275.5,175.167 275.5,176.833 275.5,178.5C 279.833,178.5 284.167,178.5 288.5,178.5C 288.5,176.833 288.5,175.167 288.5,173.5C 289.833,173.5 291.167,173.5 292.5,173.5C 292.5,187.833 292.5,202.167 292.5,216.5C 291.167,216.5 289.833,216.5 288.5,216.5C 288.5,212.5 288.5,208.5 288.5,204.5C 285.5,204.5 282.5,204.5 279.5,204.5C 279.5,198.5 279.5,192.5 279.5,186.5C 278.167,186.5 276.833,186.5 275.5,186.5C 275.5,189.5 275.5,192.5 275.5,195.5C 272.5,195.5 269.5,195.5 266.5,195.5C 266.5,198.5 266.5,201.5 266.5,204.5C 268.167,204.5 269.833,204.5 271.5,204.5C 271.5,207.167 271.5,209.833 271.5,212.5C 269.833,212.5 268.167,212.5 266.5,212.5C 266.5,213.833 266.5,215.167 266.5,216.5C 263.833,216.5 261.167,216.5 258.5,216.5C 258.5,215.167 258.5,213.833 258.5,212.5C 259.833,212.5 261.167,212.5 262.5,212.5C 262.5,209.833 262.5,207.167 262.5,204.5C 261.432,203.566 260.099,203.232 258.5,203.5C 258.5,200.833 258.5,198.167 258.5,195.5C 259.833,195.5 261.167,195.5 262.5,195.5C 262.5,192.5 262.5,189.5 262.5,186.5C 263.833,186.5 265.167,186.5 266.5,186.5C 266.5,187.833 266.5,189.167 266.5,190.5C 267.919,191.451 269.585,191.784 271.5,191.5C 271.5,185.5 271.5,179.5 271.5,173.5 Z"/></g>
<g><path style="opacity:1" fill="#1e0c0b" d="M 139.5,181.5 C 139.887,186.874 140.554,192.207 141.5,197.5C 136.816,194.656 131.816,192.656 126.5,191.5C 126.56,188.979 125.894,186.646 124.5,184.5C 124.685,183.416 125.018,182.416 125.5,181.5C 126.5,181.5 127.5,181.5 128.5,181.5C 132.229,180.479 135.896,180.479 139.5,181.5 Z"/></g>
<g><path style="opacity:1" fill="#c467a2" d="M 173.5,186.5 C 177.02,188.867 179.02,192.2 179.5,196.5C 178.833,196.167 178.167,195.833 177.5,195.5C 176.424,192.352 175.091,189.352 173.5,186.5 Z"/></g>
<g><path style="opacity:1" fill="#786a6c" d="M 232.5,178.5 C 232.5,181.167 232.5,183.833 232.5,186.5C 236.833,186.5 241.167,186.5 245.5,186.5C 245.5,188.167 245.5,189.833 245.5,191.5C 243.833,191.5 242.167,191.5 240.5,191.5C 241.568,190.566 242.901,190.232 244.5,190.5C 244.5,189.5 244.5,188.5 244.5,187.5C 240.5,187.5 236.5,187.5 232.5,187.5C 232.806,190.385 232.473,193.052 231.5,195.5C 231.5,192.833 231.5,190.167 231.5,187.5C 229.901,187.768 228.568,187.434 227.5,186.5C 227.833,186.5 228.167,186.5 228.5,186.5C 229.5,186.5 230.5,186.5 231.5,186.5C 231.194,183.615 231.527,180.948 232.5,178.5 Z"/></g>
<g><path style="opacity:1" fill="#2b2426" d="M 257.5,186.5 C 257.5,189.5 257.5,192.5 257.5,195.5C 256.167,195.5 254.833,195.5 253.5,195.5C 253.5,192.5 253.5,189.5 253.5,186.5C 254.833,186.5 256.167,186.5 257.5,186.5 Z"/></g>
<g><path style="opacity:1" fill="#f8f2f3" d="M 284.5,191.5 C 285.833,191.5 287.167,191.5 288.5,191.5C 288.5,192.833 288.5,194.167 288.5,195.5C 287.167,195.5 285.833,195.5 284.5,195.5C 284.5,194.167 284.5,192.833 284.5,191.5 Z"/></g>
<g><path style="opacity:1" fill="#040001" d="M 210.5,195.5 C 211.833,195.5 213.167,195.5 214.5,195.5C 214.5,198.167 214.5,200.833 214.5,203.5C 213.167,203.5 211.833,203.5 210.5,203.5C 210.5,200.833 210.5,198.167 210.5,195.5 Z"/></g>
<g><path style="opacity:1" fill="#ac89cb" d="M 122.5,193.5 C 121.207,195.296 119.707,196.963 118,198.5C 117.503,200.81 117.337,203.143 117.5,205.5C 116.539,203.735 116.205,201.735 116.5,199.5C 117.5,196.5 119.5,194.5 122.5,193.5 Z"/></g>
<g><path style="opacity:1" fill="#d6a28d" d="M 124.5,191.5 C 125.167,191.5 125.833,191.5 126.5,191.5C 131.816,192.656 136.816,194.656 141.5,197.5C 141.833,197.5 142.167,197.5 142.5,197.5C 142.5,198.167 142.5,198.833 142.5,199.5C 138.253,198.15 133.92,197.65 129.5,198C 133.754,199.314 138.087,200.147 142.5,200.5C 142.443,201.609 142.11,202.609 141.5,203.5C 138.859,202.737 136.192,202.57 133.5,203C 134.938,203.219 136.271,203.719 137.5,204.5C 135.257,205.474 132.924,205.808 130.5,205.5C 127.08,205.074 124.247,206.074 122,208.5C 119.791,208.443 118.291,207.443 117.5,205.5C 117.337,203.143 117.503,200.81 118,198.5C 119.707,196.963 121.207,195.296 122.5,193.5C 122.833,192.5 123.5,191.833 124.5,191.5 Z"/></g>
<g><path style="opacity:1" fill="#98898e" d="M 257.5,186.5 C 258.477,189.287 258.81,192.287 258.5,195.5C 258.5,198.167 258.5,200.833 258.5,203.5C 260.099,203.232 261.432,203.566 262.5,204.5C 260.833,204.5 259.167,204.5 257.5,204.5C 257.5,201.5 257.5,198.5 257.5,195.5C 257.5,192.5 257.5,189.5 257.5,186.5 Z"/></g>
<g><path style="opacity:1" fill="#634030" d="M 142.5,199.5 C 142.5,199.833 142.5,200.167 142.5,200.5C 138.087,200.147 133.754,199.314 129.5,198C 133.92,197.65 138.253,198.15 142.5,199.5 Z"/></g>
<g><path style="opacity:1" fill="#d5a492" d="M 413.5,189.5 C 410.221,195.723 407.221,202.056 404.5,208.5C 406.924,208.808 409.257,208.474 411.5,207.5C 413.608,202.946 415.941,198.612 418.5,194.5C 419.473,196.068 419.64,197.735 419,199.5C 416.736,205.972 413.903,212.139 410.5,218C 409.391,218.638 408.225,219.138 407,219.5C 402.707,218.458 398.541,217.124 394.5,215.5C 396.16,208.842 397.827,202.175 399.5,195.5C 404.388,194.057 409.055,192.057 413.5,189.5 Z"/></g>
<g><path style="opacity:1" fill="#97898d" d="M 214.5,195.5 C 215.473,197.948 215.806,200.615 215.5,203.5C 216.833,203.5 218.167,203.5 219.5,203.5C 219.784,205.415 219.451,207.081 218.5,208.5C 218.5,207.167 218.5,205.833 218.5,204.5C 217.5,204.5 216.5,204.5 215.5,204.5C 215.5,205.833 215.5,207.167 215.5,208.5C 214.566,207.432 214.232,206.099 214.5,204.5C 213.167,204.5 211.833,204.5 210.5,204.5C 209.167,204.5 207.833,204.5 206.5,204.5C 206.5,205.833 206.5,207.167 206.5,208.5C 205.549,207.081 205.216,205.415 205.5,203.5C 207.167,203.5 208.833,203.5 210.5,203.5C 211.833,203.5 213.167,203.5 214.5,203.5C 214.5,200.833 214.5,198.167 214.5,195.5 Z"/></g>
<g><path style="opacity:1" fill="#5e478b" d="M 142.5,197.5 C 143.473,199.948 143.806,202.615 143.5,205.5C 143.167,205.5 142.833,205.5 142.5,205.5C 142.672,204.508 142.338,203.842 141.5,203.5C 142.11,202.609 142.443,201.609 142.5,200.5C 142.5,200.167 142.5,199.833 142.5,199.5C 142.5,198.833 142.5,198.167 142.5,197.5 Z"/></g>
<g><path style="opacity:1" fill="#be64a8" d="M 165.5,204.5 C 164.542,204.047 163.708,203.381 163,202.5C 161.857,206.794 161.023,211.127 160.5,215.5C 158.96,217.838 158.294,220.505 158.5,223.5C 157.662,223.158 157.328,222.492 157.5,221.5C 158.518,214.04 160.185,206.706 162.5,199.5C 163.952,200.94 164.952,202.606 165.5,204.5 Z"/></g>
<g><path style="opacity:1" fill="#140a0c" d="M 210.5,204.5 C 210.5,205.833 210.5,207.167 210.5,208.5C 209.167,208.5 207.833,208.5 206.5,208.5C 206.5,207.167 206.5,205.833 206.5,204.5C 207.833,204.5 209.167,204.5 210.5,204.5 Z"/></g>
<g><path style="opacity:1" fill="#221773" d="M 354.5,177.5 C 355.573,178.251 355.74,179.251 355,180.5C 352.092,187.946 348.925,195.279 345.5,202.5C 348.093,207.259 351.26,211.592 355,215.5C 355.688,216.332 355.521,216.998 354.5,217.5C 352.039,216.013 349.705,214.346 347.5,212.5C 345.06,209.063 343.06,205.397 341.5,201.5C 346.067,195.17 349.233,188.17 351,180.5C 352.729,180.026 353.895,179.026 354.5,177.5 Z"/></g>
<g><path style="opacity:1" fill="#120809" d="M 218.5,208.5 C 217.5,208.5 216.5,208.5 215.5,208.5C 215.5,207.167 215.5,205.833 215.5,204.5C 216.5,204.5 217.5,204.5 218.5,204.5C 218.5,205.833 218.5,207.167 218.5,208.5 Z"/></g>
<g><path style="opacity:1" fill="#311a29" d="M 141.5,203.5 C 142.338,203.842 142.672,204.508 142.5,205.5C 137.841,207.569 133.175,207.903 128.5,206.5C 129.492,206.672 130.158,206.338 130.5,205.5C 132.924,205.808 135.257,205.474 137.5,204.5C 136.271,203.719 134.938,203.219 133.5,203C 136.192,202.57 138.859,202.737 141.5,203.5 Z"/></g>
<g><path style="opacity:1" fill="#5c4aca" d="M 142.5,205.5 C 142.833,205.5 143.167,205.5 143.5,205.5C 143.5,206.5 143.5,207.5 143.5,208.5C 137.409,208.211 131.409,208.545 125.5,209.5C 125.5,207.5 126.5,206.5 128.5,206.5C 133.175,207.903 137.841,207.569 142.5,205.5 Z"/></g>
<g><path style="opacity:1" fill="#e1687c" d="M 165.5,204.5 C 165.5,204.833 165.5,205.167 165.5,205.5C 166.623,207.518 166.623,209.518 165.5,211.5C 166.391,212.59 167.391,212.59 168.5,211.5C 168.833,212.333 169.167,213.167 169.5,214C 168.439,216.031 167.105,217.864 165.5,219.5C 165.608,220.442 165.941,221.275 166.5,222C 164.512,222.18 162.512,222.014 160.5,221.5C 160.5,219.5 160.5,217.5 160.5,215.5C 161.023,211.127 161.857,206.794 163,202.5C 163.708,203.381 164.542,204.047 165.5,204.5 Z"/></g>
<g><path style="opacity:1" fill="#7f50d3" d="M 177.5,195.5 C 178.167,195.833 178.833,196.167 179.5,196.5C 181.844,200.577 184.177,204.577 186.5,208.5C 187.03,210.924 187.864,213.257 189,215.5C 189.801,218.367 189.634,221.034 188.5,223.5C 188.649,220.393 188.149,217.393 187,214.5C 183.65,208.194 180.483,201.861 177.5,195.5 Z"/></g>
<g><path style="opacity:1" fill="#c79abd" d="M 117.5,205.5 C 118.291,207.443 119.791,208.443 122,208.5C 124.247,206.074 127.08,205.074 130.5,205.5C 130.158,206.338 129.492,206.672 128.5,206.5C 126.5,206.5 125.5,207.5 125.5,209.5C 124.508,209.328 123.842,209.662 123.5,210.5C 119.651,210.981 117.651,209.314 117.5,205.5 Z"/></g>
<g><path style="opacity:1" fill="#120b0c" d="M 240.5,191.5 C 240.5,198.5 240.5,205.5 240.5,212.5C 241.833,212.5 243.167,212.5 244.5,212.5C 244.5,213.833 244.5,215.167 244.5,216.5C 241.833,216.5 239.167,216.5 236.5,216.5C 235.167,216.5 233.833,216.5 232.5,216.5C 232.5,213.833 232.5,211.167 232.5,208.5C 230.833,208.5 229.167,208.5 227.5,208.5C 227.5,204.167 227.5,199.833 227.5,195.5C 228.833,195.5 230.167,195.5 231.5,195.5C 232.473,193.052 232.806,190.385 232.5,187.5C 236.5,187.5 240.5,187.5 244.5,187.5C 244.5,188.5 244.5,189.5 244.5,190.5C 242.901,190.232 241.568,190.566 240.5,191.5 Z"/></g>
<g><path style="opacity:0.004" fill="#fefffe" d="M 460.5,208.5 C 461.833,209.167 461.833,209.167 460.5,208.5 Z"/></g>
<g><path style="opacity:1" fill="#6456d3" d="M 116.5,199.5 C 116.205,201.735 116.539,203.735 117.5,205.5C 117.651,209.314 119.651,210.981 123.5,210.5C 122.791,211.404 121.791,211.737 120.5,211.5C 120.5,212.5 120.5,213.5 120.5,214.5C 119.777,212.787 118.443,211.787 116.5,211.5C 114.865,212.046 113.199,212.38 111.5,212.5C 112.552,210.744 114.219,210.077 116.5,210.5C 116.604,207.91 115.937,205.577 114.5,203.5C 114.668,201.829 115.335,200.496 116.5,199.5 Z"/></g>
<g><path style="opacity:1" fill="#45393b" d="M 206.5,213.5 C 206.5,213.167 206.5,212.833 206.5,212.5C 213.687,212.175 220.687,212.509 227.5,213.5C 224.833,213.5 222.167,213.5 219.5,213.5C 219.5,214.5 219.5,215.5 219.5,216.5C 221.099,216.232 222.432,216.566 223.5,217.5C 219.167,217.5 214.833,217.5 210.5,217.5C 212.948,216.527 215.615,216.194 218.5,216.5C 218.5,215.5 218.5,214.5 218.5,213.5C 214.5,213.5 210.5,213.5 206.5,213.5 Z"/></g>
<g><path style="opacity:1" fill="#2b1c7f" d="M 380.5,183.5 C 381.165,185.369 381.831,187.369 382.5,189.5C 385.016,190.33 387.35,191.33 389.5,192.5C 392.968,193.101 396.301,194.101 399.5,195.5C 397.827,202.175 396.16,208.842 394.5,215.5C 390.429,214.816 386.429,213.816 382.5,212.5C 381.832,214.969 381.165,217.302 380.5,219.5C 380.894,215.776 380.227,212.276 378.5,209C 379.833,202.333 379.833,195.667 378.5,189C 379.885,187.403 380.551,185.57 380.5,183.5 Z"/></g>
<g><path style="opacity:1" fill="#2d1d94" d="M 389.5,192.5 C 392.067,193.745 394.401,195.412 396.5,197.5C 395.975,198.192 395.308,198.692 394.5,199C 395.423,201.041 395.756,203.208 395.5,205.5C 391.5,205.5 389.5,207.5 389.5,211.5C 387.712,211.785 386.045,211.452 384.5,210.5C 384.833,209.833 385.167,209.167 385.5,208.5C 383.503,204.749 383.003,200.749 384,196.5C 384.741,195.359 385.575,195.359 386.5,196.5C 387.386,195.675 387.719,194.675 387.5,193.5C 386.127,193.657 384.793,193.49 383.5,193C 385.473,192.505 387.473,192.338 389.5,192.5 Z"/></g>
<g><path style="opacity:1" fill="#f1ecee" d="M 257.5,212.5 C 257.5,213.833 257.5,215.167 257.5,216.5C 256.167,216.5 254.833,216.5 253.5,216.5C 253.5,215.167 253.5,213.833 253.5,212.5C 254.833,212.5 256.167,212.5 257.5,212.5 Z"/></g>
<g><path style="opacity:1" fill="#5c52e0" d="M 111.5,212.5 C 104.384,215.6 97.0503,218.433 89.5,221C 86.3035,221.805 83.3035,221.638 80.5,220.5C 83.1667,220.5 85.8333,220.5 88.5,220.5C 88.2148,218.712 88.5481,217.045 89.5,215.5C 90.6113,216.611 91.9446,217.278 93.5,217.5C 99.1822,214.83 105.182,213.163 111.5,212.5 Z"/></g>
<g><path style="opacity:1" fill="#4d4648" d="M 244.5,212.5 C 245.434,213.568 245.768,214.901 245.5,216.5C 246.833,216.5 248.167,216.5 249.5,216.5C 245.366,217.485 241.032,217.818 236.5,217.5C 236.5,217.167 236.5,216.833 236.5,216.5C 239.167,216.5 241.833,216.5 244.5,216.5C 244.5,215.167 244.5,213.833 244.5,212.5 Z"/></g>
<g><path style="opacity:1" fill="#676062" d="M 257.5,208.5 C 258.434,209.568 258.768,210.901 258.5,212.5C 258.5,213.833 258.5,215.167 258.5,216.5C 261.167,216.5 263.833,216.5 266.5,216.5C 270.167,216.5 273.833,216.5 277.5,216.5C 277.784,218.415 277.451,220.081 276.5,221.5C 276.5,220.167 276.5,218.833 276.5,217.5C 268.648,217.825 260.982,217.492 253.5,216.5C 254.833,216.5 256.167,216.5 257.5,216.5C 257.5,215.167 257.5,213.833 257.5,212.5C 257.5,211.167 257.5,209.833 257.5,208.5 Z"/></g>
<g><path style="opacity:1" fill="#928486" d="M 283.5,212.5 C 284.434,213.568 284.768,214.901 284.5,216.5C 285.833,216.5 287.167,216.5 288.5,216.5C 289.833,216.5 291.167,216.5 292.5,216.5C 291.432,217.434 290.099,217.768 288.5,217.5C 287.167,217.5 285.833,217.5 284.5,217.5C 284.5,218.833 284.5,220.167 284.5,221.5C 283.566,220.432 283.232,219.099 283.5,217.5C 281.901,217.768 280.568,217.434 279.5,216.5C 280.833,216.5 282.167,216.5 283.5,216.5C 283.5,215.167 283.5,213.833 283.5,212.5 Z"/></g>
<g><path style="opacity:0.004" fill="#fefffe" d="M 433.5,216.5 C 434.833,217.167 434.833,217.167 433.5,216.5 Z"/></g>
<g><path style="opacity:1" fill="#050202" d="M 257.5,208.5 C 257.5,209.833 257.5,211.167 257.5,212.5C 256.167,212.5 254.833,212.5 253.5,212.5C 253.5,213.833 253.5,215.167 253.5,216.5C 260.982,217.492 268.648,217.825 276.5,217.5C 276.5,218.833 276.5,220.167 276.5,221.5C 268.833,221.5 261.167,221.5 253.5,221.5C 253.5,222.833 253.5,224.167 253.5,225.5C 265.167,225.5 276.833,225.5 288.5,225.5C 288.5,224.167 288.5,222.833 288.5,221.5C 289.833,221.5 291.167,221.5 292.5,221.5C 292.5,225.833 292.5,230.167 292.5,234.5C 291.167,234.5 289.833,234.5 288.5,234.5C 288.5,233.167 288.5,231.833 288.5,230.5C 275.677,229.505 262.677,229.171 249.5,229.5C 249.5,226.833 249.5,224.167 249.5,221.5C 245.167,221.5 240.833,221.5 236.5,221.5C 236.5,220.167 236.5,218.833 236.5,217.5C 241.032,217.818 245.366,217.485 249.5,216.5C 249.5,213.833 249.5,211.167 249.5,208.5C 252.167,208.5 254.833,208.5 257.5,208.5 Z"/></g>
<g><path style="opacity:1" fill="#191212" d="M 288.5,217.5 C 288.5,218.833 288.5,220.167 288.5,221.5C 287.167,221.5 285.833,221.5 284.5,221.5C 284.5,220.167 284.5,218.833 284.5,217.5C 285.833,217.5 287.167,217.5 288.5,217.5 Z"/></g>
<g><path style="opacity:1" fill="#d26983" d="M 186.5,208.5 C 188.048,208.821 188.715,209.821 188.5,211.5C 189.5,211.5 190.5,211.5 191.5,211.5C 190.905,216.609 190.905,221.609 191.5,226.5C 192.93,226.421 194.264,226.754 195.5,227.5C 196.495,233.128 196.829,238.794 196.5,244.5C 201.695,244.179 206.695,244.513 211.5,245.5C 205.833,245.5 200.167,245.5 194.5,245.5C 194.5,239.833 194.5,234.167 194.5,228.5C 192.833,228.5 191.167,228.5 189.5,228.5C 189.5,235.833 189.5,243.167 189.5,250.5C 188.833,245.319 188.167,239.985 187.5,234.5C 186.201,233.91 185.368,232.91 185,231.5C 184.5,232 184,232.5 183.5,233C 185.037,234.11 185.703,235.61 185.5,237.5C 183.8,237.374 182.3,236.707 181,235.5C 179.019,236.65 177.186,237.984 175.5,239.5C 176.757,236.573 178.757,234.239 181.5,232.5C 184.243,230.761 186.243,228.427 187.5,225.5C 187.328,224.508 187.662,223.842 188.5,223.5C 189.634,221.034 189.801,218.367 189,215.5C 187.864,213.257 187.03,210.924 186.5,208.5 Z"/></g>
<g><path style="opacity:1" fill="#d8678e" d="M 165.5,205.5 C 167.47,207.647 169.303,209.98 171,212.5C 172.297,216.154 171.297,218.821 168,220.5C 167.751,223.177 166.751,225.51 165,227.5C 164.184,228.823 163.017,229.489 161.5,229.5C 160.5,227.5 159.5,225.5 158.5,223.5C 158.294,220.505 158.96,217.838 160.5,215.5C 160.5,217.5 160.5,219.5 160.5,221.5C 162.512,222.014 164.512,222.18 166.5,222C 165.941,221.275 165.608,220.442 165.5,219.5C 167.105,217.864 168.439,216.031 169.5,214C 169.167,213.167 168.833,212.333 168.5,211.5C 167.391,212.59 166.391,212.59 165.5,211.5C 166.623,209.518 166.623,207.518 165.5,205.5 Z"/></g>
<g><path style="opacity:1" fill="#2d1e92" d="M 157.5,221.5 C 157.328,222.492 157.662,223.158 158.5,223.5C 159.5,225.5 160.5,227.5 161.5,229.5C 162.833,230.833 162.833,232.167 161.5,233.5C 159.975,235.216 158.975,237.216 158.5,239.5C 157.387,240.946 157.22,242.613 158,244.5C 159.53,247.561 161.03,250.561 162.5,253.5C 163.952,263.869 165.786,263.869 168,253.5C 168.308,254.308 168.808,254.975 169.5,255.5C 170.137,271.68 171.137,287.68 172.5,303.5C 173.488,308.64 173.821,313.974 173.5,319.5C 173.786,343.17 174.286,366.836 175,390.5C 175.181,393.695 175.681,396.695 176.5,399.5C 176.5,399.833 176.5,400.167 176.5,400.5C 176.665,404.182 176.499,407.848 176,411.5C 175.5,412 175,412.5 174.5,413C 165.84,413.5 157.173,413.666 148.5,413.5C 147.161,384.561 146.327,355.561 146,326.5C 144.863,318.153 144.03,309.819 143.5,301.5C 142.895,287.166 141.729,272.833 140,258.5C 137.678,271.068 135.845,283.735 134.5,296.5C 133.135,299.599 132.135,302.932 131.5,306.5C 130.824,318.395 130.157,330.228 129.5,342C 130.967,343.098 131.801,344.598 132,346.5C 133.646,355.754 134.646,365.088 135,374.5C 135.278,375.416 135.778,376.082 136.5,376.5C 138.011,386.096 139.011,395.763 139.5,405.5C 139.5,408.167 139.5,410.833 139.5,413.5C 131.142,413.379 122.809,413.712 114.5,414.5C 113.77,409.115 112.437,404.115 110.5,399.5C 107.402,382.911 104.735,366.245 102.5,349.5C 100.747,337.332 100.247,324.999 101,312.5C 103.774,303.124 105.607,293.457 106.5,283.5C 107.546,281.328 108.546,279.161 109.5,277C 109.113,275.177 108.779,273.343 108.5,271.5C 110.112,266.968 110.779,262.301 110.5,257.5C 110.5,257.167 110.5,256.833 110.5,256.5C 112.382,253.746 114.049,250.746 115.5,247.5C 116.452,249.045 116.785,250.712 116.5,252.5C 117.822,252.33 118.989,252.663 120,253.5C 122.174,249.469 123.508,245.136 124,240.5C 127.258,239.446 128.092,237.446 126.5,234.5C 125.476,235.853 124.143,236.52 122.5,236.5C 122.058,240.037 121.058,243.37 119.5,246.5C 118.5,246.5 117.5,246.5 116.5,246.5C 117.851,242.613 118.851,238.613 119.5,234.5C 121.098,230.289 123.432,226.622 126.5,223.5C 136.753,222.43 147.086,221.763 157.5,221.5 Z"/></g>
<g><path style="opacity:1" fill="#f6f2f2" d="M 288.5,216.5 C 287.167,216.5 285.833,216.5 284.5,216.5C 284.768,214.901 284.434,213.568 283.5,212.5C 282.167,212.5 280.833,212.5 279.5,212.5C 279.5,213.833 279.5,215.167 279.5,216.5C 280.568,217.434 281.901,217.768 283.5,217.5C 283.232,219.099 283.566,220.432 284.5,221.5C 285.833,221.5 287.167,221.5 288.5,221.5C 288.5,222.833 288.5,224.167 288.5,225.5C 276.833,225.5 265.167,225.5 253.5,225.5C 253.5,224.167 253.5,222.833 253.5,221.5C 261.167,221.5 268.833,221.5 276.5,221.5C 277.451,220.081 277.784,218.415 277.5,216.5C 273.833,216.5 270.167,216.5 266.5,216.5C 266.5,215.167 266.5,213.833 266.5,212.5C 268.167,212.5 269.833,212.5 271.5,212.5C 271.5,209.833 271.5,207.167 271.5,204.5C 269.833,204.5 268.167,204.5 266.5,204.5C 266.5,201.5 266.5,198.5 266.5,195.5C 269.5,195.5 272.5,195.5 275.5,195.5C 275.5,192.5 275.5,189.5 275.5,186.5C 276.833,186.5 278.167,186.5 279.5,186.5C 279.5,192.5 279.5,198.5 279.5,204.5C 282.5,204.5 285.5,204.5 288.5,204.5C 288.5,208.5 288.5,212.5 288.5,216.5 Z"/></g>
<g><path style="opacity:1" fill="#161212" d="M 283.5,212.5 C 283.5,213.833 283.5,215.167 283.5,216.5C 282.167,216.5 280.833,216.5 279.5,216.5C 279.5,215.167 279.5,213.833 279.5,212.5C 280.833,212.5 282.167,212.5 283.5,212.5 Z"/></g>
<g><path style="opacity:0.004" fill="#fefffe" d="M 393.5,225.5 C 394.833,226.167 394.833,226.167 393.5,225.5 Z"/></g>
<g><path style="opacity:1" fill="#9d59b8" d="M 187.5,225.5 C 186.243,228.427 184.243,230.761 181.5,232.5C 182.757,229.573 184.757,227.239 187.5,225.5 Z"/></g>
<g><path style="opacity:0.004" fill="#fefffe" d="M 14.5,229.5 C 15.8333,230.167 15.8333,230.167 14.5,229.5 Z"/></g>
<g><path style="opacity:1" fill="#61585a" d="M 249.5,229.5 C 262.677,229.171 275.677,229.505 288.5,230.5C 287.167,230.5 285.833,230.5 284.5,230.5C 284.768,232.099 284.434,233.432 283.5,234.5C 283.5,233.167 283.5,231.833 283.5,230.5C 276.5,230.5 269.5,230.5 262.5,230.5C 261.167,230.5 259.833,230.5 258.5,230.5C 258.5,231.833 258.5,233.167 258.5,234.5C 256.833,234.5 255.167,234.5 253.5,234.5C 253.5,233.167 253.5,231.833 253.5,230.5C 252.167,230.5 250.833,230.5 249.5,230.5C 246.833,230.5 244.167,230.5 241.5,230.5C 241.5,231.5 241.5,232.5 241.5,233.5C 244.167,233.5 246.833,233.5 249.5,233.5C 246.713,234.477 243.713,234.81 240.5,234.5C 240.5,232.833 240.5,231.167 240.5,229.5C 243.5,229.5 246.5,229.5 249.5,229.5 Z"/></g>
<g><path style="opacity:1" fill="#0d0001" d="M 211.5,245.5 C 211.5,247.167 211.5,248.833 211.5,250.5C 204.167,250.5 196.833,250.5 189.5,250.5C 189.5,243.167 189.5,235.833 189.5,228.5C 191.167,228.5 192.833,228.5 194.5,228.5C 194.5,234.167 194.5,239.833 194.5,245.5C 200.167,245.5 205.833,245.5 211.5,245.5 Z"/></g>
<g><path style="opacity:1" fill="#130b0d" d="M 206.5,213.5 C 210.5,213.5 214.5,213.5 218.5,213.5C 218.5,214.5 218.5,215.5 218.5,216.5C 215.615,216.194 212.948,216.527 210.5,217.5C 210.5,221.833 210.5,226.167 210.5,230.5C 214.833,230.5 219.167,230.5 223.5,230.5C 223.5,226.167 223.5,221.833 223.5,217.5C 222.432,216.566 221.099,216.232 219.5,216.5C 219.5,215.5 219.5,214.5 219.5,213.5C 222.167,213.5 224.833,213.5 227.5,213.5C 227.5,220.5 227.5,227.5 227.5,234.5C 220.5,234.5 213.5,234.5 206.5,234.5C 206.5,227.5 206.5,220.5 206.5,213.5 Z"/></g>
<g><path style="opacity:1" fill="#f2ecec" d="M 210.5,217.5 C 214.833,217.5 219.167,217.5 223.5,217.5C 223.5,221.833 223.5,226.167 223.5,230.5C 219.167,230.5 214.833,230.5 210.5,230.5C 210.5,226.167 210.5,221.833 210.5,217.5 Z"/></g>
<g><path style="opacity:1" fill="#5a5254" d="M 214.5,221.5 C 215.919,220.549 217.585,220.216 219.5,220.5C 219.5,222.5 219.5,224.5 219.5,226.5C 217.585,226.784 215.919,226.451 214.5,225.5C 215.833,225.5 217.167,225.5 218.5,225.5C 218.5,224.167 218.5,222.833 218.5,221.5C 217.167,221.5 215.833,221.5 214.5,221.5 Z"/></g>
<g><path style="opacity:1" fill="#030101" d="M 214.5,221.5 C 215.833,221.5 217.167,221.5 218.5,221.5C 218.5,222.833 218.5,224.167 218.5,225.5C 217.167,225.5 215.833,225.5 214.5,225.5C 214.5,224.167 214.5,222.833 214.5,221.5 Z"/></g>
<g><path style="opacity:1" fill="#0f0607" d="M 249.5,230.5 C 249.5,231.5 249.5,232.5 249.5,233.5C 246.833,233.5 244.167,233.5 241.5,233.5C 241.5,232.5 241.5,231.5 241.5,230.5C 244.167,230.5 246.833,230.5 249.5,230.5 Z"/></g>
<g><path style="opacity:1" fill="#030000" d="M 254.5,230.5 C 255.5,230.5 256.5,230.5 257.5,230.5C 257.5,231.5 257.5,232.5 257.5,233.5C 256.5,233.5 255.5,233.5 254.5,233.5C 254.5,232.5 254.5,231.5 254.5,230.5 Z"/></g>
<g><path style="opacity:1" fill="#221b1b" d="M 262.5,230.5 C 269.5,230.5 276.5,230.5 283.5,230.5C 283.5,231.833 283.5,233.167 283.5,234.5C 276.5,234.5 269.5,234.5 262.5,234.5C 262.5,233.167 262.5,231.833 262.5,230.5 Z"/></g>
<g><path style="opacity:1" fill="#f98599" d="M 315.5,223.5 C 321.809,228.987 328.476,233.987 335.5,238.5C 335.26,244.227 335.593,249.894 336.5,255.5C 336.5,256.833 336.5,258.167 336.5,259.5C 337.427,273.137 337.76,286.804 337.5,300.5C 311.17,289.264 286.17,291.597 262.5,307.5C 261.476,308.852 260.476,310.185 259.5,311.5C 247.167,311.5 234.833,311.5 222.5,311.5C 222.5,312.5 222.5,313.5 222.5,314.5C 220.61,314.297 219.11,314.963 218,316.5C 217.333,320.833 217.333,325.167 218,329.5C 218.748,331.751 220.248,333.084 222.5,333.5C 223.833,333.833 225.167,334.167 226.5,334.5C 231.316,335.326 236.316,335.826 241.5,336C 234.936,353.642 234.936,371.309 241.5,389C 268.498,389.5 295.498,389.667 322.5,389.5C 274.336,390.499 226.003,390.832 177.5,390.5C 177.5,390.167 177.5,389.833 177.5,389.5C 177.07,365.986 176.07,342.653 174.5,319.5C 174.5,310.5 174.5,301.5 174.5,292.5C 209.82,290.529 233.486,273.029 245.5,240C 230.661,239.831 215.994,239.331 201.5,238.5C 205.833,238.5 210.167,238.5 214.5,238.5C 241.833,238.5 269.167,238.5 296.5,238.5C 297.167,238.167 297.833,237.833 298.5,237.5C 299.833,237.5 301.167,237.5 302.5,237.5C 302.5,239.833 302.5,242.167 302.5,244.5C 296.605,244.785 290.939,244.285 285.5,243C 281.633,246.249 281.633,249.582 285.5,253C 293.601,252.891 301.601,252.391 309.5,251.5C 309.5,251.167 309.5,250.833 309.5,250.5C 310.207,241.594 311.207,232.594 312.5,223.5C 313.5,223.5 314.5,223.5 315.5,223.5 Z"/></g>
<g><path style="opacity:1" fill="#e2687d" d="M 189.5,149.5 C 189.5,150.833 189.5,152.167 189.5,153.5C 191.167,153.5 192.833,153.5 194.5,153.5C 196.075,151.214 198.075,150.881 200.5,152.5C 200.833,152.5 201.167,152.5 201.5,152.5C 201.5,181.167 201.5,209.833 201.5,238.5C 215.994,239.331 230.661,239.831 245.5,240C 233.486,273.029 209.82,290.529 174.5,292.5C 174.179,281.252 174.513,270.085 175.5,259C 173.043,257.488 173.043,256.154 175.5,255C 173.903,252.974 172.903,250.641 172.5,248C 174.434,245.498 175.434,242.664 175.5,239.5C 177.186,237.984 179.019,236.65 181,235.5C 182.3,236.707 183.8,237.374 185.5,237.5C 185.703,235.61 185.037,234.11 183.5,233C 184,232.5 184.5,232 185,231.5C 185.368,232.91 186.201,233.91 187.5,234.5C 188.167,239.985 188.833,245.319 189.5,250.5C 196.833,250.5 204.167,250.5 211.5,250.5C 211.5,248.833 211.5,247.167 211.5,245.5C 206.695,244.513 201.695,244.179 196.5,244.5C 196.829,238.794 196.495,233.128 195.5,227.5C 194.264,226.754 192.93,226.421 191.5,226.5C 190.905,221.609 190.905,216.609 191.5,211.5C 190.5,211.5 189.5,211.5 188.5,211.5C 188.715,209.821 188.048,208.821 186.5,208.5C 184.177,204.577 181.844,200.577 179.5,196.5C 179.02,192.2 177.02,188.867 173.5,186.5C 172.833,184.5 172.167,182.5 171.5,180.5C 171.921,176.925 172.088,173.259 172,169.5C 175.122,163.104 175.955,156.438 174.5,149.5C 179.4,148.2 184.4,148.2 189.5,149.5 Z"/></g>
<g><path style="opacity:1" fill="#d4a19a" d="M 161.5,233.5 C 164.167,236.833 166.833,240.167 169.5,243.5C 169.567,244.959 169.234,246.292 168.5,247.5C 167.109,249.96 165.942,252.626 165,255.5C 164.283,254.956 163.783,254.289 163.5,253.5C 161.833,248.833 160.167,244.167 158.5,239.5C 158.975,237.216 159.975,235.216 161.5,233.5 Z"/></g>
<g><path style="opacity:1" fill="#291645" d="M 158.5,239.5 C 160.167,244.167 161.833,248.833 163.5,253.5C 163.167,253.5 162.833,253.5 162.5,253.5C 161.03,250.561 159.53,247.561 158,244.5C 157.22,242.613 157.387,240.946 158.5,239.5 Z"/></g>
<g><path style="opacity:1" fill="#281d7b" d="M 119.5,234.5 C 118.851,238.613 117.851,242.613 116.5,246.5C 117.5,246.5 118.5,246.5 119.5,246.5C 121.058,243.37 122.058,240.037 122.5,236.5C 124.143,236.52 125.476,235.853 126.5,234.5C 128.092,237.446 127.258,239.446 124,240.5C 123.508,245.136 122.174,249.469 120,253.5C 118.989,252.663 117.822,252.33 116.5,252.5C 116.785,250.712 116.452,249.045 115.5,247.5C 114.049,250.746 112.382,253.746 110.5,256.5C 112.435,248.643 115.435,241.31 119.5,234.5 Z"/></g>
<g><path style="opacity:1" fill="#5c50f2" d="M 379.5,225.5 C 386.831,245.496 394.164,265.496 401.5,285.5C 398.304,281.423 396.138,276.756 395,271.5C 394.667,271.167 394.333,270.833 394,270.5C 393.784,272.384 393.117,274.051 392,275.5C 389.989,271.347 387.823,267.347 385.5,263.5C 382.612,263.78 381.112,262.447 381,259.5C 380.503,262.146 380.336,264.813 380.5,267.5C 384.099,267.262 384.433,268.262 381.5,270.5C 383.919,273.026 383.253,274.86 379.5,276C 377.41,276.268 376.076,275.268 375.5,273C 376.337,271.989 376.67,270.822 376.5,269.5C 375.167,269.5 373.833,269.5 372.5,269.5C 372.5,268.5 372.5,267.5 372.5,266.5C 369.036,267.91 365.703,267.577 362.5,265.5C 361.155,266.347 360.155,267.513 359.5,269C 355.911,268.71 354.411,270.21 355,273.5C 358.877,278.62 361.71,284.287 363.5,290.5C 362.833,290.167 362.167,289.833 361.5,289.5C 360.258,285.345 358.258,281.678 355.5,278.5C 354.303,274.749 352.803,271.082 351,267.5C 348.521,265.686 346.021,264.019 343.5,262.5C 342.329,261.655 340.995,260.989 339.5,260.5C 339.167,259.833 338.833,259.167 338.5,258.5C 342.72,259.943 346.72,261.943 350.5,264.5C 352.712,260.89 353.712,261.557 353.5,266.5C 355.989,266.702 358.323,266.202 360.5,265C 358.203,263.737 357.37,261.903 358,259.5C 360.354,261.58 362.854,263.08 365.5,264C 365.957,263.586 366.291,263.086 366.5,262.5C 365.388,261.735 364.721,260.735 364.5,259.5C 365.391,260.11 366.391,260.443 367.5,260.5C 370.271,262.767 372.938,265.267 375.5,268C 376.437,268.692 377.103,268.525 377.5,267.5C 378.162,265.696 378.495,263.696 378.5,261.5C 378.154,253.271 377.154,245.271 375.5,237.5C 373.967,235.755 371.967,234.755 369.5,234.5C 368.969,232.456 367.802,230.789 366,229.5C 365.51,228.207 365.343,226.873 365.5,225.5C 370.167,225.5 374.833,225.5 379.5,225.5 Z"/></g>
<g><path style="opacity:1" fill="#69363d" d="M 309.5,250.5 C 309.5,250.833 309.5,251.167 309.5,251.5C 301.833,251.5 294.167,251.5 286.5,251.5C 286.5,249.5 286.5,247.5 286.5,245.5C 292.167,245.5 297.833,245.5 303.5,245.5C 303.5,239.833 303.5,234.167 303.5,228.5C 305.5,228.5 307.5,228.5 309.5,228.5C 309.5,235.833 309.5,243.167 309.5,250.5 Z"/></g>
<g><path style="opacity:1" fill="#090000" d="M 303.5,245.5 C 304.488,240.36 304.821,235.026 304.5,229.5C 305.833,229.5 307.167,229.5 308.5,229.5C 308.5,236.5 308.5,243.5 308.5,250.5C 301.5,250.5 294.5,250.5 287.5,250.5C 287.5,249.167 287.5,247.833 287.5,246.5C 293.026,246.821 298.36,246.488 303.5,245.5 Z"/></g>
<g><path style="opacity:1" fill="#2c1b5d" d="M 375.5,237.5 C 377.154,245.271 378.154,253.271 378.5,261.5C 378.495,263.696 378.162,265.696 377.5,267.5C 376.773,257.504 376.106,247.504 375.5,237.5 Z"/></g>
<g><path style="opacity:1" fill="#cd9f9f" d="M 369.5,234.5 C 371.967,234.755 373.967,235.755 375.5,237.5C 376.106,247.504 376.773,257.504 377.5,267.5C 377.103,268.525 376.437,268.692 375.5,268C 372.938,265.267 370.271,262.767 367.5,260.5C 369.094,260.92 370.594,261.586 372,262.5C 372.945,262.095 373.612,261.428 374,260.5C 374.831,253.144 374.665,245.811 373.5,238.5C 371.781,235.952 370.448,236.285 369.5,239.5C 368.763,243.818 367.429,247.818 365.5,251.5C 365.884,245.476 367.217,239.81 369.5,234.5 Z"/></g>
<g><path style="opacity:1" fill="#5d4ff8" d="M 335.5,238.5 C 345.381,245.267 355.048,252.267 364.5,259.5C 364.721,260.735 365.388,261.735 366.5,262.5C 366.291,263.086 365.957,263.586 365.5,264C 362.854,263.08 360.354,261.58 358,259.5C 357.37,261.903 358.203,263.737 360.5,265C 358.323,266.202 355.989,266.702 353.5,266.5C 353.712,261.557 352.712,260.89 350.5,264.5C 346.72,261.943 342.72,259.943 338.5,258.5C 337.833,257.5 337.167,256.5 336.5,255.5C 335.593,249.894 335.26,244.227 335.5,238.5 Z"/></g>
<g><path style="opacity:1" fill="#dea78e" d="M 367.5,260.5 C 365.919,258.858 365.253,256.858 365.5,254.5C 365.5,253.5 365.5,252.5 365.5,251.5C 367.429,247.818 368.763,243.818 369.5,239.5C 370.448,236.285 371.781,235.952 373.5,238.5C 374.665,245.811 374.831,253.144 374,260.5C 373.612,261.428 372.945,262.095 372,262.5C 370.594,261.586 369.094,260.92 367.5,260.5 Z"/></g>
<g><path style="opacity:1" fill="#bd97c9" d="M 365.5,254.5 C 365.253,256.858 365.919,258.858 367.5,260.5C 366.391,260.443 365.391,260.11 364.5,259.5C 364.216,257.585 364.549,255.919 365.5,254.5 Z"/></g>
<g><path style="opacity:1" fill="#231c92" d="M 343.5,262.5 C 346.021,264.019 348.521,265.686 351,267.5C 352.803,271.082 354.303,274.749 355.5,278.5C 353.252,275.672 351.252,272.672 349.5,269.5C 349.586,268.504 349.252,267.671 348.5,267C 346.004,265.92 343.67,264.586 341.5,263C 342.094,262.536 342.761,262.369 343.5,262.5 Z"/></g>
<g><path style="opacity:1" fill="#5b4ffb" d="M 401.5,285.5 C 406.568,296.038 410.235,307.038 412.5,318.5C 410.884,334.46 409.55,350.46 408.5,366.5C 408.5,366.833 408.5,367.167 408.5,367.5C 407.252,368.334 406.585,369.667 406.5,371.5C 404.948,381.441 404.281,391.441 404.5,401.5C 402.598,404.337 401.931,407.671 402.5,411.5C 395.167,411.5 387.833,411.5 380.5,411.5C 380.833,382.159 380.5,352.826 379.5,323.5C 378.817,323.137 378.15,322.804 377.5,322.5C 375.796,319.744 374.463,316.744 373.5,313.5C 373.594,305.951 370.927,299.618 365.5,294.5C 364.4,293.395 363.733,292.062 363.5,290.5C 361.71,284.287 358.877,278.62 355,273.5C 354.411,270.21 355.911,268.71 359.5,269C 360.155,267.513 361.155,266.347 362.5,265.5C 365.703,267.577 369.036,267.91 372.5,266.5C 372.5,267.5 372.5,268.5 372.5,269.5C 373.833,269.5 375.167,269.5 376.5,269.5C 376.67,270.822 376.337,271.989 375.5,273C 376.076,275.268 377.41,276.268 379.5,276C 383.253,274.86 383.919,273.026 381.5,270.5C 384.433,268.262 384.099,267.262 380.5,267.5C 380.336,264.813 380.503,262.146 381,259.5C 381.112,262.447 382.612,263.78 385.5,263.5C 387.823,267.347 389.989,271.347 392,275.5C 393.117,274.051 393.784,272.384 394,270.5C 394.333,270.833 394.667,271.167 395,271.5C 396.138,276.756 398.304,281.423 401.5,285.5 Z"/></g>
<g><path style="opacity:0.004" fill="#fefffe" d="M 426.5,268.5 C 427.833,269.167 427.833,269.167 426.5,268.5 Z"/></g>
<g><path style="opacity:1" fill="#5b4ffb" d="M 349.5,269.5 C 351.252,272.672 353.252,275.672 355.5,278.5C 355.238,279.978 355.571,281.311 356.5,282.5C 357.943,285.077 359.61,287.41 361.5,289.5C 361.5,290.167 361.5,290.833 361.5,291.5C 361.447,294.14 360.78,296.64 359.5,299C 360.434,302.154 361.101,301.988 361.5,298.5C 362.5,298.5 363.5,298.5 364.5,298.5C 365.366,301.167 366.366,303.833 367.5,306.5C 367.833,312 368.167,317.5 368.5,323C 367.123,350.177 365.789,377.344 364.5,404.5C 364.5,404.833 364.5,405.167 364.5,405.5C 364.167,405.5 363.833,405.5 363.5,405.5C 362.549,406.919 362.216,408.585 362.5,410.5C 355.167,410.5 347.833,410.5 340.5,410.5C 340.5,362.833 340.5,315.167 340.5,267.5C 341.93,267.579 343.264,267.246 344.5,266.5C 346.029,267.763 347.695,268.763 349.5,269.5 Z"/></g>
<g><path style="opacity:1" fill="#3f1c7e" d="M 168.5,247.5 C 170.417,250.804 171.584,254.471 172,258.5C 172.5,273.496 172.667,288.496 172.5,303.5C 171.137,287.68 170.137,271.68 169.5,255.5C 168.808,254.975 168.308,254.308 168,253.5C 165.786,263.869 163.952,263.869 162.5,253.5C 162.833,253.5 163.167,253.5 163.5,253.5C 163.783,254.289 164.283,254.956 165,255.5C 165.942,252.626 167.109,249.96 168.5,247.5 Z"/></g>
<g><path style="opacity:1" fill="#cd6994" d="M 175.5,239.5 C 175.434,242.664 174.434,245.498 172.5,248C 172.903,250.641 173.903,252.974 175.5,255C 173.043,256.154 173.043,257.488 175.5,259C 174.513,270.085 174.179,281.252 174.5,292.5C 174.5,301.5 174.5,310.5 174.5,319.5C 174.167,319.5 173.833,319.5 173.5,319.5C 173.821,313.974 173.488,308.64 172.5,303.5C 172.667,288.496 172.5,273.496 172,258.5C 171.584,254.471 170.417,250.804 168.5,247.5C 169.234,246.292 169.567,244.959 169.5,243.5C 171.5,242.167 173.5,240.833 175.5,239.5 Z"/></g>
<g><path style="opacity:0.004" fill="#fefffe" d="M 445.5,282.5 C 446.833,283.167 446.833,283.167 445.5,282.5 Z"/></g>
<g><path style="opacity:1" fill="#231b92" d="M 355.5,278.5 C 358.258,281.678 360.258,285.345 361.5,289.5C 359.61,287.41 357.943,285.077 356.5,282.5C 355.571,281.311 355.238,279.978 355.5,278.5 Z"/></g>
<g><path style="opacity:1" fill="#e2677d" d="M 337.5,300.5 C 337.5,327.167 337.5,353.833 337.5,380.5C 337.167,381.167 336.833,381.833 336.5,382.5C 333.129,385.854 329.129,388.187 324.5,389.5C 323.833,389.5 323.167,389.5 322.5,389.5C 295.498,389.667 268.498,389.5 241.5,389C 234.936,371.309 234.936,353.642 241.5,336C 236.316,335.826 231.316,335.326 226.5,334.5C 243.201,334.79 259.868,334.457 276.5,333.5C 281.209,332.429 283.209,329.429 282.5,324.5C 283.157,318.646 280.824,314.48 275.5,312C 270.177,311.501 264.844,311.334 259.5,311.5C 260.476,310.185 261.476,308.852 262.5,307.5C 286.17,291.597 311.17,289.264 337.5,300.5 Z"/></g>
<g><path style="opacity:1" fill="#231c8c" d="M 361.5,289.5 C 362.167,289.833 362.833,290.167 363.5,290.5C 363.733,292.062 364.4,293.395 365.5,294.5C 366.35,296.494 366.85,298.494 367,300.5C 365.141,297.436 363.308,294.436 361.5,291.5C 361.5,290.833 361.5,290.167 361.5,289.5 Z"/></g>
<g><path style="opacity:0.004" fill="#fefffe" d="M 82.5,296.5 C 83.8333,297.167 83.8333,297.167 82.5,296.5 Z"/></g>
<g><path style="opacity:0.004" fill="#fefffe" d="M 71.5,300.5 C 72.8333,301.167 72.8333,301.167 71.5,300.5 Z"/></g>
<g><path style="opacity:1" fill="#594eda" d="M 361.5,291.5 C 363.308,294.436 365.141,297.436 367,300.5C 366.85,298.494 366.35,296.494 365.5,294.5C 370.927,299.618 373.594,305.951 373.5,313.5C 372.59,311.981 371.757,310.315 371,308.5C 369.239,340.683 367.073,372.683 364.5,404.5C 365.789,377.344 367.123,350.177 368.5,323C 368.167,317.5 367.833,312 367.5,306.5C 366.366,303.833 365.366,301.167 364.5,298.5C 363.5,298.5 362.5,298.5 361.5,298.5C 361.101,301.988 360.434,302.154 359.5,299C 360.78,296.64 361.447,294.14 361.5,291.5 Z"/></g>
<g><path style="opacity:1" fill="#d472a7" d="M 336.5,259.5 C 337.268,260.263 337.768,261.263 338,262.5C 338.5,301.499 338.667,340.499 338.5,379.5C 338.5,379.833 338.5,380.167 338.5,380.5C 338.167,380.5 337.833,380.5 337.5,380.5C 337.5,353.833 337.5,327.167 337.5,300.5C 337.76,286.804 337.427,273.137 336.5,259.5 Z"/></g>
<g><path style="opacity:1" fill="#0c0505" d="M 276.5,333.5 C 259.868,334.457 243.201,334.79 226.5,334.5C 225.167,334.167 223.833,333.833 222.5,333.5C 218.726,329.228 217.559,324.228 219,318.5C 220.032,316.973 221.199,315.64 222.5,314.5C 223.473,314.013 224.473,313.513 225.5,313C 233.333,312.833 241.167,312.667 249,312.5C 257.905,312.376 266.738,312.876 275.5,314C 283.06,320.098 283.393,326.598 276.5,333.5 Z"/></g>
<g><path style="opacity:1" fill="#d07788" d="M 259.5,311.5 C 264.844,311.334 270.177,311.501 275.5,312C 280.824,314.48 283.157,318.646 282.5,324.5C 283.209,329.429 281.209,332.429 276.5,333.5C 283.393,326.598 283.06,320.098 275.5,314C 266.738,312.876 257.905,312.376 249,312.5C 241.167,312.667 233.333,312.833 225.5,313C 224.473,313.513 223.473,314.013 222.5,314.5C 222.5,313.5 222.5,312.5 222.5,311.5C 234.833,311.5 247.167,311.5 259.5,311.5 Z"/></g>
<g><path style="opacity:1" fill="#ebecec" d="M 261.5,323.5 C 262.117,323.611 262.617,323.944 263,324.5C 263.333,322.5 263.667,320.5 264,318.5C 264.821,321.554 264.655,324.554 263.5,327.5C 262.295,326.423 261.628,325.09 261.5,323.5 Z"/></g>
<g><path style="opacity:0.004" fill="#fefffe" d="M 25.5,319.5 C 26.8333,320.167 26.8333,320.167 25.5,319.5 Z"/></g>
<g><path style="opacity:1" fill="#d0d1d1" d="M 250.5,318.5 C 251.496,318.414 252.329,318.748 253,319.5C 254.513,322.024 255.18,324.691 255,327.5C 254.196,326.196 253.029,325.529 251.5,325.5C 250.164,326.423 248.83,326.923 247.5,327C 248.929,324.31 249.929,321.477 250.5,318.5 Z"/></g>
<g><path style="opacity:1" fill="#2d2282" d="M 110.5,257.5 C 110.779,262.301 110.112,266.968 108.5,271.5C 108.779,273.343 109.113,275.177 109.5,277C 108.546,279.161 107.546,281.328 106.5,283.5C 105.607,293.457 103.774,303.124 101,312.5C 100.247,324.999 100.747,337.332 102.5,349.5C 99.6189,339.139 98.4522,328.472 99,317.5C 102.099,297.221 105.932,277.221 110.5,257.5 Z"/></g>
<g><path style="opacity:1" fill="#c5c6c6" d="M 232.5,318.5 C 234.288,318.215 235.955,318.548 237.5,319.5C 235.86,319.153 234.193,319.653 232.5,321C 233.891,322.02 235.391,322.853 237,323.5C 237.684,324.784 237.517,325.951 236.5,327C 234.741,327.798 233.074,327.631 231.5,326.5C 233.14,326.847 234.807,326.347 236.5,325C 235.109,323.98 233.609,323.147 232,322.5C 231.421,321.072 231.588,319.738 232.5,318.5 Z"/></g>
<g><path style="opacity:1" fill="#1a1a1a" d="M 251.5,320.5 C 252.249,321.531 252.915,322.698 253.5,324C 252.365,324.749 251.365,324.583 250.5,323.5C 251.127,322.583 251.461,321.583 251.5,320.5 Z"/></g>
<g><path style="opacity:0.004" fill="#fefffe" d="M 13.5,323.5 C 14.8333,324.167 14.8333,324.167 13.5,323.5 Z"/></g>
<g><path style="opacity:1" fill="#969697" d="M 261.5,323.5 C 260.883,323.389 260.383,323.056 260,322.5C 259.798,324.256 259.298,325.922 258.5,327.5C 257.167,324.5 257.167,321.5 258.5,318.5C 260.262,319.688 261.262,321.355 261.5,323.5 Z"/></g>
<g><path style="opacity:1" fill="#c5c6c7" d="M 241.5,318.5 C 243.288,318.215 244.955,318.548 246.5,319.5C 245.418,319.749 244.085,319.915 242.5,320C 239.833,322 239.833,324 242.5,326C 244.085,326.085 245.418,326.251 246.5,326.5C 239.409,327.531 237.742,324.864 241.5,318.5 Z"/></g>
<g><path style="opacity:1" fill="#a35db7" d="M 336.5,255.5 C 337.167,256.5 337.833,257.5 338.5,258.5C 338.833,259.167 339.167,259.833 339.5,260.5C 339.5,300.167 339.5,339.833 339.5,379.5C 339.167,379.5 338.833,379.5 338.5,379.5C 338.667,340.499 338.5,301.499 338,262.5C 337.768,261.263 337.268,260.263 336.5,259.5C 336.5,258.167 336.5,256.833 336.5,255.5 Z"/></g>
<g><path style="opacity:1" fill="#c87787" d="M 222.5,314.5 C 221.199,315.64 220.032,316.973 219,318.5C 217.559,324.228 218.726,329.228 222.5,333.5C 220.248,333.084 218.748,331.751 218,329.5C 217.333,325.167 217.333,320.833 218,316.5C 219.11,314.963 220.61,314.297 222.5,314.5 Z"/></g>
<g><path style="opacity:1" fill="#30227a" d="M 143.5,301.5 C 144.03,309.819 144.863,318.153 146,326.5C 146.327,355.561 147.161,384.561 148.5,413.5C 157.173,413.666 165.84,413.5 174.5,413C 175,412.5 175.5,412 176,411.5C 176.499,407.848 176.665,404.182 176.5,400.5C 177.647,404.646 177.814,408.98 177,413.5C 173.17,414.199 169.337,414.866 165.5,415.5C 161.03,414.514 156.363,414.181 151.5,414.5C 150.167,414.5 148.833,414.5 147.5,414.5C 145.751,376.85 144.417,339.183 143.5,301.5 Z"/></g>
<g><path style="opacity:1" fill="#684ee0" d="M 339.5,260.5 C 340.995,260.989 342.329,261.655 343.5,262.5C 342.761,262.369 342.094,262.536 341.5,263C 343.67,264.586 346.004,265.92 348.5,267C 349.252,267.671 349.586,268.504 349.5,269.5C 347.695,268.763 346.029,267.763 344.5,266.5C 343.264,267.246 341.93,267.579 340.5,267.5C 340.5,315.167 340.5,362.833 340.5,410.5C 347.833,410.5 355.167,410.5 362.5,410.5C 362.216,408.585 362.549,406.919 363.5,405.5C 363.5,407.5 363.5,409.5 363.5,411.5C 355.5,411.5 347.5,411.5 339.5,411.5C 339.5,400.833 339.5,390.167 339.5,379.5C 339.5,339.833 339.5,300.167 339.5,260.5 Z"/></g>
<g><path style="opacity:0.004" fill="#fefffe" d="M 64.5,336.5 C 65.8333,337.167 65.8333,337.167 64.5,336.5 Z"/></g>
<g><path style="opacity:1" fill="#5d55d6" d="M 412.5,318.5 C 413.648,322.981 413.815,327.648 413,332.5C 411.816,344.021 410.316,355.354 408.5,366.5C 409.55,350.46 410.884,334.46 412.5,318.5 Z"/></g>
<g><path style="opacity:0.004" fill="#fefffe" d="M 12.5,341.5 C 13.8333,342.167 13.8333,342.167 12.5,341.5 Z"/></g>
<g><path style="opacity:1" fill="#2b1f7d" d="M 134.5,296.5 C 133.213,305.627 132.213,314.794 131.5,324C 133.131,341.509 134.797,359.009 136.5,376.5C 135.778,376.082 135.278,375.416 135,374.5C 134.646,365.088 133.646,355.754 132,346.5C 131.801,344.598 130.967,343.098 129.5,342C 130.157,330.228 130.824,318.395 131.5,306.5C 132.135,302.932 133.135,299.599 134.5,296.5 Z"/></g>
<g><path style="opacity:0.004" fill="#fefffe" d="M 5.5,346.5 C 6.83333,347.167 6.83333,347.167 5.5,346.5 Z"/></g>
<g><path style="opacity:1" fill="#e286b2" d="M 174.5,319.5 C 176.07,342.653 177.07,365.986 177.5,389.5C 177.167,389.5 176.833,389.5 176.5,389.5C 175.563,366.178 174.897,342.845 174.5,319.5 Z"/></g>
<g><path style="opacity:0.004" fill="#fefffe" d="M 68.5,357.5 C 69.8333,358.167 69.8333,358.167 68.5,357.5 Z"/></g>
<g><path style="opacity:0.004" fill="#fefffe" d="M 466.5,357.5 C 467.833,358.167 467.833,358.167 466.5,357.5 Z"/></g>
<g><path style="opacity:0.004" fill="#fefffe" d="M 412.5,374.5 C 413.833,375.167 413.833,375.167 412.5,374.5 Z"/></g>
<g><path style="opacity:1" fill="#4c237c" d="M 173.5,319.5 C 173.833,319.5 174.167,319.5 174.5,319.5C 174.897,342.845 175.563,366.178 176.5,389.5C 176.5,392.833 176.5,396.167 176.5,399.5C 175.681,396.695 175.181,393.695 175,390.5C 174.286,366.836 173.786,343.17 173.5,319.5 Z"/></g>
<g><path style="opacity:1" fill="#0e0734" d="M 337.5,380.5 C 337.833,380.5 338.167,380.5 338.5,380.5C 338.5,385.167 338.5,389.833 338.5,394.5C 338.167,394.5 337.833,394.5 337.5,394.5C 337.817,390.298 337.483,386.298 336.5,382.5C 336.833,381.833 337.167,381.167 337.5,380.5 Z"/></g>
<g><path style="opacity:0.941" fill="#020001" d="M 336.5,382.5 C 337.483,386.298 337.817,390.298 337.5,394.5C 331.633,397.843 325.3,399.677 318.5,400C 271.148,399.584 223.815,399.417 176.5,399.5C 176.5,396.167 176.5,392.833 176.5,389.5C 176.833,389.5 177.167,389.5 177.5,389.5C 177.5,389.833 177.5,390.167 177.5,390.5C 225.998,391.665 274.665,391.832 323.5,391C 324.056,390.617 324.389,390.117 324.5,389.5C 329.129,388.187 333.129,385.854 336.5,382.5 Z"/></g>
<g><path style="opacity:1" fill="#1d0000" d="M 322.5,389.5 C 323.167,389.5 323.833,389.5 324.5,389.5C 324.389,390.117 324.056,390.617 323.5,391C 274.665,391.832 225.998,391.665 177.5,390.5C 226.003,390.832 274.336,390.499 322.5,389.5 Z"/></g>
<g><path style="opacity:1" fill="#5b51d8" d="M 408.5,367.5 C 407.806,379.048 406.472,390.381 404.5,401.5C 404.281,391.441 404.948,381.441 406.5,371.5C 406.585,369.667 407.252,368.334 408.5,367.5 Z"/></g>
<g><path style="opacity:0.004" fill="#fefffe" d="M 63.5,398.5 C 64.8333,399.167 64.8333,399.167 63.5,398.5 Z"/></g>
<g><path style="opacity:0.865" fill="#6758bf" d="M 338.5,379.5 C 338.833,379.5 339.167,379.5 339.5,379.5C 339.5,390.167 339.5,400.833 339.5,411.5C 347.5,411.5 355.5,411.5 363.5,411.5C 363.5,409.5 363.5,407.5 363.5,405.5C 363.833,405.5 364.167,405.5 364.5,405.5C 364.5,407.833 364.5,410.167 364.5,412.5C 361.941,412.198 359.607,412.532 357.5,413.5C 352.167,412.167 346.833,412.167 341.5,413.5C 340.85,413.196 340.183,412.863 339.5,412.5C 338.504,406.537 338.171,400.537 338.5,394.5C 338.5,389.833 338.5,385.167 338.5,380.5C 338.5,380.167 338.5,379.833 338.5,379.5 Z"/></g>
<g><path style="opacity:1" fill="#6b5ad4" d="M 377.5,322.5 C 378.15,322.804 378.817,323.137 379.5,323.5C 380.5,352.826 380.833,382.159 380.5,411.5C 387.833,411.5 395.167,411.5 402.5,411.5C 401.931,407.671 402.598,404.337 404.5,401.5C 404.837,405.308 404.337,408.974 403,412.5C 400.959,413.423 398.792,413.756 396.5,413.5C 391.167,413.5 385.833,413.5 380.5,413.5C 379.675,384.905 379.175,356.239 379,327.5C 378.392,325.846 377.892,324.179 377.5,322.5 Z"/></g>
<g><path style="opacity:1" fill="#cda6ce" d="M 357.5,413.5 C 357.5,414.167 357.167,414.5 356.5,414.5C 351.833,413.167 347.167,413.167 342.5,414.5C 341.833,414.5 341.5,414.167 341.5,413.5C 346.833,412.167 352.167,412.167 357.5,413.5 Z"/></g>
<g><path style="opacity:0.973" fill="#302074" d="M 110.5,399.5 C 112.437,404.115 113.77,409.115 114.5,414.5C 122.809,413.712 131.142,413.379 139.5,413.5C 139.5,410.833 139.5,408.167 139.5,405.5C 140.477,408.287 140.81,411.287 140.5,414.5C 139.167,414.5 137.833,414.5 136.5,414.5C 131.637,414.181 126.97,414.514 122.5,415.5C 119.223,415.784 116.057,415.451 113,414.5C 111.84,409.547 111.007,404.547 110.5,399.5 Z"/></g>
<g><path style="opacity:0.004" fill="#fefffe" d="M 314.5,414.5 C 315.833,415.167 315.833,415.167 314.5,414.5 Z"/></g>
<g><path style="opacity:0.004" fill="#fefffe" d="M 62.5,419.5 C 63.8333,420.167 63.8333,420.167 62.5,419.5 Z"/></g>
<g><path style="opacity:1" fill="#dba999" d="M 380.5,413.5 C 385.833,413.5 391.167,413.5 396.5,413.5C 396.5,416.5 396.5,419.5 396.5,422.5C 391.405,422.779 386.405,422.445 381.5,421.5C 381.721,418.721 381.388,416.054 380.5,413.5 Z"/></g>
<g><path style="opacity:1" fill="#cea598" d="M 356.5,414.5 C 356.5,416.833 356.5,419.167 356.5,421.5C 351.934,422.797 347.267,422.797 342.5,421.5C 342.5,419.167 342.5,416.833 342.5,414.5C 347.167,413.167 351.833,413.167 356.5,414.5 Z"/></g>
<g><path style="opacity:1" fill="#e9ae94" d="M 344.5,414.5 C 347.833,414.5 351.167,414.5 354.5,414.5C 354.5,416.5 354.5,418.5 354.5,420.5C 351.482,420.665 348.482,420.498 345.5,420C 344.594,418.301 344.261,416.467 344.5,414.5 Z"/></g>
<g><path style="opacity:0.004" fill="#fefffe" d="M 49.5,426.5 C 50.8333,427.167 50.8333,427.167 49.5,426.5 Z"/></g>
<g><path style="opacity:0.004" fill="#fefffe" d="M 183.5,426.5 C 184.833,427.167 184.833,427.167 183.5,426.5 Z"/></g>
<g><path style="opacity:0.004" fill="#fefffe" d="M 422.5,426.5 C 423.833,427.167 423.833,427.167 422.5,426.5 Z"/></g>
<g><path style="opacity:1" fill="#262523" d="M 381.5,421.5 C 386.405,422.445 391.405,422.779 396.5,422.5C 402.264,427.271 408.93,430.437 416.5,432C 417.517,433.049 417.684,434.216 417,435.5C 412.915,436.152 408.748,436.485 404.5,436.5C 398.838,436.706 393.338,436.039 388,434.5C 385.282,437.07 382.615,437.07 380,434.5C 379.271,429.999 379.771,425.665 381.5,421.5 Z"/></g>
<g><path style="opacity:1" fill="#d9ac9c" d="M 136.5,414.5 C 136.892,418.342 137.892,422.009 139.5,425.5C 136.485,427.674 133.151,429.341 129.5,430.5C 124.923,434.55 119.923,435.217 114.5,432.5C 117.688,430.31 120.855,427.976 124,425.5C 123.839,422.168 123.339,418.835 122.5,415.5C 126.97,414.514 131.637,414.181 136.5,414.5 Z"/></g>
<g><path style="opacity:1" fill="#e9ae94" d="M 129.5,430.5 C 128.417,430.461 127.417,430.127 126.5,429.5C 125.191,431.891 124.191,431.891 123.5,429.5C 125.641,425.69 125.975,421.69 124.5,417.5C 128.107,416.511 131.774,416.177 135.5,416.5C 136.051,419.807 136.384,423.14 136.5,426.5C 134.473,426.338 132.473,426.505 130.5,427C 129.663,428.011 129.33,429.178 129.5,430.5 Z"/></g>
<g><path style="opacity:0.004" fill="#fefffe" d="M 304.5,429.5 C 305.833,430.167 305.833,430.167 304.5,429.5 Z"/></g>
<g><path style="opacity:1" fill="#252622" d="M 342.5,421.5 C 347.267,422.797 351.934,422.797 356.5,421.5C 357.364,422.688 358.364,423.855 359.5,425C 365.523,427.896 371.69,430.396 378,432.5C 378.684,433.784 378.517,434.951 377.5,436C 373.5,436.167 369.5,436.333 365.5,436.5C 359.838,436.706 354.338,436.039 349,434.5C 346.847,436.444 344.347,436.944 341.5,436C 340.088,430.972 340.422,426.139 342.5,421.5 Z"/></g>
<g><path style="opacity:0.993" fill="#272622" d="M 139.5,425.5 C 140.79,426.058 141.623,427.058 142,428.5C 142.588,433.528 142.422,438.528 141.5,443.5C 129.5,443.5 117.5,443.5 105.5,443.5C 105.5,441.833 105.5,440.167 105.5,438.5C 107.857,438.663 110.19,438.497 112.5,438C 111.627,436.955 110.627,436.122 109.5,435.5C 110.965,434.263 112.632,433.263 114.5,432.5C 119.923,435.217 124.923,434.55 129.5,430.5C 133.151,429.341 136.485,427.674 139.5,425.5 Z"/></g>
<g><path style="opacity:1" fill="#282622" d="M 148.5,425.5 C 153.516,428.674 158.849,431.341 164.5,433.5C 166.288,434.622 168.288,434.789 170.5,434C 171.252,433.329 171.586,432.496 171.5,431.5C 174.004,432.584 176.337,433.917 178.5,435.5C 177.373,436.122 176.373,436.955 175.5,438C 177.81,438.497 180.143,438.663 182.5,438.5C 182.5,440.167 182.5,441.833 182.5,443.5C 170.5,443.5 158.5,443.5 146.5,443.5C 145.578,438.528 145.412,433.528 146,428.5C 146.377,427.058 147.21,426.058 148.5,425.5 Z"/></g>
<g><path style="opacity:1" fill="#d6aa9d" d="M 151.5,414.5 C 156.363,414.181 161.03,414.514 165.5,415.5C 164.661,418.835 164.161,422.168 164,425.5C 166.688,427.364 169.188,429.364 171.5,431.5C 171.586,432.496 171.252,433.329 170.5,434C 168.288,434.789 166.288,434.622 164.5,433.5C 158.849,431.341 153.516,428.674 148.5,425.5C 150.108,422.009 151.108,418.342 151.5,414.5 Z"/></g>
<g><path style="opacity:1" fill="#e9ae94" d="M 164.5,433.5 C 162.342,431.907 160.342,430.074 158.5,428C 156.112,427.697 153.945,426.863 152,425.5C 151.505,422.469 151.671,419.469 152.5,416.5C 156.167,416.5 159.833,416.5 163.5,416.5C 162.955,419.813 162.455,423.146 162,426.5C 161.5,427 161,427.5 160.5,428C 164.312,427.906 167.312,429.406 169.5,432.5C 167.955,433.452 166.288,433.785 164.5,433.5 Z"/></g>
<g><path style="opacity:1" fill="#c2aca2" d="M 178.5,435.5 C 180.632,435.554 181.965,436.554 182.5,438.5C 180.143,438.663 177.81,438.497 175.5,438C 176.373,436.955 177.373,436.122 178.5,435.5 Z"/></g>
<g><path style="opacity:1" fill="#c1a69b" d="M 109.5,435.5 C 110.627,436.122 111.627,436.955 112.5,438C 110.19,438.497 107.857,438.663 105.5,438.5C 106.035,436.554 107.368,435.554 109.5,435.5 Z"/></g>
<g><path style="opacity:0.004" fill="#fefffe" d="M 347.5,459.5 C 348.833,460.167 348.833,460.167 347.5,459.5 Z"/></g>
<g><path style="opacity:0.004" fill="#fefffe" d="M 184.5,470.5 C 185.833,471.167 185.833,471.167 184.5,470.5 Z"/></g>
<g><path style="opacity:0.004" fill="#fefffe" d="M 217.5,474.5 C 218.833,475.167 218.833,475.167 217.5,474.5 Z"/></g>
<g><path style="opacity:0.004" fill="#fefffe" d="M 386.5,474.5 C 387.833,475.167 387.833,475.167 386.5,474.5 Z"/></g>
<g><path style="opacity:0.004" fill="#fefffe" d="M 64.5,476.5 C 65.8333,477.167 65.8333,477.167 64.5,476.5 Z"/></g>
<g><path style="opacity:0.004" fill="#fefffe" d="M 116.5,476.5 C 117.833,477.167 117.833,477.167 116.5,476.5 Z"/></g>
<g><path style="opacity:0.004" fill="#fefffe" d="M 440.5,485.5 C 441.833,486.167 441.833,486.167 440.5,485.5 Z"/></g>
<g><path style="opacity:0.004" fill="#fefffe" d="M 412.5,494.5 C 413.833,495.167 413.833,495.167 412.5,494.5 Z"/></g>
</svg>
