<svg width="1001" height="357" viewBox="0 0 1001 357" fill="none" xmlns="http://www.w3.org/2000/svg">
<g filter="url(#filter0_d_7_2)">
<g clip-path="url(#clip0_7_2)">
<path d="M218.41 246.05C200.75 260.46 172.31 258.48 158.54 232.73C141.14 200.19 121.92 168.62 103.43 136.67C95.22 122.48 83.03 115.46 66.43 115.74C47.94 116.05 29.43 115.81 10.96 115.82C4.39997 115.82 4.36997 115.82 7.66997 121.56C29.67 159.74 51.6933 197.913 73.74 236.08C88.11 261 102.44 285.94 116.92 310.8C131.3 335.48 165.82 337.47 180.81 313.8C194.87 291.64 207.46 268.55 220.7 245.87L219.97 245.08C219.428 245.366 218.906 245.69 218.41 246.05Z" stroke="#48239E" stroke-width="3" stroke-miterlimit="10"/>
<path d="M568 143.35C558.62 151.35 547.56 151.94 536.09 151.59C520.95 151.12 505.8 151.05 490.65 150.88C481.83 150.78 473 150.79 464.17 150.81C462.17 150.81 460.65 150.72 460.73 147.95C461.21 131.48 461.58 115.02 461.96 98.56C462.186 95.076 461.452 91.5967 459.84 88.5C455.22 80.17 450.15 72.13 443.84 65.07C438.93 59.63 433.3 54.82 427.48 49.23C427.48 61.53 427.48 73.15 427.48 84.78C427.41 104.92 427.26 125.07 427.27 145.21C427.27 148.37 426.88 150.13 423.01 150.01C417.37 149.83 411.71 150.37 406.06 150.52C389.94 150.93 373.78 150.64 357.86 153.78C348.71 155.58 339.21 157.05 331.95 163.37C321.795 172.011 312.152 181.237 303.07 191C300.07 194.26 297.99 197.83 298.29 202.62C298.83 211.33 302.88 218.16 309.17 223.77C320.76 234.12 330.66 245.98 340.3 258.09C354.74 276.26 358.12 303.09 341 320.09C340.74 320.34 340.81 320.92 340.67 321.6C341.38 321.43 341.91 321.45 342.22 321.19C354.94 310.83 366.32 299.19 375.07 285.25C379.56 278.08 381.53 270.25 380.07 261.86C378.805 253.954 376.067 246.356 372 239.46C365.64 228.83 357.41 219.67 349 210.69C343 204.27 336.8 197.96 330.72 191.57C328.72 189.45 327.14 186.85 327.77 183.97C328.46 180.81 331.71 180.6 334.26 180.32C339.87 179.71 345.51 179.25 351.15 179.09C379.1 178.3 407.07 178.57 435.03 178.32C455.66 178.14 476.32 178.45 496.96 178.66C512.829 179.01 528.487 174.975 542.21 167C552.46 161 561.3 153.46 568 143.35Z" stroke="#48239E" stroke-width="3" stroke-miterlimit="10"/>
<path d="M855.94 324.79C847.08 320.79 841.44 314.29 841.46 304.52C841.46 287.39 842.36 270.26 842.77 253.13C843.18 235.54 845.1 217.91 842.33 200.36C838.41 175.54 816.62 147.55 782.49 151.77C766.06 153.77 753.67 162.38 744.94 176.4C746.78 174.63 748.63 172.86 750.46 171.08C769.89 152.31 799.46 152.36 817.12 171.14C818.549 172.533 819.675 174.206 820.429 176.054C821.183 177.902 821.547 179.885 821.5 181.88C821.32 189.45 815.4 196.88 806.22 200.35C796.75 203.97 787.07 206.94 777.32 209.74C758.98 215.02 740.14 218.74 722.32 225.74C695.32 236.33 681.99 260 686.55 288.14C690.99 315.5 719.65 334.68 748.2 329.38C771.53 325.05 787.79 311.44 798.42 290.69C801.55 284.59 804.13 278.2 806.11 273.83C806.11 284.36 806.47 296.68 806 308.96C805.55 320.75 812.14 328.48 823.87 328.74C830.52 328.89 837.17 328.97 843.87 329.46C850.57 329.95 857.27 329.57 864.87 329.57C862 326.17 858.67 326 855.94 324.79ZM808.36 233.69C808.04 255.69 803.52 276.61 790.6 294.97C781.43 307.97 769.15 315.74 752.82 315.65C737.62 315.57 727.29 306.92 723.21 292.29C714.45 260.81 730.81 235.79 757.66 223.86C769.322 218.539 781.783 215.181 794.54 213.92C804.17 213.04 808.1 216.42 808.35 226.2C808.41 228.7 808.36 231.2 808.36 233.69Z" stroke="#48239E" stroke-width="3" stroke-miterlimit="10"/>
<path d="M681.07 326.43C666.85 321.14 662.13 314.66 662.43 299.43C662.98 271.48 664.59 243.57 664.68 215.62C664.68 205.35 663.45 195.32 659.23 185.95C642.77 149.4 604.29 141.11 576.12 163.95C572.31 167.05 568.65 170.4 567.12 175.43C569.24 173.99 570.74 171.96 572.54 170.24C591.05 152.61 620.1 152.66 637.35 170.31C644.9 178.03 644.35 188.16 635.99 195.03C627.07 202.39 615.88 204.36 605.33 207.66C585.68 213.82 565.33 217.66 546 224.8C523.89 232.95 505.58 250.63 507 280.51C508.42 310.39 528.37 326.99 556.21 329.51C579.62 331.66 597.63 320.9 611.82 303.04C619.03 293.96 623.33 283.3 627.27 273.19C627.27 285.54 627.21 298.47 627.27 311.39C627.33 321.67 633.75 328.18 644.01 328.62C650.01 328.88 656.01 329.28 662.01 329.38C669.68 329.52 677.35 329.38 685.47 329.38C684.27 327.18 682.57 327 681.07 326.43ZM629.38 234.31C629.17 256.36 624.54 277.24 611.38 295.42C602.02 308.42 589.65 316.25 572.95 315.71C558.68 315.25 547.95 306.71 544.39 292.9C536.13 260.47 550.84 234.16 584.26 221.66C593.61 218.16 603.1 215.17 613.11 214.19C615.743 213.807 618.422 213.854 621.04 214.33C626.69 215.59 628.99 217.96 629.31 223.82C629.54 227.31 629.38 230.81 629.38 234.31Z" stroke="#48239E" stroke-width="3" stroke-miterlimit="10"/>
<path d="M972.74 314.73C962.55 298.3 953.83 281.09 945.34 263.73C940.95 254.78 935.58 247.1 925.8 242.81C946.71 238.16 962.98 227.81 965.8 205.6C968.56 184.03 958.96 167.77 938.02 159.06C949.59 158.75 960.75 158.77 971.91 158.73C973.91 158.73 976.35 159.54 976.35 155.87C976.35 152.2 974.08 152.87 971.98 152.87H853.55C851.43 152.87 849.16 152.37 849.18 155.87C849.2 159.37 851.69 158.69 853.68 158.7C865.84 158.7 878 158.51 890.16 158.79C899.69 159.01 909.16 160.11 917.16 166.03C931.64 176.72 937.5 200.52 929.72 217.48C922.65 232.88 911.15 241.84 893.55 241.71C889.4 241.71 885.24 242.11 881.09 242.42C879.89 242.51 877.82 241.79 877.76 243.51C877.68 245.81 880.01 244.62 881.26 244.99C882.234 245.276 883.245 245.411 884.26 245.39C894.66 245.12 902.26 249.94 908.45 257.97C914.936 266.425 920.539 275.523 925.17 285.12C931.65 298.42 937.84 311.86 944.17 325.22C944.92 326.79 945.27 328.55 947.74 328.78C960.91 330.06 974.07 329.28 987.44 329.04C979.92 326.79 976.43 320.68 972.74 314.73Z" stroke="#48239E" stroke-width="3" stroke-miterlimit="10"/>
<path d="M274.93 148.83C262.93 148.78 250.93 148.83 238.93 148.83C237.93 148.83 236.81 148.7 236.58 150.04C236.39 151.17 236 152.76 237.3 153.16C240.3 154.07 239.64 156.38 239.64 158.42C239.64 202.83 239.32 247.23 240.2 291.63C240.2 302.95 240.28 314.27 240.14 325.58C240.14 328.77 241.05 329.97 244.39 329.88C252.54 329.68 260.72 329.51 268.85 329.93C273.65 330.19 274.52 328.46 274.51 324.07C274.35 268.99 274.31 213.91 274.39 158.83C274.39 156.51 273.61 154.12 276.62 152.36C278.17 151.47 277.82 148.84 274.93 148.83ZM253.48 158.16C253.433 171.947 253.433 185.733 253.48 199.52C253.48 206.43 249.91 212.1 247.92 218.32L246.46 218.09V211.36C246.46 193.58 246.46 175.803 246.46 158.03C246.46 155.69 246.03 153.49 249.77 153.42C253.69 153.33 253.49 155.51 253.48 158.16ZM260.34 183.72C260.34 174.47 260.39 165.22 260.34 155.98C260.34 153.37 261.72 153.05 263.82 152.98C266.48 152.98 267.05 154.24 267.3 156.65C268.3 166.5 264.8 175.15 260.34 183.72Z" stroke="#48239E" stroke-width="3" stroke-miterlimit="10"/>
<path d="M459.13 197.3C459.13 195.48 458.7 193.65 458.74 191.84C458.81 189.44 457.74 189.34 455.67 189.5C450.56 189.89 445.48 190.98 440.27 190.08C436.72 189.46 431.94 187.87 429.73 189.48C426.73 191.66 429.73 196.6 429.18 200.34C429.09 201.502 429.09 202.668 429.18 203.83C429.18 236.117 429.18 268.403 429.18 300.69C429.18 305.63 429.78 310.32 432.83 314.39C441.046 325.235 449.944 335.545 459.47 345.26V341.1C459.35 293.16 459.237 245.227 459.13 197.3Z" stroke="#48239E" stroke-width="3" stroke-miterlimit="10"/>
<path d="M277.74 16.48C271.47 20.86 265.74 25.99 259.29 30.12C243.88 40 239.15 54.51 240.48 71.83C241.14 80.34 245.18 88.47 250.19 91.3C247.8 81.5 250.57 73.65 258.68 67.6C264 63.6 269.11 59.34 274.34 55.22C280.92 50.02 286.26 43.93 287.18 35.22C288.24 25.22 288.18 15.31 284.9 4.57999C282.9 9.73999 281.61 13.79 277.74 16.48Z" stroke="#48239E" stroke-width="3" stroke-miterlimit="10"/>
<path d="M279.07 65.19C278.524 64.967 277.926 64.8994 277.344 64.9947C276.761 65.09 276.217 65.3445 275.77 65.73C274.37 66.96 276.26 67.18 276.62 67.83C277.73 69.83 276.09 70.34 274.96 71.27C269.04 76.13 264.31 82.27 258.76 87.4C248.63 96.8 250.92 122.01 260.07 131.75C262.02 125.16 263.81 118.92 267.43 113.46C271.05 108 274.83 102.46 278.7 97.04C283.653 90.2466 285.723 81.772 284.46 73.46C284 69.91 282.89 66.61 279.07 65.19Z" stroke="#48239E" stroke-width="3" stroke-miterlimit="10"/>
</g>
</g>
<defs>
<filter id="filter0_d_7_2" x="0" y="0" width="1000.86" height="356.97" filterUnits="userSpaceOnUse" color-interpolation-filters="sRGB">
<feFlood flood-opacity="0" result="BackgroundImageFix"/>
<feColorMatrix in="SourceAlpha" type="matrix" values="0 0 0 0 0 0 0 0 0 0 0 0 0 0 0 0 0 0 127 0" result="hardAlpha"/>
<feOffset dy="4"/>
<feGaussianBlur stdDeviation="2"/>
<feComposite in2="hardAlpha" operator="out"/>
<feColorMatrix type="matrix" values="0 0 0 0 0 0 0 0 0 0 0 0 0 0 0 0 0 0 0.25 0"/>
<feBlend mode="normal" in2="BackgroundImageFix" result="effect1_dropShadow_7_2"/>
<feBlend mode="normal" in="SourceGraphic" in2="effect1_dropShadow_7_2" result="shape"/>
</filter>
<clipPath id="clip0_7_2">
<rect x="4" width="992.86" height="348.97" fill="white"/>
</clipPath>
</defs>
</svg>
