<svg width="982" height="341" viewBox="0 0 982 341" fill="none" xmlns="http://www.w3.org/2000/svg">
<g clip-path="url(#clip0_5_2)">
<path d="M212.91 241.47C195.25 255.88 166.81 253.9 153.04 228.15C135.64 195.61 116.42 164.04 97.93 132.08C89.72 117.89 77.53 110.88 60.93 111.16C42.44 111.47 23.93 111.22 5.45997 111.23C-1.10003 111.23 -1.13003 111.23 2.16997 116.98C24.17 155.153 46.1933 193.323 68.24 231.49C82.62 256.41 96.95 281.36 111.43 306.21C125.81 330.89 160.33 332.89 175.32 309.21C189.37 287.08 202 264 215.2 241.32L214.47 240.53C213.928 240.806 213.407 241.12 212.91 241.47Z" fill="#FFDEFE"/>
<path d="M562.5 138.76C553.12 146.76 542.06 147.36 530.59 147C515.45 146.53 500.3 146.47 485.15 146.3C476.33 146.2 467.5 146.21 458.67 146.22C456.67 146.22 455.15 146.13 455.23 143.36C455.71 126.9 456.08 110.44 456.46 93.97C456.686 90.486 455.952 87.0067 454.34 83.91C449.72 75.59 444.65 67.54 438.34 60.49C433.43 55.04 427.8 50.24 421.98 44.65C421.98 56.94 421.98 68.57 421.98 80.2C421.91 100.34 421.76 120.48 421.77 140.63C421.77 143.78 421.38 145.54 417.51 145.42C411.87 145.25 406.21 145.79 400.56 145.93C384.44 146.34 368.28 146.06 352.36 149.19C343.21 151 333.71 152.46 326.45 158.79C316.313 167.43 306.69 176.656 297.63 186.42C294.63 189.67 292.55 193.24 292.85 198.04C293.39 206.75 297.44 213.58 303.73 219.19C315.32 229.54 325.22 241.39 334.86 253.51C349.3 271.68 352.68 298.51 335.56 315.51C335.3 315.76 335.37 316.33 335.23 317.02C335.94 316.84 336.47 316.86 336.78 316.61C349.5 306.25 360.88 294.61 369.63 280.66C374.12 273.5 376.09 265.66 374.63 257.27C373.349 249.375 370.598 241.79 366.52 234.91C360.16 224.27 351.93 215.11 343.52 206.14C337.52 199.72 331.32 193.41 325.24 187.02C323.24 184.9 321.66 182.3 322.29 179.41C322.98 176.25 326.23 176.05 328.78 175.77C334.39 175.15 340.03 174.7 345.67 174.54C373.62 173.75 401.59 174.02 429.55 173.77C450.18 173.58 470.84 173.89 491.48 174.1C507.362 174.458 523.035 170.423 536.77 162.44C547 156.42 555.8 148.87 562.5 138.76Z" fill="#FFDEFE"/>
<path d="M850.44 320.2C841.58 316.25 835.94 309.71 835.96 299.94C835.96 282.81 836.86 265.68 837.27 248.55C837.68 230.95 839.6 213.33 836.83 195.78C832.91 171 811.12 143 777 147.19C760.57 149.19 748.18 157.8 739.45 171.82L745 166.5C764.43 147.73 794 147.77 811.66 166.55C813.081 167.947 814.199 169.622 814.946 171.469C815.692 173.317 816.051 175.298 816 177.29C815.82 184.87 809.9 192.29 800.72 195.77C791.25 199.38 781.57 202.35 771.82 205.16C753.48 210.43 734.64 214.16 716.82 221.16C689.82 231.75 676.49 255.42 681.05 283.56C685.49 310.91 714.15 330.1 742.7 324.8C766.03 320.46 782.29 306.85 792.92 286.11C796.05 280 798.63 273.62 800.61 269.25C800.61 279.78 800.97 292.09 800.5 304.38C800.05 316.17 806.64 323.89 818.37 324.16C825.02 324.31 831.67 324.38 838.37 324.88C845.07 325.38 851.77 324.99 859.37 324.99C856.53 321.59 853.17 321.42 850.44 320.2ZM802.86 229.11C802.54 251.11 798.02 272.03 785.1 290.39C775.93 303.39 763.65 311.16 747.32 311.07C732.12 310.99 721.79 302.34 717.71 287.7C708.95 256.23 725.31 231.21 752.16 219.28C763.81 213.964 776.257 210.605 789 209.34C798.63 208.45 802.56 211.83 802.81 221.62C802.91 224.12 802.86 226.61 802.86 229.11Z" fill="#FFDEFE"/>
<path d="M675.57 321.84C661.35 316.56 656.63 310.07 656.93 294.84C657.48 266.9 659.09 238.99 659.18 211.03C659.18 200.77 657.95 190.73 653.73 181.36C637.27 144.82 598.79 136.52 570.62 159.36C566.81 162.45 563.15 165.81 561.62 170.84C563.74 169.39 565.24 167.37 567.04 165.65C585.55 148.01 614.6 148.07 631.85 165.72C639.4 173.44 638.85 183.57 630.49 190.44C621.57 197.79 610.38 199.76 599.83 203.07C580.18 209.23 559.83 213.07 540.5 220.21C518.39 228.36 500.08 246.04 501.5 275.91C502.92 305.78 522.87 322.4 550.71 324.91C574.12 327.06 592.13 316.3 606.32 298.43C613.53 289.36 617.83 278.69 621.77 268.59C621.77 280.94 621.71 293.86 621.77 306.79C621.83 317.06 628.25 323.58 638.51 324.02C644.51 324.28 650.51 324.68 656.51 324.78C664.18 324.91 671.85 324.78 679.97 324.78C678.77 322.6 677.07 322.4 675.57 321.84ZM623.88 229.72C623.67 251.78 619.04 272.65 605.88 290.84C596.52 303.84 584.15 311.67 567.45 311.13C553.18 310.67 542.45 302.13 538.89 288.31C530.63 255.89 545.34 229.58 578.76 217.07C588.11 213.57 597.6 210.58 607.61 209.61C610.243 209.227 612.922 209.274 615.54 209.75C621.19 211.01 623.49 213.38 623.81 219.24C624 222.72 623.88 226.23 623.88 229.72Z" fill="#FFDEFE"/>
<path d="M967.24 310.14C957.05 293.72 948.33 276.51 939.84 259.14C935.45 250.2 930.08 242.52 920.3 238.23C941.21 233.57 957.48 223.23 960.3 201.01C963.06 179.45 953.46 163.19 932.52 154.48C944.09 154.16 955.25 154.18 966.41 154.14C968.41 154.14 970.85 154.96 970.85 151.28C970.85 147.6 968.58 148.28 966.48 148.28C926.987 148.28 887.5 148.28 848.02 148.28C845.9 148.28 843.63 147.78 843.65 151.28C843.65 154.95 846.16 154.1 848.15 154.11C860.31 154.11 872.47 153.93 884.63 154.2C894.16 154.42 903.63 155.52 911.63 161.45C926.17 172.21 932 196 924.25 213C917.18 228.39 905.68 237.36 888.08 237.23C883.93 237.23 879.77 237.62 875.62 237.93C874.42 238.02 872.35 237.31 872.29 239.03C872.21 241.33 874.54 240.13 875.79 240.5C876.762 240.796 877.775 240.931 878.79 240.9C889.19 240.64 896.79 245.46 902.98 253.49C909.464 261.943 915.066 271.037 919.7 280.63C926.18 293.94 932.37 307.37 938.7 320.74C939.45 322.31 939.8 324.06 942.27 324.3C955.44 325.58 968.6 324.79 981.97 324.56C974.42 322.21 970.93 316.1 967.24 310.14Z" fill="#FFDEFE"/>
<path d="M269.43 144.24C257.43 144.24 245.43 144.24 233.43 144.24C232.43 144.24 231.31 144.12 231.08 145.46C230.89 146.58 230.5 148.18 231.8 148.57C234.8 149.49 234.14 151.8 234.14 153.84C234.14 198.24 233.82 242.65 234.7 287.05C234.7 298.37 234.78 309.68 234.64 321C234.64 324.18 235.55 325.39 238.89 325.3C247.04 325.09 255.22 324.92 263.35 325.3C268.15 325.55 269.02 323.82 269.01 319.44C268.85 264.36 268.81 209.277 268.89 154.19C268.89 151.88 268.11 149.49 271.12 147.73C272.67 146.88 272.32 144.25 269.43 144.24ZM248 153.58C247.953 167.367 247.953 181.153 248 194.94C248 201.84 244.43 207.52 242.44 213.74L240.98 213.51V206.77C240.98 189.003 240.98 171.23 240.98 153.45C240.98 151.11 240.55 148.91 244.29 148.83C248.19 148.75 248 150.93 248 153.58ZM254.86 179.13C254.86 169.89 254.86 160.64 254.86 151.39C254.86 148.78 256.24 148.47 258.34 148.39C261 148.33 261.57 149.65 261.82 152.06C262.8 161.92 259.3 170.57 254.84 179.13H254.86Z" fill="#FFDEFE"/>
<path d="M453.63 192.72C453.63 190.9 453.2 189.07 453.24 187.25C453.31 184.85 452.24 184.76 450.17 184.92C445.06 185.31 439.98 186.4 434.77 185.5C431.22 184.88 426.44 183.29 424.23 184.9C421.23 187.08 424.23 192.01 423.68 195.75C423.59 196.912 423.59 198.078 423.68 199.24C423.68 231.533 423.68 263.823 423.68 296.11C423.68 301.05 424.28 305.74 427.33 309.81C435.549 320.652 444.447 330.963 453.97 340.68V336.51C453.85 288.583 453.737 240.653 453.63 192.72Z" fill="#FFDEFE"/>
<path d="M272.24 11.9C265.97 16.27 260.24 21.41 253.79 25.54C238.38 35.45 233.65 49.93 234.98 67.24C235.64 75.76 239.68 83.89 244.69 86.72C242.3 76.91 245.07 69.06 253.18 63.01C258.5 59.01 263.61 54.76 268.84 50.64C275.42 45.44 280.76 39.35 281.68 30.64C282.74 20.64 282.68 10.73 279.4 0.00999451C277.4 5.15999 276.11 9.20999 272.24 11.9Z" fill="#FFDEFE"/>
<path d="M273.57 60.6C273.023 60.3783 272.425 60.3123 271.842 60.4094C271.26 60.5065 270.716 60.7628 270.27 61.15C268.87 62.38 270.76 62.59 271.12 63.24C272.23 65.24 270.59 65.76 269.46 66.68C263.54 71.55 258.81 77.68 253.26 82.81C243.13 92.21 245.42 117.43 254.57 127.17C256.52 120.58 258.31 114.34 261.93 108.88C265.55 103.42 269.33 97.88 273.2 92.46C278.167 85.6724 280.252 77.1973 279 68.88C278.5 65.32 277.39 62 273.57 60.6Z" fill="#FFDEFE"/>
</g>
<defs>
<clipPath id="clip0_5_2">
<rect width="981.94" height="340.68" fill="white"/>
</clipPath>
</defs>
</svg>
