<?xml version="1.0" standalone="no"?><svg xmlns="http://www.w3.org/2000/svg" viewBox="0 0 1440 320"><path fill="#341a76" fill-opacity="1" d="M0,96L21.8,117.3C43.6,139,87,181,131,170.7C174.5,160,218,96,262,80C305.5,64,349,96,393,117.3C436.4,139,480,149,524,128C567.3,107,611,53,655,69.3C698.2,85,742,171,785,197.3C829.1,224,873,192,916,192C960,192,1004,224,1047,218.7C1090.9,213,1135,171,1178,149.3C1221.8,128,1265,128,1309,133.3C1352.7,139,1396,149,1418,154.7L1440,160L1440,0L1418.2,0C1396.4,0,1353,0,1309,0C1265.5,0,1222,0,1178,0C1134.5,0,1091,0,1047,0C1003.6,0,960,0,916,0C872.7,0,829,0,785,0C741.8,0,698,0,655,0C610.9,0,567,0,524,0C480,0,436,0,393,0C349.1,0,305,0,262,0C218.2,0,175,0,131,0C87.3,0,44,0,22,0L0,0Z"></path></svg>